<?xml version="1.0" encoding="UTF-8" standalone="no"?>
<!-- Created with Inkscape (http://www.inkscape.org/) -->

<svg
   xmlns:dc="http://purl.org/dc/elements/1.1/"
   xmlns:cc="http://creativecommons.org/ns#"
   xmlns:rdf="http://www.w3.org/1999/02/22-rdf-syntax-ns#"
   xmlns:svg="http://www.w3.org/2000/svg"
   xmlns="http://www.w3.org/2000/svg"
   xmlns:sodipodi="http://sodipodi.sourceforge.net/DTD/sodipodi-0.dtd"
   xmlns:inkscape="http://www.inkscape.org/namespaces/inkscape"
   width="88.213425"
   height="185.00494"
   id="svg2"
   version="1.1"
   inkscape:version="0.48.4 r9939"
   sodipodi:docname="drawing.svg">
  <defs
     id="defs4" />
  <sodipodi:namedview
     id="base"
     pagecolor="#ffffff"
     bordercolor="#666666"
     borderopacity="1.0"
     inkscape:pageopacity="0.0"
     inkscape:pageshadow="2"
     inkscape:zoom="2"
     inkscape:cx="137.79162"
     inkscape:cy="47.520774"
     inkscape:document-units="px"
     inkscape:current-layer="layer1"
     showgrid="true"
     inkscape:window-width="1366"
     inkscape:window-height="748"
     inkscape:window-x="1918"
     inkscape:window-y="-3"
     inkscape:window-maximized="1"
     fit-margin-top="0"
     fit-margin-left="0"
     fit-margin-right="0"
     fit-margin-bottom="0">
    <inkscape:grid
       type="xygrid"
       id="grid2985"
       empspacing="5"
       visible="true"
       enabled="true"
       snapvisiblegridlinesonly="true"
       originx="-231.94102px"
       originy="-694.90476px" />
  </sodipodi:namedview>
  <metadata
     id="metadata7">
    <rdf:RDF>
      <cc:Work
         rdf:about="">
        <dc:format>image/svg+xml</dc:format>
        <dc:type
           rdf:resource="http://purl.org/dc/dcmitype/StillImage" />
        <dc:title></dc:title>
      </cc:Work>
    </rdf:RDF>
  </metadata>
  <g
     inkscape:label="Layer 1"
     inkscape:groupmode="layer"
     id="layer1"
     transform="translate(-231.94102,-172.45247)">
    <path
       sodipodi:type="arc"
       style="fill:#7d7d7d;fill-opacity:1"
       id="path4062-2"
       sodipodi:cx="245"
       sodipodi:cy="337.36218"
       sodipodi:rx="5"
       sodipodi:ry="5"
       d="m 250,337.36218 c 0,2.76143 -2.23858,5 -5,5 -2.76142,0 -5,-2.23857 -5,-5 0,0 0,0 0,0 l 5,0 z"
       transform="matrix(1.2399112,0,0,-1.0801808,-28.574003,705.96781)"
       sodipodi:start="0"
       sodipodi:end="3.1415927" />
    <path
       sodipodi:type="arc"
       style="fill:#7d7d7d;fill-opacity:1"
       id="path4062"
       sodipodi:cx="245"
       sodipodi:cy="337.36218"
       sodipodi:rx="5"
       sodipodi:ry="5"
       d="m 250,337.36218 c 0,2.76143 -2.23858,5 -5,5 -2.76142,0 -5,-2.23857 -5,-5 0,0 0,0 0,0 l 5,0 z"
       transform="matrix(1.2399112,0,0,1.0801808,-28.60651,-20.240506)"
       sodipodi:start="0"
       sodipodi:end="3.1415927" />
    <path
       inkscape:connector-curvature="0"
       id="rect2987"
       d="m 319.86078,175.46914 c 0.001,1.21432 0.002,2.42867 0.003,3.64299 -8.29977,0.0397 -16.59953,0.0793 -24.89929,0.11895 -5.5e-4,-1.21433 -0.002,-2.42867 -0.003,-3.64299 8.29976,-0.0396 16.59951,-0.0793 24.89926,-0.11895 z"
       style="fill:#000000;fill-opacity:1;fill-rule:evenodd;stroke:#000000;stroke-width:0.32667357px;stroke-linecap:butt;stroke-linejoin:miter;stroke-opacity:1" />
    <path
       inkscape:connector-curvature="0"
       id="rect3757"
       d="m 284.95535,172.45247 c 3.33334,0 6.66667,0 10,0 0,3.33334 0,6.66667 0,10 -3.33333,0 -6.66666,0 -10,0 0,-3.33333 0,-6.66666 0,-10 z"
       style="fill:#7d7d7d;fill-opacity:1" />
    <rect
       style="fill:#000000;fill-opacity:1;fill-rule:evenodd;stroke:#000000;stroke-width:0.32927427px;stroke-linecap:butt;stroke-linejoin:miter;stroke-opacity:1"
       id="rect2987-0"
       width="3.7016172"
       height="24.896767"
       x="250.90759"
       y="-319.74237"
       transform="matrix(6.8182178e-4,0.99999977,-0.99998822,0.00485452,0,0)" />
    <rect
       style="fill:#7d7d7d;fill-opacity:1"
       id="rect3757-7"
       width="10"
       height="10"
       x="285.00574"
       y="246.43208" />
    <rect
       style="fill:#000000;fill-opacity:1;fill-rule:evenodd;stroke:#000000;stroke-width:0.33096614px;stroke-linecap:butt;stroke-linejoin:miter;stroke-opacity:1"
       id="rect2987-1"
       width="3.7305479"
       height="24.95821"
       x="213.98563"
       y="-319.81213"
       transform="matrix(6.7820259e-4,0.99999977,-0.99998809,0.00488041,0,0)" />
    <rect
       style="fill:#7d7d7d;fill-opacity:1"
       id="rect3757-71"
       width="10"
       height="10"
       x="284.98724"
       y="209.46906" />
    <rect
       style="fill:#000000;fill-opacity:1;fill-rule:evenodd;stroke:#000000;stroke-width:0.32776263px;stroke-linecap:butt;stroke-linejoin:miter;stroke-opacity:1"
       id="rect2987-14"
       width="3.6677334"
       height="24.896603"
       x="287.96982"
       y="-319.79358"
       transform="matrix(6.8811488e-4,0.99999976,-0.99998843,0.00481011,0,0)" />
    <rect
       style="fill:#7d7d7d;fill-opacity:1"
       id="rect3757-3"
       width="10"
       height="9.9368658"
       x="285.0842"
       y="283.42676" />
    <path
       inkscape:connector-curvature="0"
       id="rect2987-8"
       d="m 291.93042,209.30416 c -1.23999,0.001 -2.47996,0.001 -3.71995,0.003 -0.0404,-8.90409 -0.0809,-17.80818 -0.12146,-26.71228 1.23998,-5.9e-4 2.47996,-10e-4 3.71995,-0.003 0.0404,8.90409 0.081,17.80818 0.12146,26.71226 z"
       style="fill:#000000;fill-opacity:1;fill-rule:evenodd;stroke:#000000;stroke-width:0.34191245px;stroke-linecap:butt;stroke-linejoin:miter;stroke-opacity:1" />
    <path
       inkscape:connector-curvature="0"
       id="rect2987-16"
       d="m 284.72019,175.58329 c 0.002,1.16945 0.004,2.33891 0.006,3.50836 -17.51545,0.0382 -35.03088,0.0764 -52.54632,0.11456 -0.001,-1.16946 -0.004,-2.33891 -0.006,-3.50836 17.51544,-0.0381 35.03086,-0.0764 52.54628,-0.11456 z"
       style="fill:#000000;fill-opacity:1;fill-rule:evenodd;stroke:#000000;stroke-width:0.46570864px;stroke-linecap:butt;stroke-linejoin:miter;stroke-opacity:1" />
    <path
       inkscape:connector-curvature="0"
       id="rect2987-16-9"
       d="m 235.65877,324.07982 c -1.08032,0.006 -2.16063,0.01 -3.24094,0.0168 -0.0354,-48.11102 -0.0706,-96.22199 -0.10584,-144.33299 1.08033,-0.004 2.16063,-0.01 3.24094,-0.0168 0.0353,48.11102 0.0706,96.22196 0.10584,144.33291 z"
       style="fill:#000000;fill-opacity:1;fill-rule:evenodd;stroke:#000000;stroke-width:0.7418406px;stroke-linecap:butt;stroke-linejoin:miter;stroke-opacity:1" />
    <path
       inkscape:connector-curvature="0"
       id="rect2987-16-98"
       d="m 292.2274,320.62074 c 0.002,1.16489 0.003,2.32981 0.006,3.49471 -18.66389,0.0381 -37.32777,0.076 -55.99163,0.11411 -0.001,-1.1649 -0.003,-2.32981 -0.006,-3.49471 18.66387,-0.038 37.32773,-0.076 55.99159,-0.11411 z"
       style="fill:#000000;fill-opacity:1;fill-rule:evenodd;stroke:#000000;stroke-width:0.47979826px;stroke-linecap:butt;stroke-linejoin:miter;stroke-opacity:1" />
    <rect
       style="fill:#7d7d7d;fill-opacity:1"
       id="rect3757-3-3"
       width="10"
       height="9.9368658"
       x="270.12656"
       y="317.44882" />
    <path
       inkscape:connector-curvature="0"
       id="rect2987-8-64"
       d="m 292.00563,246.28918 c -1.23999,0.001 -2.47996,0.001 -3.71995,0.003 -0.0404,-8.90409 -0.0809,-17.80818 -0.12146,-26.71228 1.23998,-5.9e-4 2.47996,-0.001 3.71995,-0.003 0.0404,8.90409 0.081,17.80818 0.12146,26.71226 z"
       style="fill:#000000;fill-opacity:1;fill-rule:evenodd;stroke:#000000;stroke-width:0.34191245px;stroke-linecap:butt;stroke-linejoin:miter;stroke-opacity:1" />
    <path
       inkscape:connector-curvature="0"
       id="rect2987-8-0"
       d="m 292.07477,283.32796 c -1.23999,10e-4 -2.47996,10e-4 -3.71995,0.003 -0.0404,-8.90409 -0.0809,-17.80818 -0.12146,-26.71228 1.23998,-5.9e-4 2.47996,-10e-4 3.71995,-0.003 0.0404,8.90409 0.081,17.80818 0.12146,26.71226 z"
       style="fill:#000000;fill-opacity:1;fill-rule:evenodd;stroke:#000000;stroke-width:0.34191245px;stroke-linecap:butt;stroke-linejoin:miter;stroke-opacity:1" />
    <path
       inkscape:connector-curvature="0"
       id="rect2987-8-0-1"
       d="m 292.25334,320.20296 c -1.23999,10e-4 -2.47996,10e-4 -3.71995,0.003 -0.0404,-8.90409 -0.0809,-17.80818 -0.12146,-26.71228 1.23998,-5.9e-4 2.47996,-10e-4 3.71995,-0.003 0.0404,8.90409 0.081,17.80818 0.12146,26.71226 z"
       style="fill:#000000;fill-opacity:1;fill-rule:evenodd;stroke:#000000;stroke-width:0.34191245px;stroke-linecap:butt;stroke-linejoin:miter;stroke-opacity:1" />
    <path
       inkscape:connector-curvature="0"
       id="rect2987-8-0-1-6"
       d="m 277.0044,357.16467 c -1.23432,10e-4 -2.46862,10e-4 -3.70295,0.003 -0.0402,-9.88723 -0.0805,-19.77446 -0.1209,-29.66171 1.23431,-6.6e-4 2.46862,-0.001 3.70295,-0.003 0.0402,9.88723 0.0806,19.77447 0.1209,29.66169 z"
       style="fill:#000000;fill-opacity:1;fill-rule:evenodd;stroke:#000000;stroke-width:0.3594701px;stroke-linecap:butt;stroke-linejoin:miter;stroke-opacity:1" />
    <path
       inkscape:connector-curvature="0"
       id="rect2987-8-0-1-6-1"
       d="m 236.07299,353.2905 c -1.23621,9.7e-4 -2.4724,9.7e-4 -3.70862,0.003 -0.0403,-9.5525 -0.0806,-19.105 -0.12108,-28.65752 1.23619,-6.4e-4 2.47239,-9.7e-4 3.70862,-0.003 0.0403,9.5525 0.0807,19.10501 0.12108,28.6575 z"
       style="fill:#000000;fill-opacity:1;fill-rule:evenodd;stroke:#000000;stroke-width:0.35360378px;stroke-linecap:butt;stroke-linejoin:miter;stroke-opacity:1"
       inkscape:transform-center-x="-15.115624"
       inkscape:transform-center-y="5.1273742e-05" />
    <path
       inkscape:connector-curvature="0"
       id="rect2987-8-0-1-6-4"
       d="m 232.42497,357.24892 c -0.001,-1.21574 -0.001,-2.43147 -0.004,-3.64722 13.50844,-0.0396 27.01689,-0.0793 40.52536,-0.11908 9e-4,1.21573 0.001,2.43146 0.004,3.64722 -13.50844,0.0396 -27.0169,0.0794 -40.52532,0.11908 z"
       style="fill:#000000;fill-opacity:1;fill-rule:evenodd;stroke:#000000;stroke-width:0.4170002px;stroke-linecap:butt;stroke-linejoin:miter;stroke-opacity:1" />
  </g>
</svg>
