<?xml version="1.0" encoding="UTF-8" standalone="no"?>
<!-- Created with Inkscape (http://www.inkscape.org/) -->

<svg
   xmlns:dc="http://purl.org/dc/elements/1.1/"
   xmlns:cc="http://creativecommons.org/ns#"
   xmlns:rdf="http://www.w3.org/1999/02/22-rdf-syntax-ns#"
   xmlns:svg="http://www.w3.org/2000/svg"
   xmlns="http://www.w3.org/2000/svg"
   xmlns:sodipodi="http://sodipodi.sourceforge.net/DTD/sodipodi-0.dtd"
   xmlns:inkscape="http://www.inkscape.org/namespaces/inkscape"
   width="145.59642"
   height="300.03125"
   id="svg2"
   version="1.1"
   inkscape:version="0.48.4 r9939"
   sodipodi:docname="fahrplan_nxt_bs2.svg">
  <defs
     id="defs4" />
  <sodipodi:namedview
     id="base"
     pagecolor="#ffffff"
     bordercolor="#666666"
     borderopacity="1.0"
     inkscape:pageopacity="0.0"
     inkscape:pageshadow="2"
     inkscape:zoom="1.4142136"
     inkscape:cx="3.9404844"
     inkscape:cy="72.840588"
     inkscape:document-units="px"
     inkscape:current-layer="layer1"
     showgrid="true"
     inkscape:window-width="1366"
     inkscape:window-height="748"
     inkscape:window-x="1918"
     inkscape:window-y="-3"
     inkscape:window-maximized="1"
     fit-margin-top="0"
     fit-margin-left="0"
     fit-margin-right="0"
     fit-margin-bottom="0">
    <inkscape:grid
       type="xygrid"
       id="grid2985"
       empspacing="5"
       visible="true"
       enabled="true"
       snapvisiblegridlinesonly="true"
       originx="-231.93705px"
       originy="-694.89342px" />
  </sodipodi:namedview>
  <metadata
     id="metadata7">
    <rdf:RDF>
      <cc:Work
         rdf:about="">
        <dc:format>image/svg+xml</dc:format>
        <dc:type
           rdf:resource="http://purl.org/dc/dcmitype/StillImage" />
        <dc:title />
      </cc:Work>
    </rdf:RDF>
  </metadata>
  <g
     inkscape:label="Layer 1"
     inkscape:groupmode="layer"
     id="layer1"
     transform="translate(-231.93705,-57.4375)">
    <path
       inkscape:connector-curvature="0"
       id="rect2987"
       d="m 376.88501,82.275905 c 0.002,2.000387 0.003,4.000824 0.005,6.001211 -13.67247,0.0654 -27.34492,0.130634 -41.01738,0.19595 -9e-4,-2.000403 -0.003,-4.000824 -0.005,-6.001211 13.67245,-0.06523 27.34489,-0.130633 41.01733,-0.19595 z"
       style="fill:#000000;fill-opacity:1;fill-rule:evenodd;stroke:#000000;stroke-width:0.53813958px;stroke-linecap:butt;stroke-linejoin:miter;stroke-opacity:1" />
    <rect
       style="fill:#000000;fill-opacity:1;fill-rule:evenodd;stroke:#000000;stroke-width:0.54242378px;stroke-linecap:butt;stroke-linejoin:miter;stroke-opacity:1"
       id="rect2987-0"
       width="6.0977898"
       height="41.013222"
       x="199.33559"
       y="-377.01425"
       transform="matrix(6.8182178e-4,0.99999977,-0.99998822,0.00485452,0,0)" />
    <rect
       style="fill:#000000;fill-opacity:1;fill-rule:evenodd;stroke:#000000;stroke-width:0.5452109px;stroke-linecap:butt;stroke-linejoin:miter;stroke-opacity:1"
       id="rect2987-1"
       width="6.1454482"
       height="41.114441"
       x="141.71899"
       y="-377.15421"
       transform="matrix(6.7820259e-4,0.99999977,-0.99998809,0.00488041,0,0)" />
    <rect
       style="fill:#000000;fill-opacity:1;fill-rule:evenodd;stroke:#000000;stroke-width:0.53993362px;stroke-linecap:butt;stroke-linejoin:miter;stroke-opacity:1"
       id="rect2987-14"
       width="6.0419722"
       height="41.012951"
       x="257.00995"
       y="-376.95676"
       transform="matrix(6.8811488e-4,0.99999976,-0.99998843,0.00481011,0,0)" />
    <path
       inkscape:connector-curvature="0"
       id="rect2987-16"
       d="m 330.2643,57.873295 c 0.003,1.911745 0.008,3.823506 0.0115,5.735233 -32.63897,0.06243 -65.27792,0.124868 -97.91688,0.187286 -0.002,-1.911761 -0.008,-3.823506 -0.0115,-5.735234 32.63897,-0.06227 65.27789,-0.124867 97.91681,-0.187285 z"
       style="fill:#000000;fill-opacity:1;fill-rule:evenodd;stroke:#000000;stroke-width:0.81282157px;stroke-linecap:butt;stroke-linejoin:miter;stroke-opacity:1" />
    <path
       inkscape:connector-curvature="0"
       id="rect2987-16-9"
       d="m 238.06539,302.47346 c -1.77964,0.01 -3.55927,0.0165 -5.3389,0.0277 -0.0583,-79.25479 -0.1163,-158.50949 -0.17435,-237.764246 1.77966,-0.0066 3.55927,-0.01647 5.3389,-0.02768 0.0581,79.254786 0.1163,158.509436 0.17435,237.764106 z"
       style="fill:#000000;fill-opacity:1;fill-rule:evenodd;stroke:#000000;stroke-width:1.22205722px;stroke-linecap:butt;stroke-linejoin:miter;stroke-opacity:1" />
    <path
       inkscape:connector-curvature="0"
       id="rect2987-16-98"
       d="m 331.16661,296.78779 c 0.003,1.91082 0.005,3.82171 0.01,5.73258 -32.87256,0.0624 -65.74507,0.1247 -98.61757,0.18717 -0.002,-1.91084 -0.005,-3.82171 -0.01,-5.73258 32.87249,-0.0623 65.74496,-0.1247 98.61745,-0.18717 z"
       style="fill:#000000;fill-opacity:1;fill-rule:evenodd;stroke:#000000;stroke-width:0.81553769px;stroke-linecap:butt;stroke-linejoin:miter;stroke-opacity:1" />
    <rect
       style="fill:#7d7d7d;fill-opacity:1"
       id="rect3757-3-3"
       width="16.473312"
       height="16.36931"
       x="294.66327"
       y="291.44083" />
    <path
       inkscape:connector-curvature="0"
       id="rect2987-8-0-1"
       d="m 330.9556,298.09127 c -1.8233,0.008 -3.64658,0.008 -5.46991,0.027 -0.0595,-80.00409 -0.11911,-160.00823 -0.17857,-240.012457 1.82328,-0.0066 3.64658,-0.0082 5.46991,-0.02702 0.0595,80.004127 0.11927,160.008237 0.17857,240.012297 z"
       style="fill:#000000;fill-opacity:1;fill-rule:evenodd;stroke:#000000;stroke-width:1.24279237px;stroke-linecap:butt;stroke-linejoin:miter;stroke-opacity:1" />
    <path
       inkscape:connector-curvature="0"
       id="rect2987-8-0-1-6"
       d="m 306.17534,356.97516 c -2.03333,0.002 -4.06663,0.002 -6.09999,0.005 -0.0662,-16.28755 -0.13261,-32.57509 -0.19916,-48.86267 2.03332,-10e-4 4.06664,-0.002 6.09999,-0.005 0.0662,16.28754 0.13277,32.5751 0.19916,48.86263 z"
       style="fill:#000000;fill-opacity:1;fill-rule:evenodd;stroke:#000000;stroke-width:0.5921663px;stroke-linecap:butt;stroke-linejoin:miter;stroke-opacity:1" />
    <path
       inkscape:connector-curvature="0"
       id="rect2987-8-0-1-6-1"
       d="m 238.73976,350.58485 c -2.03129,0.002 -4.06255,0.002 -6.09386,0.005 -0.0662,-16.65287 -0.13244,-33.30574 -0.19895,-49.95866 2.03126,-10e-4 4.06254,-0.002 6.09386,-0.005 0.0662,16.65287 0.13261,33.30576 0.19895,49.95863 z"
       style="fill:#000000;fill-opacity:1;fill-rule:evenodd;stroke:#000000;stroke-width:0.59847105px;stroke-linecap:butt;stroke-linejoin:miter;stroke-opacity:1"
       inkscape:transform-center-x="-24.837411"
       inkscape:transform-center-y="-2.32139e-05" />
    <path
       inkscape:connector-curvature="0"
       id="rect2987-8-0-1-6-4"
       d="m 232.73825,357.11395 c -0.002,-2.00273 -0.002,-4.00544 -0.007,-6.00818 22.25288,-0.0652 44.50577,-0.13063 66.75869,-0.19616 0.001,2.00271 0.002,4.00542 0.007,6.00818 -22.25287,0.0652 -44.50578,0.1308 -66.75862,0.19616 z"
       style="fill:#000000;fill-opacity:1;fill-rule:evenodd;stroke:#000000;stroke-width:0.68693745px;stroke-linecap:butt;stroke-linejoin:miter;stroke-opacity:1" />
    <path
       inkscape:connector-curvature="0"
       id="rect3757"
       d="m 319.37615,77.248514 c 5.49111,0 10.98221,0 16.47331,0 0,5.491115 0,10.982214 0,16.473312 -5.4911,0 -10.9822,0 -16.47331,0 0,-5.491098 0,-10.982197 0,-16.473312 z"
       style="fill:#7d7d7d;fill-opacity:1" />
    <rect
       style="fill:#7d7d7d;fill-opacity:1"
       id="rect3757-71"
       width="16.473312"
       height="16.473312"
       x="319.37463"
       y="134.89345" />
    <rect
       style="fill:#7d7d7d;fill-opacity:1"
       id="rect3757-7"
       width="16.473312"
       height="16.473312"
       x="319.39258"
       y="192.56198" />
    <rect
       style="fill:#7d7d7d;fill-opacity:1"
       id="rect3757-3"
       width="16.473312"
       height="16.36931"
       x="319.38248"
       y="250.23366" />
    <path
       style="fill:#00ff00;fill-opacity:1;stroke:#00ff00;stroke-width:0.41183281;stroke-opacity:1"
       d="m 335.96597,200.73692 -0.001,-2.88283 19.87047,-0.1349 c 10.92876,-0.0742 20.19479,-0.22568 20.59118,-0.33663 0.64385,-0.18021 0.72071,0.15548 0.72071,3.14761 l 0,3.34934 -20.5897,-0.12988 -20.58969,-0.12987 -10e-4,-2.88283 0,0 z"
       id="path5565"
       inkscape:connector-curvature="0" />
  </g>
</svg>
