<?xml version="1.0" encoding="UTF-8" standalone="no"?>
<!-- Created with Inkscape (http://www.inkscape.org/) -->

<svg
   xmlns:dc="http://purl.org/dc/elements/1.1/"
   xmlns:cc="http://creativecommons.org/ns#"
   xmlns:rdf="http://www.w3.org/1999/02/22-rdf-syntax-ns#"
   xmlns:svg="http://www.w3.org/2000/svg"
   xmlns="http://www.w3.org/2000/svg"
   xmlns:sodipodi="http://sodipodi.sourceforge.net/DTD/sodipodi-0.dtd"
   xmlns:inkscape="http://www.inkscape.org/namespaces/inkscape"
   width="143.04312"
   height="300.01132"
   id="svg2"
   version="1.1"
   inkscape:version="0.48.4 r9939"
   sodipodi:docname="fahrplan_nxt_bs3home.svg">
  <defs
     id="defs4" />
  <sodipodi:namedview
     id="base"
     pagecolor="#ffffff"
     bordercolor="#666666"
     borderopacity="1.0"
     inkscape:pageopacity="0.0"
     inkscape:pageshadow="2"
     inkscape:zoom="1.4142136"
     inkscape:cx="104.20281"
     inkscape:cy="207.39885"
     inkscape:document-units="px"
     inkscape:current-layer="layer1"
     showgrid="true"
     inkscape:window-width="1920"
     inkscape:window-height="1025"
     inkscape:window-x="-2"
     inkscape:window-y="-3"
     inkscape:window-maximized="1"
     fit-margin-top="0"
     fit-margin-left="0"
     fit-margin-right="0"
     fit-margin-bottom="0">
    <inkscape:grid
       type="xygrid"
       id="grid2985"
       empspacing="5"
       visible="true"
       enabled="true"
       snapvisiblegridlinesonly="true"
       originx="-231.93729px"
       originy="-694.89342px" />
  </sodipodi:namedview>
  <metadata
     id="metadata7">
    <rdf:RDF>
      <cc:Work
         rdf:about="">
        <dc:format>image/svg+xml</dc:format>
        <dc:type
           rdf:resource="http://purl.org/dc/dcmitype/StillImage" />
        <dc:title />
      </cc:Work>
    </rdf:RDF>
  </metadata>
  <g
     inkscape:label="Layer 1"
     inkscape:groupmode="layer"
     id="layer1"
     transform="translate(-231.93729,-57.457418)">
    <rect
       style="fill:#00ff00;fill-opacity:1;fill-rule:evenodd;stroke:#00ff00;stroke-width:0.4197107px;stroke-linecap:butt;stroke-linejoin:miter;stroke-opacity:1"
       id="rect2987-14-0"
       width="6.0557675"
       height="24.725771"
       x="300.04816"
       y="-329.668"
       transform="matrix(4.1389525e-4,0.99999991,-0.99996803,0.00799681,0,0)" />
    <path
       sodipodi:type="arc"
       style="fill:#7d7d7d;fill-opacity:1"
       id="path4062-2"
       sodipodi:cx="245"
       sodipodi:cy="337.36218"
       sodipodi:rx="5"
       sodipodi:ry="5"
       d="m 250,337.36218 c 0,2.76143 -2.23858,5 -5,5 -2.76142,0 -5,-2.23857 -5,-5 0,0 0,0 0,0 l 5,0 z"
       transform="matrix(2.010613,0,0,-1.7515977,-190.49762,922.59427)"
       sodipodi:start="0"
       sodipodi:end="3.1415927" />
    <path
       sodipodi:type="arc"
       style="fill:#7d7d7d;fill-opacity:1"
       id="path4062"
       sodipodi:cx="245"
       sodipodi:cy="337.36218"
       sodipodi:rx="5"
       sodipodi:ry="5"
       d="m 250,337.36218 c 0,2.76143 -2.23858,5 -5,5 -2.76142,0 -5,-2.23857 -5,-5 0,0 0,0 0,0 l 5,0 z"
       transform="matrix(2.010613,0,0,1.7515977,-190.55033,-255.00932)"
       sodipodi:start="0"
       sodipodi:end="3.1415927" />
    <path
       inkscape:connector-curvature="0"
       id="rect2987"
       d="m 374.51664,62.349185 c 10e-4,1.969115 0.004,3.938278 0.005,5.907393 -13.45872,0.06438 -26.91744,0.128591 -40.37615,0.192887 -7.1e-4,-1.969132 -0.004,-3.938279 -0.005,-5.907394 13.45871,-0.06421 26.9174,-0.128591 40.37609,-0.192886 z"
       style="fill:#000000;fill-opacity:1;fill-rule:evenodd;stroke:#000000;stroke-width:0.52972674px;stroke-linecap:butt;stroke-linejoin:miter;stroke-opacity:1" />
    <path
       inkscape:connector-curvature="0"
       id="rect3757"
       d="m 317.91476,57.457418 c 5.40527,0 10.81053,0 16.21578,0 0,5.405272 0,10.810527 0,16.215783 -5.40525,0 -10.81051,0 -16.21578,0 0,-5.405256 0,-10.810511 0,-16.215783 z"
       style="fill:#7d7d7d;fill-opacity:1" />
    <rect
       style="fill:#000000;fill-opacity:1;fill-rule:evenodd;stroke:#000000;stroke-width:0.53394401px;stroke-linecap:butt;stroke-linejoin:miter;stroke-opacity:1"
       id="rect2987-0"
       width="6.0024619"
       height="40.372055"
       x="183.97939"
       y="-374.47491"
       transform="matrix(6.8182178e-4,0.99999977,-0.99998822,0.00485452,0,0)" />
    <rect
       style="fill:#7d7d7d;fill-opacity:1"
       id="rect3757-7"
       width="16.215782"
       height="16.215782"
       x="317.99646"
       y="177.42114" />
    <rect
       style="fill:#000000;fill-opacity:1;fill-rule:evenodd;stroke:#000000;stroke-width:0.53668749px;stroke-linecap:butt;stroke-linejoin:miter;stroke-opacity:1"
       id="rect2987-1"
       width="6.0493755"
       height="40.471687"
       x="124.10378"
       y="-374.58722"
       transform="matrix(6.7820259e-4,0.99999977,-0.99998809,0.00488041,0,0)" />
    <rect
       style="fill:#7d7d7d;fill-opacity:1"
       id="rect3757-71"
       width="16.215782"
       height="16.215782"
       x="317.96649"
       y="117.4827" />
    <rect
       style="fill:#000000;fill-opacity:1;fill-rule:evenodd;stroke:#000000;stroke-width:0.53149271px;stroke-linecap:butt;stroke-linejoin:miter;stroke-opacity:1"
       id="rect2987-14"
       width="5.9475169"
       height="40.371788"
       x="244.08507"
       y="-374.55936"
       transform="matrix(6.8811488e-4,0.99999976,-0.99998843,0.00481011,0,0)" />
    <rect
       style="fill:#7d7d7d;fill-opacity:1"
       id="rect3757-3"
       width="16.215782"
       height="16.113405"
       x="318.12369"
       y="237.4109" />
    <path
       inkscape:connector-curvature="0"
       id="rect2987-8"
       d="m 329.22538,117.21532 c -2.01074,0.002 -4.02145,0.002 -6.03219,0.005 -0.0655,-14.43868 -0.13119,-28.877357 -0.19695,-43.316051 2.01072,-9.3e-4 4.02144,-0.0016 6.03219,-0.0049 0.0655,14.438678 0.13134,28.877351 0.19695,43.316011 z"
       style="fill:#000000;fill-opacity:1;fill-rule:evenodd;stroke:#000000;stroke-width:0.55443782px;stroke-linecap:butt;stroke-linejoin:miter;stroke-opacity:1" />
    <path
       inkscape:connector-curvature="0"
       id="rect2987-16"
       d="m 317.53343,62.534287 c 0.004,1.896356 0.006,3.792727 0.01,5.689081 -28.40267,0.06195 -56.80531,0.123888 -85.20797,0.185768 -0.001,-1.896371 -0.006,-3.792726 -0.01,-5.68908 28.40266,-0.06178 56.80528,-0.123889 85.2079,-0.185769 z"
       style="fill:#000000;fill-opacity:1;fill-rule:evenodd;stroke:#000000;stroke-width:0.75518304px;stroke-linecap:butt;stroke-linejoin:miter;stroke-opacity:1" />
    <path
       inkscape:connector-curvature="0"
       id="rect2987-16-9"
       d="m 237.98382,297.03464 c -1.75655,0.01 -3.51309,0.0162 -5.26964,0.0264 -0.0576,-75.91878 -0.11481,-151.83745 -0.17208,-227.756196 1.75658,-0.0065 3.5131,-0.01622 5.26965,-0.02643 0.0574,75.918756 0.11481,151.837406 0.17207,227.756046 z"
       style="fill:#000000;fill-opacity:1;fill-rule:evenodd;stroke:#000000;stroke-width:1.18827832px;stroke-linecap:butt;stroke-linejoin:miter;stroke-opacity:1" />
    <path
       inkscape:connector-curvature="0"
       id="rect2987-16-98"
       d="m 299.86186,297.67337 c 0.001,1.92157 0.004,3.84317 0.006,5.76472 -22.53113,0.0627 -45.06225,0.12551 -67.59333,0.18825 -0.001,-1.92158 -0.004,-3.84318 -0.006,-5.76472 22.53112,-0.0626 45.06218,-0.12551 67.59327,-0.18825 z"
       style="fill:#000000;fill-opacity:1;fill-rule:evenodd;stroke:#000000;stroke-width:0.67706811px;stroke-linecap:butt;stroke-linejoin:miter;stroke-opacity:1" />
    <rect
       style="fill:#7d7d7d;fill-opacity:1"
       id="rect3757-3-3"
       width="16.215782"
       height="16.113405"
       x="293.86871"
       y="292.58032" />
    <path
       inkscape:connector-curvature="0"
       id="rect2987-8-64"
       d="m 329.34734,177.18942 c -2.01074,10e-4 -4.02145,10e-4 -6.03219,0.005 -0.0655,-14.43868 -0.13119,-28.87736 -0.19696,-43.31605 2.01073,-9.3e-4 4.02146,-0.002 6.0322,-0.005 0.0655,14.43868 0.13134,28.87736 0.19695,43.31602 z"
       style="fill:#000000;fill-opacity:1;fill-rule:evenodd;stroke:#000000;stroke-width:0.55443782px;stroke-linecap:butt;stroke-linejoin:miter;stroke-opacity:1" />
    <path
       inkscape:connector-curvature="0"
       id="rect2987-8-0"
       d="m 329.45946,237.2507 c -2.01074,0.001 -4.02145,0.001 -6.0322,0.005 -0.0655,-14.43868 -0.13118,-28.87736 -0.19695,-43.31605 2.01073,-7.2e-4 4.02145,-0.001 6.03219,-0.005 0.0655,14.43867 0.13134,28.87736 0.19696,43.31602 z"
       style="fill:#000000;fill-opacity:1;fill-rule:evenodd;stroke:#000000;stroke-width:0.55443782px;stroke-linecap:butt;stroke-linejoin:miter;stroke-opacity:1" />
    <path
       inkscape:connector-curvature="0"
       id="rect2987-8-0-1"
       d="m 329.74902,297.0464 c -2.01074,10e-4 -4.02145,10e-4 -6.03219,0.005 -0.0655,-14.43868 -0.13119,-28.87736 -0.19695,-43.31606 2.01072,-7.1e-4 4.02144,-0.001 6.03218,-0.005 0.0655,14.43867 0.13135,28.87735 0.19696,43.31601 z"
       style="fill:#00ff00;fill-opacity:1;fill-rule:evenodd;stroke:#00ff00;stroke-width:0.55443782px;stroke-linecap:butt;stroke-linejoin:miter;stroke-opacity:1" />
    <path
       inkscape:connector-curvature="0"
       id="rect2987-8-0-1-6"
       d="m 305.02167,356.9827 c -2.00155,10e-4 -4.00306,10e-4 -6.00462,0.005 -0.0652,-16.03292 -0.13054,-32.06584 -0.19605,-48.09878 2.00153,-10e-4 4.00306,-10e-4 6.00463,-0.005 0.0652,16.03292 0.13069,32.06585 0.19604,48.09875 z"
       style="fill:#000000;fill-opacity:1;fill-rule:evenodd;stroke:#000000;stroke-width:0.58290893px;stroke-linecap:butt;stroke-linejoin:miter;stroke-opacity:1" />
    <path
       inkscape:connector-curvature="0"
       id="rect2987-8-0-1-6-1"
       d="m 238.64819,350.70043 c -2.00461,0.001 -4.00919,0.001 -6.01382,0.005 -0.0654,-15.49012 -0.1307,-30.98025 -0.19634,-46.47041 2.00458,-7.2e-4 4.00917,-0.001 6.01382,-0.005 0.0654,15.49012 0.13086,30.98027 0.19634,46.47038 z"
       style="fill:#000000;fill-opacity:1;fill-rule:evenodd;stroke:#000000;stroke-width:0.57339621px;stroke-linecap:butt;stroke-linejoin:miter;stroke-opacity:1"
       inkscape:transform-center-x="-24.511168"
       inkscape:transform-center-y="0.00014857436" />
    <path
       inkscape:connector-curvature="0"
       id="rect2987-8-0-1-6-4"
       d="m 232.73264,357.11932 c -0.001,-1.97141 -0.001,-3.94282 -0.006,-5.91425 21.905,-0.0642 43.81001,-0.1286 65.71505,-0.1931 0.001,1.9714 0.001,3.9428 0.006,5.91425 -21.90499,0.0642 -43.81002,0.12876 -65.71498,0.1931 z"
       style="fill:#000000;fill-opacity:1;fill-rule:evenodd;stroke:#000000;stroke-width:0.67619848px;stroke-linecap:butt;stroke-linejoin:miter;stroke-opacity:1" />
  </g>
</svg>
