<?xml version="1.0" encoding="UTF-8" standalone="no"?>
<!-- Created with Inkscape (http://www.inkscape.org/) -->

<svg
   xmlns:dc="http://purl.org/dc/elements/1.1/"
   xmlns:cc="http://creativecommons.org/ns#"
   xmlns:rdf="http://www.w3.org/1999/02/22-rdf-syntax-ns#"
   xmlns:svg="http://www.w3.org/2000/svg"
   xmlns="http://www.w3.org/2000/svg"
   xmlns:sodipodi="http://sodipodi.sourceforge.net/DTD/sodipodi-0.dtd"
   xmlns:inkscape="http://www.inkscape.org/namespaces/inkscape"
   width="145.59642"
   height="300.03125"
   id="svg2"
   version="1.1"
   inkscape:version="0.48.4 r9939"
   sodipodi:docname="fahrplan_nxt_bs0.svg">
  <defs
     id="defs4" />
  <sodipodi:namedview
     id="base"
     pagecolor="#ffffff"
     bordercolor="#666666"
     borderopacity="1.0"
     inkscape:pageopacity="0.0"
     inkscape:pageshadow="2"
     inkscape:zoom="1.4142136"
     inkscape:cx="35.529842"
     inkscape:cy="54.347731"
     inkscape:document-units="px"
     inkscape:current-layer="layer1"
     showgrid="true"
     inkscape:window-width="1366"
     inkscape:window-height="748"
     inkscape:window-x="1918"
     inkscape:window-y="-3"
     inkscape:window-maximized="1"
     fit-margin-top="0"
     fit-margin-left="0"
     fit-margin-right="0"
     fit-margin-bottom="0">
    <inkscape:grid
       type="xygrid"
       id="grid2985"
       empspacing="5"
       visible="true"
       enabled="true"
       snapvisiblegridlinesonly="true"
       originx="-231.93705px"
       originy="-694.89342px" />
  </sodipodi:namedview>
  <metadata
     id="metadata7">
    <rdf:RDF>
      <cc:Work
         rdf:about="">
        <dc:format>image/svg+xml</dc:format>
        <dc:type
           rdf:resource="http://purl.org/dc/dcmitype/StillImage" />
        <dc:title />
      </cc:Work>
    </rdf:RDF>
  </metadata>
  <g
     inkscape:label="Layer 1"
     inkscape:groupmode="layer"
     id="layer1"
     transform="translate(-231.93705,-57.4375)">
    <path
       inkscape:connector-curvature="0"
       id="rect2987"
       d="m 376.88499,82.275936 c 0.002,2.0004 0.003,4.000817 0.005,6.001201 -13.67242,0.06529 -27.34489,0.130582 -41.01735,0.195956 -9e-4,-2.0004 -0.003,-4.000833 -0.005,-6.001217 13.67246,-0.06513 27.34487,-0.130582 41.01732,-0.19594 z"
       style="fill:#000000;fill-opacity:1;fill-rule:evenodd;stroke:#000000;stroke-width:0.53813958px;stroke-linecap:butt;stroke-linejoin:miter;stroke-opacity:1" />
    <rect
       style="fill:#000000;fill-opacity:1;fill-rule:evenodd;stroke:#000000;stroke-width:0.54242373px;stroke-linecap:butt;stroke-linejoin:miter;stroke-opacity:1"
       id="rect2987-0"
       width="6.0977893"
       height="41.013218"
       x="199.33563"
       y="-377.01419"
       transform="matrix(6.8182178e-4,0.99999977,-0.99998822,0.00485452,0,0)" />
    <rect
       style="fill:#000000;fill-opacity:1;fill-rule:evenodd;stroke:#000000;stroke-width:0.54521084px;stroke-linecap:butt;stroke-linejoin:miter;stroke-opacity:1"
       id="rect2987-1"
       width="6.1454473"
       height="41.114433"
       x="141.71902"
       y="-377.15424"
       transform="matrix(6.7820259e-4,0.99999977,-0.99998809,0.00488041,0,0)" />
    <rect
       style="fill:#000000;fill-opacity:1;fill-rule:evenodd;stroke:#000000;stroke-width:0.53993356px;stroke-linecap:butt;stroke-linejoin:miter;stroke-opacity:1"
       id="rect2987-14"
       width="6.0419717"
       height="41.012947"
       x="257.01001"
       y="-376.95676"
       transform="matrix(6.8811488e-4,0.99999976,-0.99998843,0.00481011,0,0)" />
    <path
       inkscape:connector-curvature="0"
       id="rect2987-16"
       d="m 330.26429,57.873335 c 0.003,1.911722 0.008,3.823494 0.0115,5.735232 -32.63897,0.06233 -65.27793,0.124662 -97.91688,0.187273 -0.002,-1.911772 -0.008,-3.82351 -0.0115,-5.735216 32.63892,-0.06217 65.27784,-0.124827 97.91676,-0.187289 z"
       style="fill:#000000;fill-opacity:1;fill-rule:evenodd;stroke:#000000;stroke-width:0.81282151px;stroke-linecap:butt;stroke-linejoin:miter;stroke-opacity:1" />
    <path
       inkscape:connector-curvature="0"
       id="rect2987-16-9"
       d="m 238.0654,302.47344 c -1.77964,0.01 -3.55928,0.0164 -5.33891,0.0276 -0.0582,-79.25476 -0.11611,-158.50945 -0.17436,-237.764212 1.77969,-0.0066 3.55928,-0.01645 5.33891,-0.02763 0.0581,79.254772 0.11611,158.509422 0.17436,237.764062 z"
       style="fill:#000000;fill-opacity:1;fill-rule:evenodd;stroke:#000000;stroke-width:1.2220571px;stroke-linecap:butt;stroke-linejoin:miter;stroke-opacity:1" />
    <path
       inkscape:connector-curvature="0"
       id="rect2987-16-98"
       d="m 331.16659,296.78779 c 0.003,1.91082 0.005,3.8217 0.01,5.73259 -32.87257,0.0623 -65.7451,0.12449 -98.61756,0.18715 -0.002,-1.91085 -0.005,-3.8217 -0.01,-5.73256 32.8725,-0.0622 65.74498,-0.1245 98.61744,-0.18718 z"
       style="fill:#000000;fill-opacity:1;fill-rule:evenodd;stroke:#000000;stroke-width:0.81553757px;stroke-linecap:butt;stroke-linejoin:miter;stroke-opacity:1" />
    <rect
       style="fill:#7d7d7d;fill-opacity:1"
       id="rect3757-3-3"
       width="16.473309"
       height="16.369308"
       x="294.66327"
       y="291.44083" />
    <path
       inkscape:connector-curvature="0"
       id="rect2987-8-0-1"
       d="m 330.95559,298.09127 c -1.8233,0.008 -3.64657,0.008 -5.46991,0.027 -0.0594,-80.00406 -0.11891,-160.00821 -0.17857,-240.012438 1.82329,-0.0066 3.64658,-0.0082 5.4699,-0.02697 0.0594,80.004108 0.11907,160.008228 0.17858,240.012258 z"
       style="fill:#000000;fill-opacity:1;fill-rule:evenodd;stroke:#000000;stroke-width:1.24279237px;stroke-linecap:butt;stroke-linejoin:miter;stroke-opacity:1" />
    <path
       inkscape:connector-curvature="0"
       id="rect2987-8-0-1-6"
       d="m 306.17533,356.97516 c -2.03331,0.002 -4.06662,0.002 -6.09998,0.005 -0.0661,-16.28754 -0.13239,-32.57509 -0.19916,-48.86266 2.03331,-0.001 4.06664,-0.002 6.09999,-0.005 0.0661,16.28754 0.13272,32.57511 0.19915,48.86264 z"
       style="fill:#000000;fill-opacity:1;fill-rule:evenodd;stroke:#000000;stroke-width:0.5921663px;stroke-linecap:butt;stroke-linejoin:miter;stroke-opacity:1" />
    <path
       inkscape:connector-curvature="0"
       id="rect2987-8-0-1-6-1"
       d="m 238.73978,350.58484 c -2.0313,0.002 -4.06257,0.002 -6.09388,0.005 -0.0661,-16.65286 -0.13222,-33.30574 -0.19893,-49.95864 2.03127,-10e-4 4.06252,-0.002 6.09386,-0.005 0.0661,16.65286 0.13239,33.30575 0.19895,49.95861 z"
       style="fill:#000000;fill-opacity:1;fill-rule:evenodd;stroke:#000000;stroke-width:0.59847099px;stroke-linecap:butt;stroke-linejoin:miter;stroke-opacity:1"
       inkscape:transform-center-x="-24.837416"
       inkscape:transform-center-y="-1.8554198e-05" />
    <path
       inkscape:connector-curvature="0"
       id="rect2987-8-0-1-6-4"
       d="m 232.73828,357.11397 c -0.002,-2.00274 -0.002,-4.00546 -0.007,-6.00821 22.25289,-0.0651 44.50579,-0.13042 66.75871,-0.19615 0.002,2.00271 0.002,4.0054 0.007,6.00817 -22.25289,0.0651 -44.5058,0.13058 -66.75861,0.19619 z"
       style="fill:#000000;fill-opacity:1;fill-rule:evenodd;stroke:#000000;stroke-width:0.68693745px;stroke-linecap:butt;stroke-linejoin:miter;stroke-opacity:1" />
    <path
       inkscape:connector-curvature="0"
       id="rect3757"
       d="m 319.37613,77.248532 c 5.49112,0 10.98221,0 16.47332,0 0,5.491105 0,10.982226 0,16.473315 -5.49111,0 -10.9822,0 -16.47332,0 0,-5.491089 0,-10.98221 0,-16.473315 z"
       style="fill:#7d7d7d;fill-opacity:1" />
    <rect
       style="fill:#7d7d7d;fill-opacity:1"
       id="rect3757-71"
       width="16.473309"
       height="16.473309"
       x="319.37466"
       y="134.89345" />
    <rect
       style="fill:#7d7d7d;fill-opacity:1"
       id="rect3757-7"
       width="16.473309"
       height="16.473309"
       x="319.39258"
       y="192.56198" />
    <rect
       style="fill:#7d7d7d;fill-opacity:1"
       id="rect3757-3"
       width="16.473309"
       height="16.369308"
       x="319.38251"
       y="250.23369" />
    <path
       style="fill:#00ff00;fill-opacity:1;stroke:#00ff00;stroke-width:0.41183278;stroke-opacity:1"
       d="m 346.11524,88.203968 -10.19287,-0.117591 10e-4,-2.772697 0.001,-2.772664 20.59021,-0.09341 20.59024,-0.09342 0,3.079287 0,3.079287 -10.39878,-0.09539 c -5.71935,-0.05246 -14.98558,-0.14818 -20.59163,-0.213126 z"
       id="path3004"
       inkscape:connector-curvature="0" />
    <path
       style="fill:#00ff00;fill-opacity:1;stroke:#00ff00;stroke-width:0.41183278;stroke-opacity:1"
       d="m 345.12684,88.195744 -9.16329,-0.110682 -1.1e-4,-2.77199 -10e-5,-2.77199 20.35642,0 20.35638,0 0.13223,2.882837 0.13223,2.882821 -11.3254,0 c -6.22898,0 -15.44886,-0.04983 -20.48867,-0.110683 z"
       id="path3774"
       inkscape:connector-curvature="0" />
  </g>
</svg>
