<?xml version="1.0" encoding="UTF-8" standalone="no"?>
<svg
   xmlns:dc="http://purl.org/dc/elements/1.1/"
   xmlns:cc="http://creativecommons.org/ns#"
   xmlns:rdf="http://www.w3.org/1999/02/22-rdf-syntax-ns#"
   xmlns:svg="http://www.w3.org/2000/svg"
   xmlns="http://www.w3.org/2000/svg"
   xmlns:sodipodi="http://sodipodi.sourceforge.net/DTD/sodipodi-0.dtd"
   xmlns:inkscape="http://www.inkscape.org/namespaces/inkscape"
   color-rendering="auto"
   color-interpolation="auto"
   text-rendering="auto"
   width="785.59058"
   stroke-miterlimit="10"
   shape-rendering="auto"
   font-weight="normal"
   height="336"
   font-style="normal"
   font-size="12"
   image-rendering="auto"
   id="svg2"
   version="1.1"
   inkscape:version="0.48.4 r9939"
   sodipodi:docname="state_maschine.svg"
   style="font-size:12px;font-style:normal;font-weight:normal;fill:#000000;fill-opacity:0;stroke:#000000;stroke-width:1;stroke-linecap:square;stroke-linejoin:miter;stroke-miterlimit:10;stroke-opacity:0;stroke-dasharray:none;stroke-dashoffset:0;font-family:Dialog"
   inkscape:export-filename="/home/sascha/Dokumente/Studium/SS13/es/ees_StegStef/doku/nxt/state_maschine.png"
   inkscape:export-xdpi="150"
   inkscape:export-ydpi="150">
  <metadata
     id="metadata333">
    <rdf:RDF>
      <cc:Work
         rdf:about="">
        <dc:format>image/svg+xml</dc:format>
        <dc:type
           rdf:resource="http://purl.org/dc/dcmitype/StillImage" />
        <dc:title></dc:title>
      </cc:Work>
    </rdf:RDF>
  </metadata>
  <sodipodi:namedview
     pagecolor="#ffffff"
     bordercolor="#666666"
     borderopacity="1"
     objecttolerance="10"
     gridtolerance="10"
     guidetolerance="10"
     inkscape:pageopacity="0"
     inkscape:pageshadow="2"
     inkscape:window-width="1366"
     inkscape:window-height="713"
     id="namedview331"
     showgrid="false"
     inkscape:zoom="1.1557014"
     inkscape:cx="367.69005"
     inkscape:cy="176.36304"
     inkscape:window-x="-2"
     inkscape:window-y="-3"
     inkscape:window-maximized="1"
     inkscape:current-layer="svg2"
     fit-margin-top="0"
     fit-margin-left="0"
     fit-margin-right="0"
     fit-margin-bottom="0" />
  <!--Generated by the Batik Graphics2D SVG Generator-->
  <defs
     id="genericDefs">
    <defs
       id="defs1">
      <clipPath
         id="clipPath1"
         clipPathUnits="userSpaceOnUse">
        <path
           id="path9"
           d="m -7,-7 38,0 0,38 -38,0 0,-38 z"
           inkscape:connector-curvature="0" />
      </clipPath>
      <clipPath
         id="clipPath2"
         clipPathUnits="userSpaceOnUse">
        <path
           id="path12"
           d="m -7,-7 108,0 0,64 -108,0 0,-64 z"
           inkscape:connector-curvature="0" />
      </clipPath>
      <clipPath
         id="clipPath3"
         clipPathUnits="userSpaceOnUse">
        <path
           id="path15"
           d="m -7,-7 108,0 0,58 -108,0 0,-58 z"
           inkscape:connector-curvature="0" />
      </clipPath>
      <clipPath
         id="clipPath4"
         clipPathUnits="userSpaceOnUse">
        <path
           id="path18"
           d="m -7,-7 118,0 0,68 -118,0 0,-68 z"
           inkscape:connector-curvature="0" />
      </clipPath>
      <clipPath
         id="clipPath5"
         clipPathUnits="userSpaceOnUse">
        <path
           id="path21"
           d="m -7,-7 138,0 0,64 -138,0 0,-64 z"
           inkscape:connector-curvature="0" />
      </clipPath>
      <clipPath
         id="clipPath6"
         clipPathUnits="userSpaceOnUse">
        <path
           id="path24"
           d="m -7,-7 118,0 0,64 -118,0 0,-64 z"
           inkscape:connector-curvature="0" />
      </clipPath>
      <clipPath
         id="clipPath7"
         clipPathUnits="userSpaceOnUse">
        <path
           id="path27"
           d="m -7,-7 188,0 0,68 -188,0 0,-68 z"
           inkscape:connector-curvature="0" />
      </clipPath>
      <clipPath
         id="clipPath8"
         clipPathUnits="userSpaceOnUse">
        <path
           id="path30"
           d="m 0,0 0,50 155,0 0,-50 z"
           inkscape:connector-curvature="0" />
      </clipPath>
      <clipPath
         id="clipPath9"
         clipPathUnits="userSpaceOnUse">
        <path
           id="path33"
           d="m -90,-30 270,0 0,90 -270,0 0,-90 z"
           inkscape:connector-curvature="0" />
      </clipPath>
      <clipPath
         id="clipPath10"
         clipPathUnits="userSpaceOnUse">
        <path
           id="path36"
           d="m -90,-15 270,0 0,45 -270,0 0,-45 z"
           inkscape:connector-curvature="0" />
      </clipPath>
      <clipPath
         id="clipPath11"
         clipPathUnits="userSpaceOnUse">
        <path
           id="path39"
           d="m -100,-15 300,0 0,45 -300,0 0,-45 z"
           inkscape:connector-curvature="0" />
      </clipPath>
      <clipPath
         id="clipPath12"
         clipPathUnits="userSpaceOnUse">
        <path
           id="path42"
           d="m -100,-30 300,0 0,90 -300,0 0,-90 z"
           inkscape:connector-curvature="0" />
      </clipPath>
      <clipPath
         id="clipPath13"
         clipPathUnits="userSpaceOnUse">
        <path
           id="path45"
           d="m -120,-15 360,0 0,45 -360,0 0,-45 z"
           inkscape:connector-curvature="0" />
      </clipPath>
      <clipPath
         id="clipPath14"
         clipPathUnits="userSpaceOnUse">
        <path
           id="path48"
           d="M 0,0 104,0 104,143 0,143 0,0 z"
           inkscape:connector-curvature="0" />
      </clipPath>
      <clipPath
         id="clipPath15"
         clipPathUnits="userSpaceOnUse">
        <path
           id="path51"
           d="M 0,0 213,0 213,104 0,104 0,0 z"
           inkscape:connector-curvature="0" />
      </clipPath>
      <clipPath
         id="clipPath16"
         clipPathUnits="userSpaceOnUse">
        <path
           id="path54"
           d="M 0,0 274,0 274,164 0,164 0,0 z"
           inkscape:connector-curvature="0" />
      </clipPath>
      <clipPath
         id="clipPath17"
         clipPathUnits="userSpaceOnUse">
        <path
           id="path57"
           d="M 0,0 273,0 273,183 0,183 0,0 z"
           inkscape:connector-curvature="0" />
      </clipPath>
      <clipPath
         id="clipPath18"
         clipPathUnits="userSpaceOnUse">
        <path
           id="path60"
           d="M 0,0 263,0 263,173 0,173 0,0 z"
           inkscape:connector-curvature="0" />
      </clipPath>
      <clipPath
         id="clipPath19"
         clipPathUnits="userSpaceOnUse">
        <path
           id="path63"
           d="M 0,0 104,0 104,153 0,153 0,0 z"
           inkscape:connector-curvature="0" />
      </clipPath>
      <clipPath
         id="clipPath20"
         clipPathUnits="userSpaceOnUse">
        <path
           id="path66"
           d="M 0,0 155,0 155,104 0,104 0,0 z"
           inkscape:connector-curvature="0" />
      </clipPath>
      <clipPath
         id="clipPath21"
         clipPathUnits="userSpaceOnUse">
        <path
           id="path69"
           d="M 0,0 104,0 104,147 0,147 0,0 z"
           inkscape:connector-curvature="0" />
      </clipPath>
      <clipPath
         id="clipPath22"
         clipPathUnits="userSpaceOnUse">
        <path
           id="path72"
           d="m -139,-15 417,0 0,45 -417,0 0,-45 z"
           inkscape:connector-curvature="0" />
      </clipPath>
      <clipPath
         id="clipPath23"
         clipPathUnits="userSpaceOnUse">
        <path
           id="path75"
           d="m -80,-15 240,0 0,45 -240,0 0,-45 z"
           inkscape:connector-curvature="0" />
      </clipPath>
      <clipPath
         id="clipPath24"
         clipPathUnits="userSpaceOnUse">
        <path
           id="path78"
           d="m -136,-16 408,0 0,48 -408,0 0,-48 z"
           inkscape:connector-curvature="0" />
      </clipPath>
      <clipPath
         id="clipPath25"
         clipPathUnits="userSpaceOnUse">
        <path
           id="path81"
           d="m -110,-15 330,0 0,45 -330,0 0,-45 z"
           inkscape:connector-curvature="0" />
      </clipPath>
      <clipPath
         id="clipPath26"
         clipPathUnits="userSpaceOnUse">
        <path
           id="path84"
           d="m -351,-15 1053,0 0,45 -1053,0 0,-45 z"
           inkscape:connector-curvature="0" />
      </clipPath>
      <clipPath
         id="clipPath27"
         clipPathUnits="userSpaceOnUse">
        <path
           id="path87"
           d="m -278,-16 834,0 0,48 -834,0 0,-48 z"
           inkscape:connector-curvature="0" />
      </clipPath>
      <clipPath
         id="clipPath28"
         clipPathUnits="userSpaceOnUse">
        <path
           id="path90"
           d="m -106,-15 318,0 0,45 -318,0 0,-45 z"
           inkscape:connector-curvature="0" />
      </clipPath>
      <clipPath
         id="clipPath29"
         clipPathUnits="userSpaceOnUse">
        <path
           id="path93"
           d="m -98,-15 294,0 0,45 -294,0 0,-45 z"
           inkscape:connector-curvature="0" />
      </clipPath>
    </defs>
  </defs>
  <g
     style="fill:#ffffff;fill-opacity:1;stroke:#ffffff;stroke-opacity:1"
     id="g95"
     text-rendering="geometricPrecision"
     transform="translate(22.530979,0)">
    <rect
       style="stroke:none"
       id="rect97"
       y="0"
       height="336"
       width="744"
       x="0" />
  </g>
  <g
     style="font-size:11px;fill:#000000;fill-opacity:1;stroke:#000000;stroke-opacity:1;font-family:sans-serif"
     id="g99"
     text-rendering="geometricPrecision"
     transform="translate(114.53098,22)"
     font-size="11">
    <circle
       style="stroke:none"
       sodipodi:ry="9.5"
       sodipodi:rx="9.5"
       sodipodi:cy="9.5"
       sodipodi:cx="9.5"
       d="M 19,9.5 C 19,14.746705 14.746705,19 9.5,19 4.2532949,19 0,14.746705 0,9.5 0,4.2532949 4.2532949,0 9.5,0 14.746705,0 19,4.2532949 19,9.5 z"
       id="circle101"
       cy="9.5"
       cx="9.5"
       clip-path="url(#clipPath1)"
       r="9.5" />
  </g>
  <g
     style="font-size:11px;fill:#ffffc0;fill-opacity:1;stroke:#ffffc0;stroke-opacity:1;font-family:sans-serif"
     id="g103"
     text-rendering="geometricPrecision"
     transform="translate(184.53098,2)"
     font-size="11">
    <rect
       style="stroke:none"
       id="rect105"
       height="46"
       ry="10"
       rx="10"
       width="90"
       clip-path="url(#clipPath2)"
       y="0"
       x="0" />
  </g>
  <g
     style="font-size:11px;fill:#000000;fill-opacity:1;stroke:#000000;stroke-linecap:butt;stroke-linejoin:round;stroke-miterlimit:0;stroke-opacity:1;font-family:sans-serif"
     id="g107"
     stroke-miterlimit="0"
     text-rendering="geometricPrecision"
     transform="translate(184.53098,2)"
     font-size="11">
    <rect
       style="fill:none"
       id="rect109"
       height="46"
       ry="10"
       rx="10"
       width="90"
       clip-path="url(#clipPath2)"
       y="0"
       x="0" />
  </g>
  <g
     style="font-size:11px;fill:#ffffc0;fill-opacity:1;stroke:#ffffc0;stroke-opacity:1;font-family:sans-serif"
     id="g111"
     text-rendering="geometricPrecision"
     transform="translate(184.53098,92)"
     font-size="11">
    <rect
       style="stroke:none"
       id="rect113"
       height="40"
       ry="10"
       rx="10"
       width="90"
       clip-path="url(#clipPath3)"
       y="0"
       x="0" />
  </g>
  <g
     style="font-size:11px;fill:#000000;fill-opacity:1;stroke:#000000;stroke-linecap:butt;stroke-linejoin:round;stroke-miterlimit:0;stroke-opacity:1;font-family:sans-serif"
     id="g115"
     stroke-miterlimit="0"
     text-rendering="geometricPrecision"
     transform="translate(184.53098,92)"
     font-size="11">
    <rect
       style="fill:none"
       id="rect117"
       height="40"
       ry="10"
       rx="10"
       width="90"
       clip-path="url(#clipPath3)"
       y="0"
       x="0" />
  </g>
  <g
     style="font-size:11px;fill:#ffffc0;fill-opacity:1;stroke:#ffffc0;stroke-opacity:1;font-family:sans-serif"
     id="g119"
     text-rendering="geometricPrecision"
     transform="translate(384.53098,92)"
     font-size="11">
    <rect
       style="stroke:none"
       id="rect121"
       height="50"
       ry="10"
       rx="10"
       width="100"
       clip-path="url(#clipPath4)"
       y="0"
       x="0" />
  </g>
  <g
     style="font-size:11px;fill:#000000;fill-opacity:1;stroke:#000000;stroke-linecap:butt;stroke-linejoin:round;stroke-miterlimit:0;stroke-opacity:1;font-family:sans-serif"
     id="g123"
     stroke-miterlimit="0"
     text-rendering="geometricPrecision"
     transform="translate(384.53098,92)"
     font-size="11">
    <rect
       style="fill:none"
       id="rect125"
       height="50"
       ry="10"
       rx="10"
       width="100"
       clip-path="url(#clipPath4)"
       y="0"
       x="0" />
  </g>
  <g
     style="font-size:11px;fill:#ffffc0;fill-opacity:1;stroke:#ffffc0;stroke-opacity:1;font-family:sans-serif"
     id="g127"
     text-rendering="geometricPrecision"
     transform="translate(384.53098,182)"
     font-size="11">
    <rect
       style="stroke:none"
       id="rect129"
       height="50"
       ry="10"
       rx="10"
       width="100"
       clip-path="url(#clipPath4)"
       y="0"
       x="0" />
  </g>
  <g
     style="font-size:11px;fill:#000000;fill-opacity:1;stroke:#000000;stroke-linecap:butt;stroke-linejoin:round;stroke-miterlimit:0;stroke-opacity:1;font-family:sans-serif"
     id="g131"
     stroke-miterlimit="0"
     text-rendering="geometricPrecision"
     transform="translate(384.53098,182)"
     font-size="11">
    <rect
       style="fill:none"
       id="rect133"
       height="50"
       ry="10"
       rx="10"
       width="100"
       clip-path="url(#clipPath4)"
       y="0"
       x="0" />
  </g>
  <g
     style="font-size:11px;fill:#ffffc0;fill-opacity:1;stroke:#ffffc0;stroke-opacity:1;font-family:sans-serif"
     id="g135"
     text-rendering="geometricPrecision"
     transform="translate(594.53098,92)"
     font-size="11">
    <rect
       style="stroke:none"
       id="rect137"
       height="46"
       ry="10"
       rx="10"
       width="120"
       clip-path="url(#clipPath5)"
       y="0"
       x="0" />
  </g>
  <g
     style="font-size:11px;fill:#000000;fill-opacity:1;stroke:#000000;stroke-linecap:butt;stroke-linejoin:round;stroke-miterlimit:0;stroke-opacity:1;font-family:sans-serif"
     id="g139"
     stroke-miterlimit="0"
     text-rendering="geometricPrecision"
     transform="translate(594.53098,92)"
     font-size="11">
    <rect
       style="fill:none"
       id="rect141"
       height="46"
       ry="10"
       rx="10"
       width="120"
       clip-path="url(#clipPath5)"
       y="0"
       x="0" />
  </g>
  <g
     style="font-size:11px;fill:#ffffc0;fill-opacity:1;stroke:#ffffc0;stroke-opacity:1;font-family:sans-serif"
     id="g143"
     text-rendering="geometricPrecision"
     transform="translate(174.53098,282)"
     font-size="11">
    <rect
       style="stroke:none"
       id="rect145"
       height="46"
       ry="10"
       rx="10"
       width="100"
       clip-path="url(#clipPath6)"
       y="0"
       x="0" />
  </g>
  <g
     style="font-size:11px;fill:#000000;fill-opacity:1;stroke:#000000;stroke-linecap:butt;stroke-linejoin:round;stroke-miterlimit:0;stroke-opacity:1;font-family:sans-serif"
     id="g147"
     stroke-miterlimit="0"
     text-rendering="geometricPrecision"
     transform="translate(174.53098,282)"
     font-size="11">
    <rect
       style="fill:none"
       id="rect149"
       height="46"
       ry="10"
       rx="10"
       width="100"
       clip-path="url(#clipPath6)"
       y="0"
       x="0" />
  </g>
  <g
     style="font-size:11px;fill:#ffffc0;fill-opacity:1;stroke:#ffffc0;stroke-opacity:1;font-family:sans-serif"
     id="g151"
     text-rendering="geometricPrecision"
     transform="matrix(1.1652689,0,0,0.99839571,384.48765,282.04011)"
     font-size="11">
    <rect
       style="stroke:none"
       id="rect153"
       height="50"
       ry="10"
       rx="10"
       width="100"
       clip-path="url(#clipPath4)"
       y="0"
       x="0" />
  </g>
  <g
     style="font-size:11px;fill:#000000;fill-opacity:1;stroke:#000000;stroke-linecap:butt;stroke-linejoin:round;stroke-miterlimit:0;stroke-opacity:1;font-family:sans-serif"
     id="g155"
     stroke-miterlimit="0"
     text-rendering="geometricPrecision"
     transform="matrix(1.172237,0,0,0.99836374,384.57189,282.04091)"
     font-size="11">
    <rect
       style="fill:none"
       id="rect157"
       height="50"
       ry="10"
       rx="10"
       width="100"
       clip-path="url(#clipPath4)"
       y="0"
       x="0" />
  </g>
  <g
     style="font-size:11px;fill:#ffffc0;fill-opacity:1;stroke:#ffffc0;stroke-opacity:1;font-family:sans-serif"
     id="g159"
     text-rendering="geometricPrecision"
     transform="translate(414.53098,2)"
     font-size="11">
    <polygon
       style="stroke:none"
       id="polygon161"
       clip-path="url(#clipPath7)"
       points="0,0 154,0 169,15 154,15 154,0 169,15 169,49 0,49 " />
  </g>
  <g
     style="font-size:11px;fill:#000000;fill-opacity:1;stroke:#000000;stroke-linecap:butt;stroke-linejoin:round;stroke-miterlimit:0;stroke-opacity:1;font-family:sans-serif"
     id="g163"
     stroke-miterlimit="0"
     text-rendering="geometricPrecision"
     transform="translate(414.53098,2)"
     font-size="11">
    <polygon
       style="fill:none"
       id="polygon165"
       clip-path="url(#clipPath7)"
       points="0,0 154,0 169,15 154,15 154,0 169,15 169,49 0,49 " />
  </g>
  <g
     style="font-size:11px;fill:#000000;fill-opacity:1;stroke:#000000;stroke-opacity:1;font-family:sans-serif"
     id="g167"
     text-rendering="geometricPrecision"
     transform="translate(414.53098,2)"
     font-size="11">
    <path
       style="stroke:none"
       inkscape:connector-curvature="0"
       id="path169"
       clip-path="url(#clipPath8)"
       d="m 5.8594,14.4189 0,-6.9375 -2.5938,0 0,-0.9375 6.2344,0 0,0.9375 -2.6094,0 0,6.9375 -1.0312,0 z m 3.8594,0 0,-5.7031 0.8593,0 0,0.8594 q 0.3438,-0.6094 0.625,-0.7969 0.2813,-0.1875 0.6094,-0.1875 0.5,0 1,0.3125 L 12.4844,9.7939 Q 12.125,9.5908 11.7656,9.5908 q -0.3125,0 -0.5625,0.1875 -0.25,0.1875 -0.3593,0.5313 -0.1563,0.5156 -0.1563,1.125 l 0,2.9843 -0.9687,0 z m 7.7343,-0.7031 q -0.5469,0.4531 -1.039,0.6406 -0.4922,0.1875 -1.0703,0.1875 -0.9376,0 -1.4454,-0.4609 -0.5078,-0.4609 -0.5078,-1.1641 0,-0.4218 0.1953,-0.7656 0.1953,-0.3437 0.5,-0.5547 0.3047,-0.2109 0.6953,-0.3203 0.2813,-0.0781 0.8594,-0.1406 1.1719,-0.1406 1.7188,-0.3438 0.0156,-0.1875 0.0156,-0.25 0,-0.5937 -0.2812,-0.8281 Q 16.7344,9.3877 16,9.3877 q -0.6875,0 -1.0078,0.2344 -0.3203,0.2343 -0.4766,0.8437 l -0.9531,-0.125 q 0.125,-0.6094 0.4219,-0.9844 0.2968,-0.375 0.8594,-0.5703 0.5624,-0.1953 1.2968,-0.1953 0.7344,0 1.1875,0.1719 0.4531,0.1719 0.6641,0.4297 0.2109,0.2578 0.3047,0.6484 0.0469,0.25 0.0469,0.9063 l 0,1.2812 q 0,1.3438 0.0624,1.7031 0.0626,0.3594 0.25,0.6875 l -1.0156,0 q -0.1562,-0.2968 -0.1875,-0.7031 z m -0.0937,-2.1562 q -0.5156,0.2187 -1.5782,0.3593 -0.5937,0.0938 -0.8359,0.1954 -0.2422,0.1015 -0.3828,0.3125 -0.1406,0.2109 -0.1406,0.4609 0,0.3906 0.2969,0.6484 0.2968,0.2578 0.8593,0.2578 0.5625,0 0.9922,-0.25 0.4297,-0.25 0.6485,-0.6718 0.1406,-0.3282 0.1406,-0.9688 l 0,-0.3437 z m 2.3594,2.8593 0,-5.7031 0.875,0 0,0.8125 q 0.625,-0.9375 1.8124,-0.9375 0.5157,0 0.9532,0.1797 0.4375,0.1797 0.6484,0.4844 0.211,0.3047 0.3047,0.7109 0.0469,0.2813 0.0469,0.9531 l 0,3.5 -0.9688,0 0,-3.4687 q 0,-0.5938 -0.1094,-0.8828 -0.1093,-0.2891 -0.3984,-0.4688 -0.289,-0.1797 -0.6797,-0.1797 -0.6093,0 -1.0625,0.3907 -0.4531,0.3906 -0.4531,1.5 l 0,3.1093 -0.9687,0 z m 5.625,-1.7031 0.9531,-0.1562 q 0.0781,0.5781 0.4453,0.8828 0.3672,0.3047 1.0234,0.3047 0.6719,0 0.9922,-0.2657 0.3203,-0.2656 0.3203,-0.6406 0,-0.3281 -0.2812,-0.5156 -0.2031,-0.125 -0.9844,-0.3281 -1.0625,-0.2657 -1.4766,-0.461 -0.414,-0.1953 -0.625,-0.539 Q 25.5,10.6533 25.5,10.2314 q 0,-0.3906 0.1719,-0.7109 0.1719,-0.3203 0.4843,-0.5391 0.2188,-0.1718 0.6094,-0.2812 0.3906,-0.1094 0.8282,-0.1094 0.6718,0 1.1796,0.1875 0.5078,0.1875 0.75,0.5235 0.2422,0.3359 0.336,0.8828 l -0.9375,0.125 Q 28.8438,9.8721 28.5391,9.6299 28.2344,9.3877 27.6719,9.3877 q -0.6719,0 -0.9531,0.2187 -0.2813,0.2188 -0.2813,0.5157 0,0.1875 0.1094,0.3281 0.125,0.1562 0.375,0.2656 0.1406,0.0469 0.8593,0.25 1.0157,0.2656 1.4219,0.4375 0.4063,0.1719 0.6407,0.5078 0.2343,0.336 0.2343,0.836 0,0.4843 -0.2812,0.9062 -0.2813,0.4219 -0.8125,0.6563 -0.5313,0.2343 -1.2032,0.2343 -1.1093,0 -1.6953,-0.4609 Q 25.5,13.6221 25.3438,12.7158 z m 6.3906,-5.0625 0,-1.1094 0.9687,0 0,1.1094 -0.9687,0 z m 0,6.7656 0,-5.7031 0.9687,0 0,5.7031 -0.9687,0 z m 4.1094,-0.8593 0.125,0.8437 q -0.4063,0.0938 -0.7188,0.0938 -0.5312,0 -0.8203,-0.1719 -0.2891,-0.1719 -0.4063,-0.4375 -0.1172,-0.2656 -0.1172,-1.1406 l 0,-3.2813 -0.7187,0 0,-0.75 0.7187,0 0,-1.4062 0.9532,-0.5938 0,2 0.9844,0 0,0.75 -0.9844,0 0,3.3438 q 0,0.4062 0.0547,0.5234 0.0547,0.1172 0.1718,0.1875 0.1172,0.0703 0.3203,0.0703 0.1719,0 0.4376,-0.0312 z m 0.8906,-5.9063 0,-1.1094 0.9687,0 0,1.1094 -0.9687,0 z m 0,6.7656 0,-5.7031 0.9687,0 0,5.7031 -0.9687,0 z m 1.625,-2.8593 q 0,-1.5782 0.8906,-2.3438 0.7344,-0.625 1.7969,-0.625 1.1719,0 1.914,0.7656 0.7422,0.7657 0.7422,2.125 0,1.1094 -0.3281,1.7422 -0.3281,0.6328 -0.9609,0.9766 -0.6329,0.3437 -1.3672,0.3437 -1.2031,0 -1.9453,-0.7656 -0.7422,-0.7656 -0.7422,-2.2187 z m 1,0 q 0,1.1093 0.4765,1.6484 0.4766,0.5391 1.211,0.5391 0.7187,0 1.1953,-0.5469 0.4766,-0.5469 0.4766,-1.6719 0,-1.0469 -0.4844,-1.5937 -0.4844,-0.5469 -1.1875,-0.5469 -0.7344,0 -1.211,0.5391 -0.4765,0.539 -0.4765,1.6328 z m 5.3594,2.8593 0,-5.7031 0.875,0 0,0.8125 q 0.625,-0.9375 1.8124,-0.9375 0.5157,0 0.9532,0.1797 0.4375,0.1797 0.6484,0.4844 0.211,0.3047 0.3047,0.7109 0.0469,0.2813 0.0469,0.9531 l 0,3.5 -0.9688,0 0,-3.4687 q 0,-0.5938 -0.1094,-0.8828 -0.1093,-0.2891 -0.3984,-0.4688 -0.289,-0.1797 -0.6797,-0.1797 -0.6093,0 -1.0625,0.3907 -0.4531,0.3906 -0.4531,1.5 l 0,3.1093 -0.9687,0 z m 10.5937,0 -2.1719,-5.7031 1.0156,0 1.2344,3.4219 q 0.1875,0.5469 0.3594,1.1406 0.125,-0.4531 0.3594,-1.0781 l 1.2656,-3.4844 1,0 -2.1562,5.7031 -0.9063,0 z m 4.0469,-2.8593 q 0,-1.5782 0.8906,-2.3438 0.7344,-0.625 1.7969,-0.625 1.1719,0 1.914,0.7656 0.7422,0.7657 0.7422,2.125 0,1.1094 -0.3281,1.7422 -0.3281,0.6328 -0.9609,0.9766 -0.6329,0.3437 -1.3672,0.3437 -1.2031,0 -1.9453,-0.7656 -0.7422,-0.7656 -0.7422,-2.2187 z m 1,0 q 0,1.1093 0.4765,1.6484 0.4766,0.5391 1.211,0.5391 0.7187,0 1.1953,-0.5469 0.4766,-0.5469 0.4766,-1.6719 0,-1.0469 -0.4844,-1.5937 -0.4844,-0.5469 -1.1875,-0.5469 -0.7344,0 -1.211,0.5391 -0.4765,0.539 -0.4765,1.6328 z m 5.3594,2.8593 0,-5.7031 0.875,0 0,0.8125 q 0.625,-0.9375 1.8124,-0.9375 0.5157,0 0.9532,0.1797 0.4375,0.1797 0.6484,0.4844 0.211,0.3047 0.3047,0.7109 0.0469,0.2813 0.0469,0.9531 l 0,3.5 -0.9688,0 0,-3.4687 q 0,-0.5938 -0.1094,-0.8828 -0.1093,-0.2891 -0.3984,-0.4688 -0.289,-0.1797 -0.6797,-0.1797 -0.6093,0 -1.0625,0.3907 -0.4531,0.3906 -0.4531,1.5 l 0,3.1093 -0.9687,0 z m 9,-6.75 0,-1.125 0.9687,0 0,1.125 -0.9687,0 z M 73.5,16.6377 73.6719,15.8096 q 0.2969,0.0781 0.4687,0.0781 0.2969,0 0.4375,-0.1953 0.1407,-0.1953 0.1407,-0.9766 l 0,-6 0.9687,0 0,6.0156 q 0,1.0469 -0.2813,1.4688 -0.3437,0.5312 -1.1562,0.5312 -0.3906,0 -0.75,-0.0937 z m 7.125,-4.0625 1,0.125 q -0.2344,0.875 -0.875,1.3594 -0.6406,0.4843 -1.625,0.4843 -1.25,0 -1.9844,-0.7656 -0.7344,-0.7656 -0.7344,-2.1562 0,-1.4532 0.7422,-2.2422 0.7422,-0.7891 1.9141,-0.7891 1.1563,0 1.875,0.7735 0.7187,0.7734 0.7187,2.1953 0,0.0781 0,0.25 l -4.25,0 q 0.0469,0.9375 0.5235,1.4375 0.4765,0.5 1.1953,0.5 0.5312,0 0.9062,-0.2735 0.375,-0.2734 0.5938,-0.8984 z m -3.1719,-1.5625 3.1875,0 Q 80.5781,10.2939 80.2812,9.9346 79.8125,9.3877 79.0781,9.3877 q -0.6719,0 -1.125,0.4453 -0.4531,0.4453 -0.5,1.1797 z m 8.9688,3.4062 0,-0.7187 q -0.5313,0.8437 -1.5938,0.8437 -0.6719,0 -1.25,-0.375 Q 83,13.7939 82.6875,13.1221 82.375,12.4502 82.375,11.5752 q 0,-0.8594 0.2891,-1.5547 0.289,-0.6953 0.8515,-1.0625 0.5625,-0.3672 1.2656,-0.3672 0.5157,0 0.9219,0.2188 0.4063,0.2187 0.6563,0.5625 l 0,-2.8282 0.9687,0 0,7.875 -0.9062,0 z M 83.375,11.5752 q 0,1.0937 0.4609,1.6328 0.461,0.5391 1.086,0.5391 0.6406,0 1.0781,-0.5157 0.4375,-0.5156 0.4375,-1.5781 0,-1.1719 -0.4453,-1.7187 -0.4453,-0.5469 -1.1172,-0.5469 -0.6406,0 -1.0703,0.5234 -0.4297,0.5235 -0.4297,1.6641 z m 9.25,1 1,0.125 q -0.2344,0.875 -0.875,1.3594 -0.6406,0.4843 -1.625,0.4843 -1.25,0 -1.9844,-0.7656 -0.7344,-0.7656 -0.7344,-2.1562 0,-1.4532 0.7422,-2.2422 0.7422,-0.7891 1.9141,-0.7891 1.1563,0 1.875,0.7735 0.7187,0.7734 0.7187,2.1953 0,0.0781 0,0.25 l -4.25,0 q 0.0469,0.9375 0.5235,1.4375 0.4765,0.5 1.1953,0.5 0.5312,0 0.9062,-0.2735 0.375,-0.2734 0.5938,-0.8984 z m -3.1719,-1.5625 3.1875,0 Q 92.5781,10.2939 92.2812,9.9346 91.8125,9.3877 91.0781,9.3877 q -0.6719,0 -1.125,0.4453 -0.4531,0.4453 -0.5,1.1797 z m 5.2657,3.4062 0,-5.7031 0.875,0 0,0.7969 q 0.2656,-0.4219 0.7109,-0.6719 0.4453,-0.25 1.0078,-0.25 0.6406,0 1.0469,0.2578 0.4062,0.2578 0.5781,0.7422 0.6719,-1 1.75,-1 0.8594,0 1.3125,0.4688 0.4531,0.4687 0.4531,1.4375 l 0,3.9218 -0.9531,0 0,-3.5937 q 0,-0.5781 -0.0938,-0.8359 -0.0937,-0.2579 -0.3437,-0.4141 -0.25,-0.1563 -0.5781,-0.1563 -0.6094,0 -1.0078,0.4063 -0.3985,0.4062 -0.3985,1.2812 l 0,3.3125 -0.9687,0 0,-3.7031 q 0,-0.6406 -0.2344,-0.9687 -0.2344,-0.3282 -0.7656,-0.3282 -0.4063,0 -0.7578,0.2188 -0.3516,0.2187 -0.5078,0.6328 -0.1563,0.4141 -0.1563,1.1953 l 0,2.9531 -0.9687,0 z m 10.7812,-2.5312 0.9844,-0.0781 q 0.0625,0.5781 0.3203,0.9609 0.2578,0.3828 0.7891,0.6172 0.5312,0.2344 1.2031,0.2344 0.6093,0 1.0625,-0.1797 0.4531,-0.1797 0.6797,-0.4844 0.2265,-0.3047 0.2265,-0.6797 0,-0.375 -0.2187,-0.6484 -0.2188,-0.2735 -0.7188,-0.461 -0.3125,-0.125 -1.3984,-0.3828 -1.0859,-0.2578 -1.5235,-0.4922 -0.5624,-0.2968 -0.8359,-0.7343 -0.2734,-0.4375 -0.2734,-0.9844 0,-0.5938 0.3359,-1.1094 0.336,-0.5156 0.9844,-0.789 0.6484,-0.2735 1.4453,-0.2735 0.875,0 1.5469,0.2891 0.6718,0.289 1.0312,0.8359 0.3594,0.5469 0.3906,1.2344 l -1,0.0781 q -0.0781,-0.75 -0.5468,-1.1328 -0.4688,-0.3828 -1.375,-0.3828 -0.9375,0 -1.375,0.3516 -0.4375,0.3515 -0.4375,0.8359 0,0.4219 0.3125,0.7031 0.2968,0.2656 1.5703,0.5547 1.2734,0.2891 1.7422,0.5078 0.6875,0.3125 1.0156,0.7969 0.3281,0.4844 0.3281,1.125 0,0.625 -0.3594,1.1797 -0.3593,0.5547 -1.039,0.8672 -0.6797,0.3125 -1.5234,0.3125 -1.0626,0 -1.7813,-0.3125 -0.7187,-0.3125 -1.1328,-0.9375 -0.4141,-0.625 -0.4297,-1.4219 z m 9.3438,1.6719 0.125,0.8437 q -0.4063,0.0938 -0.7188,0.0938 -0.5312,0 -0.8203,-0.1719 -0.2891,-0.1719 -0.4063,-0.4375 -0.1172,-0.2656 -0.1172,-1.1406 l 0,-3.2813 -0.7187,0 0,-0.75 0.7187,0 0,-1.4062 0.9532,-0.5938 0,2 0.9844,0 0,0.75 -0.9844,0 0,3.3438 q 0,0.4062 0.0547,0.5234 0.0547,0.1172 0.1718,0.1875 0.1172,0.0703 0.3203,0.0703 0.1719,0 0.4376,-0.0312 z m 4.6093,0.1562 q -0.5469,0.4531 -1.039,0.6406 -0.4922,0.1875 -1.0703,0.1875 -0.9376,0 -1.4454,-0.4609 -0.5078,-0.4609 -0.5078,-1.1641 0,-0.4218 0.1953,-0.7656 0.1953,-0.3437 0.5,-0.5547 0.3047,-0.2109 0.6953,-0.3203 0.2813,-0.0781 0.8594,-0.1406 1.1719,-0.1406 1.7188,-0.3438 0.0156,-0.1875 0.0156,-0.25 0,-0.5937 -0.2812,-0.8281 Q 118.7344,9.3877 118,9.3877 q -0.6875,0 -1.0078,0.2344 -0.3203,0.2343 -0.4766,0.8437 l -0.9531,-0.125 q 0.125,-0.6094 0.4219,-0.9844 0.2968,-0.375 0.8594,-0.5703 0.5624,-0.1953 1.2968,-0.1953 0.7344,0 1.1875,0.1719 0.4531,0.1719 0.6641,0.4297 0.2109,0.2578 0.3047,0.6484 0.0469,0.25 0.0469,0.9063 l 0,1.2812 q 0,1.3438 0.0624,1.7031 0.0626,0.3594 0.25,0.6875 l -1.0156,0 q -0.1562,-0.2968 -0.1875,-0.7031 z m -0.0937,-2.1562 q -0.5156,0.2187 -1.5782,0.3593 -0.5937,0.0938 -0.8359,0.1954 -0.2422,0.1015 -0.3828,0.3125 -0.1406,0.2109 -0.1406,0.4609 0,0.3906 0.2969,0.6484 0.2968,0.2578 0.8593,0.2578 0.5625,0 0.9922,-0.25 0.4297,-0.25 0.6485,-0.6718 0.1406,-0.3282 0.1406,-0.9688 l 0,-0.3437 z m 4.4844,2 0.125,0.8437 q -0.4063,0.0938 -0.7188,0.0938 -0.5312,0 -0.8203,-0.1719 -0.2891,-0.1719 -0.4063,-0.4375 -0.1172,-0.2656 -0.1172,-1.1406 l 0,-3.2813 -0.7187,0 0,-0.75 0.7187,0 0,-1.4062 0.9532,-0.5938 0,2 0.9844,0 0,0.75 -0.9844,0 0,3.3438 q 0,0.4062 0.0547,0.5234 0.0547,0.1172 0.1718,0.1875 0.1172,0.0703 0.3203,0.0703 0.1719,0 0.4376,-0.0312 z m 4.7812,-0.9844 1,0.125 q -0.2344,0.875 -0.875,1.3594 -0.6406,0.4843 -1.625,0.4843 -1.25,0 -1.9844,-0.7656 -0.7344,-0.7656 -0.7344,-2.1562 0,-1.4532 0.7422,-2.2422 0.7422,-0.7891 1.9141,-0.7891 1.1563,0 1.875,0.7735 0.7187,0.7734 0.7187,2.1953 0,0.0781 0,0.25 l -4.25,0 q 0.0469,0.9375 0.5235,1.4375 0.4765,0.5 1.1953,0.5 0.5312,0 0.9062,-0.2735 0.375,-0.2734 0.5938,-0.8984 z m -3.1719,-1.5625 3.1875,0 q -0.0625,-0.7188 -0.3594,-1.0781 -0.4687,-0.5469 -1.2031,-0.5469 -0.6719,0 -1.125,0.4453 -0.4531,0.4453 -0.5,1.1797 z" />
    <path
       style="stroke:none"
       inkscape:connector-curvature="0"
       id="path171"
       clip-path="url(#clipPath8)"
       d="m 7.4688,29.4189 0,-0.8437 q -0.6719,0.9687 -1.8126,0.9687 -0.5,0 -0.9453,-0.1953 Q 4.2656,29.1533 4.0547,28.8643 3.8438,28.5752 3.7656,28.1533 3.7031,27.8721 3.7031,27.2471 l 0,-3.5313 0.9688,0 0,3.1563 q 0,0.7656 0.0625,1.0312 0.0937,0.375 0.3828,0.5938 0.289,0.2187 0.7266,0.2187 0.4374,0 0.8203,-0.2265 0.3828,-0.2266 0.539,-0.6094 0.1563,-0.3828 0.1563,-1.1016 l 0,-3.0625 0.9687,0 0,5.7031 -0.8593,0 z m -3.1407,-7 0,-1.0937 1.0157,0 0,1.0937 -1.0157,0 z m 2,0 0,-1.0937 1.0157,0 0,1.0937 -1.0157,0 z m 4.2813,7 -0.8906,0 0,-7.875 0.9687,0 0,2.8125 q 0.6094,-0.7656 1.5625,-0.7656 0.5312,0 1,0.211 0.4688,0.2109 0.7734,0.5937 0.3047,0.3828 0.4766,0.9219 0.1719,0.539 0.1719,1.164 0,1.4688 -0.7266,2.2657 -0.7265,0.7968 -1.7422,0.7968 -1.0156,0 -1.5937,-0.8437 l 0,0.7187 z m 0,-2.8906 q 0,1.0156 0.2812,1.4844 0.4532,0.7344 1.2344,0.7344 0.625,0 1.0859,-0.5469 0.461,-0.5469 0.461,-1.6406 0,-1.1094 -0.4375,-1.6407 -0.4375,-0.5312 -1.0782,-0.5312 -0.625,0 -1.0859,0.5469 -0.4609,0.5468 -0.4609,1.5937 z m 9.0156,1.0469 1,0.125 q -0.2344,0.875 -0.875,1.3594 -0.6406,0.4843 -1.625,0.4843 -1.25,0 -1.9844,-0.7656 -0.7344,-0.7656 -0.7344,-2.1562 0,-1.4532 0.7422,-2.2422 0.7422,-0.7891 1.9141,-0.7891 1.1563,0 1.875,0.7735 0.7187,0.7734 0.7187,2.1953 0,0.0781 0,0.25 l -4.25,0 q 0.0469,0.9375 0.5235,1.4375 0.4765,0.5 1.1953,0.5 0.5312,0 0.9062,-0.2735 0.375,-0.2734 0.5938,-0.8984 z m -3.1719,-1.5625 3.1875,0 q -0.0625,-0.7188 -0.3594,-1.0781 -0.4687,-0.5469 -1.2031,-0.5469 -0.6719,0 -1.125,0.4453 -0.4531,0.4453 -0.5,1.1797 z m 5.2657,3.4062 0,-5.7031 0.8593,0 0,0.8594 q 0.3438,-0.6094 0.625,-0.7969 0.2813,-0.1875 0.6094,-0.1875 0.5,0 1,0.3125 l -0.3281,0.8906 q -0.3594,-0.2031 -0.7188,-0.2031 -0.3125,0 -0.5625,0.1875 -0.25,0.1875 -0.3593,0.5313 -0.1563,0.5156 -0.1563,1.125 l 0,2.9843 -0.9687,0 z m 6.2656,0 3.0312,-7.875 1.1094,0 3.2344,7.875 -1.1875,0 -0.9219,-2.3906 -3.2969,0 -0.8593,2.3906 -1.1094,0 z m 2.2656,-3.2343 2.6719,0 -0.8125,-2.1875 q -0.375,-0.9844 -0.5625,-1.625 -0.1563,0.75 -0.4219,1.5 l -0.875,2.3125 z m 7.3594,3.2343 -0.8906,0 0,-7.875 0.9687,0 0,2.8125 q 0.6094,-0.7656 1.5625,-0.7656 0.5312,0 1,0.211 0.4688,0.2109 0.7734,0.5937 0.3047,0.3828 0.4766,0.9219 0.1719,0.539 0.1719,1.164 0,1.4688 -0.7266,2.2657 -0.7265,0.7968 -1.7422,0.7968 -1.0156,0 -1.5937,-0.8437 l 0,0.7187 z m 0,-2.8906 q 0,1.0156 0.2812,1.4844 0.4532,0.7344 1.2344,0.7344 0.625,0 1.0859,-0.5469 0.461,-0.5469 0.461,-1.6406 0,-1.1094 -0.4375,-1.6407 -0.4375,-0.5312 -1.0782,-0.5312 -0.625,0 -1.0859,0.5469 -0.4609,0.5468 -0.4609,1.5937 z m 6,2.8906 -0.8906,0 0,-7.875 0.9687,0 0,2.8125 q 0.6094,-0.7656 1.5625,-0.7656 0.5312,0 1,0.211 0.4688,0.2109 0.7734,0.5937 0.3047,0.3828 0.4766,0.9219 0.1719,0.539 0.1719,1.164 0,1.4688 -0.7266,2.2657 -0.7265,0.7968 -1.7422,0.7968 -1.0156,0 -1.5937,-0.8437 l 0,0.7187 z m 0,-2.8906 q 0,1.0156 0.2812,1.4844 0.4532,0.7344 1.2344,0.7344 0.625,0 1.0859,-0.5469 0.461,-0.5469 0.461,-1.6406 0,-1.1094 -0.4375,-1.6407 -0.4375,-0.5312 -1.0782,-0.5312 -0.625,0 -1.0859,0.5469 -0.4609,0.5468 -0.4609,1.5937 z m 5.1094,2.8906 0,-5.7031 0.8593,0 0,0.8594 q 0.3438,-0.6094 0.625,-0.7969 0.2813,-0.1875 0.6094,-0.1875 0.5,0 1,0.3125 l -0.3281,0.8906 q -0.3594,-0.2031 -0.7188,-0.2031 -0.3125,0 -0.5625,0.1875 -0.25,0.1875 -0.3593,0.5313 -0.1563,0.5156 -0.1563,1.125 l 0,2.9843 -0.9687,0 z m 7.75,0 0,-0.8437 q -0.6719,0.9687 -1.8126,0.9687 -0.5,0 -0.9453,-0.1953 -0.4453,-0.1953 -0.6562,-0.4843 -0.2109,-0.2891 -0.2891,-0.711 -0.0625,-0.2812 -0.0625,-0.9062 l 0,-3.5313 0.9688,0 0,3.1563 q 0,0.7656 0.0625,1.0312 0.0937,0.375 0.3828,0.5938 0.289,0.2187 0.7266,0.2187 0.4374,0 0.8203,-0.2265 0.3828,-0.2266 0.539,-0.6094 0.1563,-0.3828 0.1563,-1.1016 l 0,-3.0625 0.9687,0 0,5.7031 -0.8593,0 z m 5.9843,-2.0937 0.9375,0.125 q -0.1406,0.9844 -0.789,1.5391 -0.6485,0.5546 -1.5704,0.5546 -1.1718,0 -1.8828,-0.7656 -0.7109,-0.7656 -0.7109,-2.1875 0,-0.9219 0.3047,-1.6172 0.3047,-0.6953 0.9297,-1.039 0.625,-0.3438 1.3593,-0.3438 0.9219,0 1.5157,0.4688 0.5937,0.4687 0.7656,1.3281 l -0.9531,0.1406 q -0.125,-0.5625 -0.4688,-0.8515 -0.3437,-0.2891 -0.8281,-0.2891 -0.7187,0 -1.1797,0.5234 -0.4609,0.5235 -0.4609,1.6485 0,1.1562 0.4375,1.6718 0.4375,0.5157 1.1562,0.5157 0.5625,0 0.9453,-0.3438 0.3829,-0.3437 0.4922,-1.0781 z m 2.2657,2.0937 0,-7.875 0.9687,0 0,2.8282 q 0.6875,-0.7813 1.7187,-0.7813 0.625,0 1.0938,0.25 0.4688,0.25 0.6719,0.6875 0.2031,0.4375 0.2031,1.2813 l 0,3.6093 -0.9688,0 0,-3.6093 q 0,-0.7344 -0.3124,-1.0625 -0.3126,-0.3282 -0.8907,-0.3282 -0.4375,0 -0.8125,0.2188 -0.375,0.2187 -0.539,0.6016 -0.1641,0.3828 -0.1641,1.0546 l 0,3.125 -0.9687,0 z m 8.5,0 0,-0.7812 3.625,-4.1719 q -0.6094,0.0313 -1.0938,0.0313 l -2.3125,0 0,-0.7813 4.6563,0 0,0.6406 -3.0938,3.625 -0.5938,0.6563 q 0.6563,-0.0469 1.2188,-0.0469 l 2.6406,0 0,0.8281 -5.0468,0 z m 10.25,0 0,-0.8437 q -0.6719,0.9687 -1.8126,0.9687 -0.5,0 -0.9453,-0.1953 -0.4453,-0.1953 -0.6562,-0.4843 -0.2109,-0.2891 -0.2891,-0.711 -0.0625,-0.2812 -0.0625,-0.9062 l 0,-3.5313 0.9688,0 0,3.1563 q 0,0.7656 0.0625,1.0312 0.0937,0.375 0.3828,0.5938 0.289,0.2187 0.7266,0.2187 0.4374,0 0.8203,-0.2265 0.3828,-0.2266 0.539,-0.6094 0.1563,-0.3828 0.1563,-1.1016 l 0,-3.0625 0.9687,0 0,5.7031 -0.8593,0 z m 5.4374,0 0,-7.875 5.3126,0 0,0.9375 -4.2813,0 0,2.4375 3.7031,0 0,0.9219 -3.7031,0 0,3.5781 -1.0313,0 z m 5.8282,-6.7656 0,-1.1094 0.9687,0 0,1.1094 -0.9687,0 z m 0,6.7656 0,-5.7031 0.9687,0 0,5.7031 -0.9687,0 z m 1.9844,0 0,-5.7031 0.875,0 0,0.8125 q 0.625,-0.9375 1.8124,-0.9375 0.5157,0 0.9532,0.1797 0.4375,0.1797 0.6484,0.4844 0.211,0.3047 0.3047,0.7109 0.0469,0.2813 0.0469,0.9531 l 0,3.5 -0.9688,0 0,-3.4687 q 0,-0.5938 -0.1094,-0.8828 -0.1093,-0.2891 -0.3984,-0.4688 -0.289,-0.1797 -0.6797,-0.1797 -0.6093,0 -1.0625,0.3907 -0.4531,0.3906 -0.4531,1.5 l 0,3.1093 -0.9687,0 z m 9.7343,-0.7031 q -0.5469,0.4531 -1.039,0.6406 -0.4922,0.1875 -1.0703,0.1875 -0.9376,0 -1.4454,-0.4609 -0.5078,-0.4609 -0.5078,-1.1641 0,-0.4218 0.1953,-0.7656 0.1953,-0.3437 0.5,-0.5547 0.3047,-0.2109 0.6953,-0.3203 0.2813,-0.0781 0.8594,-0.1406 1.1719,-0.1406 1.7188,-0.3438 0.0156,-0.1875 0.0156,-0.25 0,-0.5937 -0.2812,-0.8281 -0.3594,-0.3281 -1.0938,-0.3281 -0.6875,0 -1.0078,0.2344 -0.3203,0.2343 -0.4766,0.8437 l -0.9531,-0.125 q 0.125,-0.6094 0.4219,-0.9844 0.2968,-0.375 0.8594,-0.5703 0.5624,-0.1953 1.2968,-0.1953 0.7344,0 1.1875,0.1719 0.4531,0.1719 0.6641,0.4297 0.2109,0.2578 0.3047,0.6484 0.0469,0.25 0.0469,0.9063 l 0,1.2812 q 0,1.3438 0.0624,1.7031 0.0626,0.3594 0.25,0.6875 l -1.0156,0 q -0.1562,-0.2968 -0.1875,-0.7031 z m -0.0937,-2.1562 q -0.5156,0.2187 -1.5782,0.3593 -0.5937,0.0938 -0.8359,0.1954 -0.2422,0.1015 -0.3828,0.3125 -0.1406,0.2109 -0.1406,0.4609 0,0.3906 0.2969,0.6484 0.2968,0.2578 0.8593,0.2578 0.5625,0 0.9922,-0.25 0.4297,-0.25 0.6485,-0.6718 0.1406,-0.3282 0.1406,-0.9688 l 0,-0.3437 z m 2.3437,2.8593 0,-7.875 0.9688,0 0,7.875 -0.9688,0 z m 4.7969,-2.5312 0.9844,-0.0781 q 0.0625,0.5781 0.3203,0.9609 0.2578,0.3828 0.7891,0.6172 0.5312,0.2344 1.2031,0.2344 0.6093,0 1.0625,-0.1797 0.4531,-0.1797 0.6797,-0.4844 0.2265,-0.3047 0.2265,-0.6797 0,-0.375 -0.2187,-0.6484 -0.2188,-0.2735 -0.7188,-0.461 -0.3125,-0.125 -1.3984,-0.3828 -1.0859,-0.2578 -1.5235,-0.4922 -0.5624,-0.2968 -0.8359,-0.7343 -0.2734,-0.4375 -0.2734,-0.9844 0,-0.5938 0.3359,-1.1094 0.336,-0.5156 0.9844,-0.789 0.6484,-0.2735 1.4453,-0.2735 0.875,0 1.5469,0.2891 0.6718,0.289 1.0312,0.8359 0.3594,0.5469 0.3906,1.2344 l -1,0.0781 q -0.0781,-0.75 -0.5468,-1.1328 -0.4688,-0.3828 -1.375,-0.3828 -0.9375,0 -1.375,0.3516 -0.4375,0.3515 -0.4375,0.8359 0,0.4219 0.3125,0.7031 0.2968,0.2656 1.5703,0.5547 1.2734,0.2891 1.7422,0.5078 0.6875,0.3125 1.0156,0.7969 0.3281,0.4844 0.3281,1.125 0,0.625 -0.3594,1.1797 -0.3593,0.5547 -1.039,0.8672 -0.6797,0.3125 -1.5234,0.3125 -1.0626,0 -1.7813,-0.3125 -0.7187,-0.3125 -1.1328,-0.9375 -0.4141,-0.625 -0.4297,-1.4219 z m 9.3438,1.6719 0.125,0.8437 q -0.4063,0.0938 -0.7188,0.0938 -0.5312,0 -0.8203,-0.1719 -0.2891,-0.1719 -0.4063,-0.4375 -0.1172,-0.2656 -0.1172,-1.1406 l 0,-3.2813 -0.7187,0 0,-0.75 0.7187,0 0,-1.4062 0.9532,-0.5938 0,2 0.9844,0 0,0.75 -0.9844,0 0,3.3438 q 0,0.4062 0.0547,0.5234 0.0547,0.1172 0.1718,0.1875 0.1172,0.0703 0.3203,0.0703 0.1719,0 0.4376,-0.0312 z m 4.6093,0.1562 q -0.5469,0.4531 -1.039,0.6406 -0.4922,0.1875 -1.0703,0.1875 -0.9376,0 -1.4454,-0.4609 -0.5078,-0.4609 -0.5078,-1.1641 0,-0.4218 0.1953,-0.7656 0.1953,-0.3437 0.5,-0.5547 0.3047,-0.2109 0.6953,-0.3203 0.2813,-0.0781 0.8594,-0.1406 1.1719,-0.1406 1.7188,-0.3438 0.0156,-0.1875 0.0156,-0.25 0,-0.5937 -0.2812,-0.8281 -0.3594,-0.3281 -1.0938,-0.3281 -0.6875,0 -1.0078,0.2344 -0.3203,0.2343 -0.4766,0.8437 l -0.9531,-0.125 q 0.125,-0.6094 0.4219,-0.9844 0.2968,-0.375 0.8594,-0.5703 0.5624,-0.1953 1.2968,-0.1953 0.7344,0 1.1875,0.1719 0.4531,0.1719 0.6641,0.4297 0.2109,0.2578 0.3047,0.6484 0.0469,0.25 0.0469,0.9063 l 0,1.2812 q 0,1.3438 0.0624,1.7031 0.0626,0.3594 0.25,0.6875 l -1.0156,0 q -0.1562,-0.2968 -0.1875,-0.7031 z m -0.0937,-2.1562 q -0.5156,0.2187 -1.5782,0.3593 -0.5937,0.0938 -0.8359,0.1954 -0.2422,0.1015 -0.3828,0.3125 -0.1406,0.2109 -0.1406,0.4609 0,0.3906 0.2969,0.6484 0.2968,0.2578 0.8593,0.2578 0.5625,0 0.9922,-0.25 0.4297,-0.25 0.6485,-0.6718 0.1406,-0.3282 0.1406,-0.9688 l 0,-0.3437 z m 4.4844,2 0.125,0.8437 q -0.4063,0.0938 -0.7188,0.0938 -0.5312,0 -0.8203,-0.1719 -0.2891,-0.1719 -0.4063,-0.4375 -0.1172,-0.2656 -0.1172,-1.1406 l 0,-3.2813 -0.7187,0 0,-0.75 0.7187,0 0,-1.4062 0.9532,-0.5938 0,2 0.9844,0 0,0.75 -0.9844,0 0,3.3438 q 0,0.4062 0.0547,0.5234 0.0547,0.1172 0.1718,0.1875 0.1172,0.0703 0.3203,0.0703 0.1719,0 0.4376,-0.0312 z m 4.7812,-0.9844 1,0.125 q -0.2344,0.875 -0.875,1.3594 -0.6406,0.4843 -1.625,0.4843 -1.25,0 -1.9844,-0.7656 -0.7344,-0.7656 -0.7344,-2.1562 0,-1.4532 0.7422,-2.2422 0.7422,-0.7891 1.9141,-0.7891 1.1563,0 1.875,0.7735 0.7187,0.7734 0.7187,2.1953 0,0.0781 0,0.25 l -4.25,0 q 0.0469,0.9375 0.5235,1.4375 0.4765,0.5 1.1953,0.5 0.5312,0 0.9062,-0.2735 0.375,-0.2734 0.5938,-0.8984 z m -3.1719,-1.5625 3.1875,0 q -0.0625,-0.7188 -0.3594,-1.0781 -0.4687,-0.5469 -1.2031,-0.5469 -0.6719,0 -1.125,0.4453 -0.4531,0.4453 -0.5,1.1797 z" />
  </g>
  <g
     style="font-size:11px;fill:#000000;fill-opacity:1;stroke:#000000;stroke-opacity:1;font-family:sans-serif"
     id="g173"
     text-rendering="geometricPrecision"
     transform="translate(184.53098,92)"
     font-size="11">
    <text
       style="stroke:none"
       id="text175"
       clip-path="url(#clipPath9)"
       y="12"
       xml:space="preserve"
       x="8">Auf Vebindung</text>
    <text
       style="stroke:none"
       id="text177"
       clip-path="url(#clipPath9)"
       y="27"
       xml:space="preserve"
       x="28">warten</text>
  </g>
  <g
     style="font-size:11px;fill:#000000;fill-opacity:1;stroke:#000000;stroke-opacity:1;font-family:sans-serif"
     id="g179"
     text-rendering="geometricPrecision"
     transform="translate(184.53098,2)"
     font-size="11">
    <text
       style="stroke:none"
       id="text181"
       clip-path="url(#clipPath10)"
       y="12"
       xml:space="preserve"
       x="12">Initialisierung</text>
  </g>
  <g
     style="font-size:11px;fill:#000000;fill-opacity:1;stroke:#000000;stroke-opacity:1;font-family:sans-serif"
     id="g183"
     text-rendering="geometricPrecision"
     transform="translate(384.53098,282)"
     font-size="11">
    <text
       style="stroke:none"
       id="text185"
       clip-path="url(#clipPath11)"
       y="12"
       xml:space="preserve"
       x="6">Schritt bearbeiten</text>
  </g>
  <g
     style="font-size:11px;fill:#000000;fill-opacity:1;stroke:#000000;stroke-opacity:1;font-family:sans-serif"
     id="g187"
     text-rendering="geometricPrecision"
     transform="translate(174.53098,282)"
     font-size="11">
    <text
       style="stroke:none"
       id="text189"
       clip-path="url(#clipPath12)"
       y="12"
       xml:space="preserve"
       x="23">Parameter</text>
    <text
       style="stroke:none"
       id="text191"
       clip-path="url(#clipPath12)"
       y="27"
       xml:space="preserve"
       x="28">anfragen</text>
  </g>
  <g
     style="font-size:11px;fill:#000000;fill-opacity:1;stroke:#000000;stroke-opacity:1;font-family:sans-serif"
     id="g193"
     text-rendering="geometricPrecision"
     transform="translate(594.53098,92)"
     font-size="11">
    <text
       style="stroke:none"
       id="text195"
       clip-path="url(#clipPath13)"
       y="12"
       xml:space="preserve"
       x="16">Parkplat anfahren</text>
  </g>
  <g
     style="font-size:11px;fill:#000000;fill-opacity:1;stroke:#000000;stroke-opacity:1;font-family:sans-serif"
     id="g197"
     text-rendering="geometricPrecision"
     transform="translate(384.53098,182)"
     font-size="11">
    <text
       style="stroke:none"
       id="text199"
       clip-path="url(#clipPath11)"
       y="12"
       xml:space="preserve"
       x="11">Folge Fahrbahn</text>
  </g>
  <g
     style="font-size:11px;fill:#000000;fill-opacity:1;stroke:#000000;stroke-opacity:1;font-family:sans-serif"
     id="g201"
     text-rendering="geometricPrecision"
     transform="translate(384.53098,92)"
     font-size="11">
    <text
       style="stroke:none"
       id="text203"
       clip-path="url(#clipPath11)"
       y="12"
       xml:space="preserve"
       x="32">Parken</text>
  </g>
  <g
     style="font-size:11px;fill:#000000;fill-opacity:1;stroke:#000000;stroke-linecap:butt;stroke-linejoin:round;stroke-opacity:1;font-family:sans-serif"
     id="g205"
     text-rendering="geometricPrecision"
     transform="translate(374.53098,92)"
     font-size="11">
    <line
       style="fill:none"
       id="line207"
       y1="50"
       x2="50"
       clip-path="url(#clipPath14)"
       x1="50"
       y2="89" />
    <line
       style="fill:none"
       id="line209"
       y1="89"
       x2="56"
       clip-path="url(#clipPath14)"
       x1="50"
       y2="77" />
    <line
       style="fill:none"
       id="line211"
       y1="89"
       x2="44"
       clip-path="url(#clipPath14)"
       x1="50"
       y2="77" />
  </g>
  <g
     style="font-size:11px;fill:#000000;fill-opacity:1;stroke:#000000;stroke-linecap:butt;stroke-linejoin:round;stroke-opacity:1;font-family:sans-serif"
     id="g213"
     text-rendering="geometricPrecision"
     transform="translate(434.53098,62)"
     font-size="11">
    <line
       style="fill:none"
       id="line215"
       y1="50"
       x2="50"
       clip-path="url(#clipPath15)"
       x1="159"
       y2="50" />
    <line
       style="fill:none"
       id="line217"
       y1="50"
       x2="62"
       clip-path="url(#clipPath15)"
       x1="50"
       y2="56" />
    <line
       style="fill:none"
       id="line219"
       y1="50"
       x2="62"
       clip-path="url(#clipPath15)"
       x1="50"
       y2="44" />
  </g>
  <g
     style="font-size:11px;fill:#000000;fill-opacity:1;stroke:#000000;stroke-linecap:butt;stroke-linejoin:round;stroke-opacity:1;font-family:sans-serif"
     id="g221"
     text-rendering="geometricPrecision"
     transform="translate(434.53098,92)"
     font-size="11">
    <line
       style="fill:none"
       id="line223"
       y1="110"
       x2="220"
       clip-path="url(#clipPath16)"
       x1="50"
       y2="110" />
    <line
       style="fill:none"
       id="line225"
       y1="110"
       x2="220"
       clip-path="url(#clipPath16)"
       x1="220"
       y2="50" />
    <line
       style="fill:none"
       id="line227"
       y1="50"
       x2="214"
       clip-path="url(#clipPath16)"
       x1="220"
       y2="62" />
    <line
       style="fill:none"
       id="line229"
       y1="50"
       x2="226"
       clip-path="url(#clipPath16)"
       x1="220"
       y2="62" />
  </g>
  <g
     style="font-size:11px;fill:#000000;fill-opacity:1;stroke:#000000;stroke-linecap:butt;stroke-linejoin:round;stroke-opacity:1;font-family:sans-serif"
     id="g231"
     text-rendering="geometricPrecision"
     transform="translate(164.53098,152)"
     font-size="11">
    <line
       style="fill:none"
       id="line233"
       y1="50"
       x2="50"
       clip-path="url(#clipPath17)"
       x1="219"
       y2="50" />
    <line
       style="fill:none"
       id="line235"
       y1="50"
       x2="50"
       clip-path="url(#clipPath17)"
       x1="50"
       y2="129" />
    <line
       style="fill:none"
       id="line237"
       y1="129"
       x2="56"
       clip-path="url(#clipPath17)"
       x1="50"
       y2="117" />
    <line
       style="fill:none"
       id="line239"
       y1="129"
       x2="44"
       clip-path="url(#clipPath17)"
       x1="50"
       y2="117" />
  </g>
  <g
     style="font-size:11px;fill:#000000;fill-opacity:1;stroke:#000000;stroke-linecap:butt;stroke-linejoin:round;stroke-opacity:1;font-family:sans-serif"
     id="g241"
     text-rendering="geometricPrecision"
     transform="translate(224.53098,252)"
     font-size="11">
    <line
       style="fill:none"
       id="line243"
       y1="50"
       x2="159"
       clip-path="url(#clipPath15)"
       x1="50"
       y2="50" />
    <line
       style="fill:none"
       id="line245"
       y1="50"
       x2="147"
       clip-path="url(#clipPath15)"
       x1="159"
       y2="44" />
    <line
       style="fill:none"
       id="line247"
       y1="50"
       x2="147"
       clip-path="url(#clipPath15)"
       x1="159"
       y2="56" />
  </g>
  <g
     style="font-size:11px;fill:#000000;fill-opacity:1;stroke:#000000;stroke-linecap:butt;stroke-linejoin:round;stroke-opacity:1;font-family:sans-serif"
     id="g249"
     text-rendering="geometricPrecision"
     transform="translate(174.53098,162)"
     font-size="11">
    <line
       style="fill:none"
       id="line251"
       y1="119"
       x2="50"
       clip-path="url(#clipPath18)"
       x1="50"
       y2="50" />
    <line
       style="fill:none"
       id="line253"
       y1="50"
       x2="209"
       clip-path="url(#clipPath18)"
       x1="50"
       y2="50" />
    <line
       style="fill:none"
       id="line255"
       y1="50"
       x2="197"
       clip-path="url(#clipPath18)"
       x1="209"
       y2="44" />
    <line
       style="fill:none"
       id="line257"
       y1="50"
       x2="197"
       clip-path="url(#clipPath18)"
       x1="209"
       y2="56" />
  </g>
  <g
     style="font-size:11px;fill:#000000;fill-opacity:1;stroke:#000000;stroke-linecap:butt;stroke-linejoin:round;stroke-opacity:1;font-family:sans-serif"
     id="g259"
     text-rendering="geometricPrecision"
     transform="translate(384.53098,182)"
     font-size="11">
    <line
       style="fill:none"
       id="line261"
       y1="99"
       x2="50"
       clip-path="url(#clipPath19)"
       x1="50"
       y2="50" />
    <line
       style="fill:none"
       id="line263"
       y1="50"
       x2="44"
       clip-path="url(#clipPath19)"
       x1="50"
       y2="62" />
    <line
       style="fill:none"
       id="line265"
       y1="50"
       x2="56"
       clip-path="url(#clipPath19)"
       x1="50"
       y2="62" />
  </g>
  <g
     style="font-size:11px;fill:#000000;fill-opacity:1;stroke:#000000;stroke-linecap:butt;stroke-linejoin:round;stroke-opacity:1;font-family:sans-serif"
     id="g267"
     text-rendering="geometricPrecision"
     transform="translate(82.530979,-18)"
     font-size="11">
    <line
       style="fill:none"
       id="line269"
       y1="50"
       x2="101"
       clip-path="url(#clipPath20)"
       x1="50"
       y2="50" />
    <line
       style="fill:none"
       id="line271"
       y1="50"
       x2="89"
       clip-path="url(#clipPath20)"
       x1="101"
       y2="44" />
    <line
       style="fill:none"
       id="line273"
       y1="50"
       x2="89"
       clip-path="url(#clipPath20)"
       x1="101"
       y2="56" />
  </g>
  <g
     style="font-size:11px;fill:#000000;fill-opacity:1;stroke:#000000;stroke-linecap:butt;stroke-linejoin:round;stroke-opacity:1;font-family:sans-serif"
     id="g275"
     text-rendering="geometricPrecision"
     transform="translate(174.53098,-2)"
     font-size="11">
    <line
       style="fill:none"
       id="line277"
       y1="50"
       x2="50"
       clip-path="url(#clipPath21)"
       x1="50"
       y2="93" />
    <line
       style="fill:none"
       id="line279"
       y1="93"
       x2="56"
       clip-path="url(#clipPath21)"
       x1="50"
       y2="81" />
    <line
       style="fill:none"
       id="line281"
       y1="93"
       x2="44"
       clip-path="url(#clipPath21)"
       x1="50"
       y2="81" />
  </g>
  <g
     style="font-size:11px;fill:#000000;fill-opacity:1;stroke:#000000;stroke-linecap:butt;stroke-linejoin:round;stroke-opacity:1;font-family:sans-serif"
     id="g283"
     text-rendering="geometricPrecision"
     transform="translate(224.53098,62)"
     font-size="11">
    <line
       style="fill:none"
       id="line285"
       y1="50"
       x2="159"
       clip-path="url(#clipPath15)"
       x1="50"
       y2="50" />
    <line
       style="fill:none"
       id="line287"
       y1="50"
       x2="147"
       clip-path="url(#clipPath15)"
       x1="159"
       y2="44" />
    <line
       style="fill:none"
       id="line289"
       y1="50"
       x2="147"
       clip-path="url(#clipPath15)"
       x1="159"
       y2="56" />
  </g>
  <g
     style="font-size:11px;fill:#000000;fill-opacity:1;stroke:#000000;stroke-opacity:1;font-family:sans-serif"
     id="g291"
     text-rendering="geometricPrecision"
     transform="translate(274.53098,92)"
     font-size="11">
    <text
       style="stroke:none"
       id="text293"
       clip-path="url(#clipPath11)"
       y="12"
       xml:space="preserve"
       x="10">Verb. hergestellt</text>
  </g>
  <g
     style="font-size:11px;fill:#000000;fill-opacity:1;stroke:#000000;stroke-opacity:1;font-family:sans-serif"
     id="g295"
     text-rendering="geometricPrecision"
     transform="translate(155.53098,49)"
     font-size="11">
    <text
       style="stroke:none"
       id="text297"
       clip-path="url(#clipPath22)"
       y="12"
       xml:space="preserve"
       x="10">Initialisierung erfolgreich</text>
  </g>
  <g
     style="font-size:11px;fill:#000000;fill-opacity:1;stroke:#000000;stroke-opacity:1;font-family:sans-serif"
     id="g299"
     text-rendering="geometricPrecision"
     transform="translate(434.53098,252)"
     font-size="11">
    <text
       style="stroke:none"
       id="text301"
       clip-path="url(#clipPath23)"
       y="12"
       xml:space="preserve"
       x="10">Bearb. fertig</text>
  </g>
  <g
     style="font-size:11px;fill:#000000;fill-opacity:1;stroke:#000000;stroke-opacity:1;font-family:sans-serif"
     id="g303"
     text-rendering="geometricPrecision"
     transform="translate(229.53098,212)"
     font-size="11">
    <text
       style="stroke:none"
       id="text305"
       clip-path="url(#clipPath24)"
       y="12"
       xml:space="preserve"
       x="10">Paramter stimmen nicht</text>
  </g>
  <g
     style="font-size:11px;fill:#000000;fill-opacity:1;stroke:#000000;stroke-opacity:1;font-family:sans-serif"
     id="g307"
     text-rendering="geometricPrecision"
     transform="translate(265.87823,282)"
     font-size="11">
    <text
       style="stroke:none"
       id="text309"
       clip-path="url(#clipPath25)"
       y="12"
       xml:space="preserve"
       x="10">Paramter stimmen</text>
  </g>
  <g
     style="font-size:11px;fill:#000000;fill-opacity:1;stroke:#000000;stroke-opacity:1;font-family:sans-serif"
     id="g311"
     text-rendering="geometricPrecision"
     transform="translate(-10.945313,180.26945)"
     font-size="11">
    <text
       style="stroke:none"
       id="text313"
       clip-path="url(#clipPath26)"
       y="12"
       xml:space="preserve"
       x="10">( Schritte vorhanden &amp;&amp; Versuche vorhanden ) &amp;&amp; Position.mark1-4</text>
  </g>
  <g
     style="font-size:11px;fill:#000000;fill-opacity:1;stroke:#000000;stroke-opacity:1;font-family:sans-serif"
     id="g315"
     text-rendering="geometricPrecision"
     transform="translate(484.53098,202)"
     font-size="11">
    <text
       style="stroke:none"
       id="text317"
       clip-path="url(#clipPath27)"
       y="12"
       xml:space="preserve"
       x="10">(keine Schritte || keine Versuche ) &amp;&amp; Position.mark5</text>
  </g>
  <g
     style="font-size:11px;fill:#000000;fill-opacity:1;stroke:#000000;stroke-opacity:1;font-family:sans-serif"
     id="g319"
     text-rendering="geometricPrecision"
     transform="translate(484.53098,92)"
     font-size="11">
    <text
       style="stroke:none"
       id="text321"
       clip-path="url(#clipPath28)"
       y="12"
       xml:space="preserve"
       x="10">Parkplatz erreicht</text>
  </g>
  <g
     style="font-size:11px;fill:#000000;fill-opacity:1;stroke:#000000;stroke-opacity:1;font-family:sans-serif"
     id="g323"
     text-rendering="geometricPrecision"
     transform="translate(424.53098,152)"
     font-size="11">
    <text
       style="stroke:none"
       id="text325"
       clip-path="url(#clipPath29)"
       y="12"
       xml:space="preserve"
       x="10">Auftrag erhalten</text>
  </g>
</svg>
