<?xml version="1.0" encoding="UTF-8" standalone="no"?>
<svg
   xmlns:dc="http://purl.org/dc/elements/1.1/"
   xmlns:cc="http://creativecommons.org/ns#"
   xmlns:rdf="http://www.w3.org/1999/02/22-rdf-syntax-ns#"
   xmlns:svg="http://www.w3.org/2000/svg"
   xmlns="http://www.w3.org/2000/svg"
   xmlns:sodipodi="http://sodipodi.sourceforge.net/DTD/sodipodi-0.dtd"
   xmlns:inkscape="http://www.inkscape.org/namespaces/inkscape"
   fill-opacity="0"
   color-rendering="auto"
   color-interpolation="auto"
   stroke="rgb(0,0,0)"
   text-rendering="auto"
   stroke-linecap="square"
   width="586"
   stroke-miterlimit="10"
   stroke-opacity="0"
   shape-rendering="auto"
   fill="rgb(0,0,0)"
   stroke-dasharray="none"
   font-weight="normal"
   stroke-width="1"
   height="429"
   font-family="'Dialog'"
   font-style="normal"
   stroke-linejoin="miter"
   font-size="12"
   stroke-dashoffset="0"
   image-rendering="auto"
   id="svg2"
   version="1.1"
   inkscape:version="0.48.4 r9939"
   sodipodi:docname="RasPi__BtDeviceDialog.svg"
   inkscape:export-filename="/home/sascha/Dokumente/Studium/SS13/es/ees_StegStef/doku/rasPi/RasPi__BtDeviceDialog.png"
   inkscape:export-xdpi="150"
   inkscape:export-ydpi="150">
  <metadata
     id="metadata383">
    <rdf:RDF>
      <cc:Work
         rdf:about="">
        <dc:format>image/svg+xml</dc:format>
        <dc:type
           rdf:resource="http://purl.org/dc/dcmitype/StillImage" />
        <dc:title></dc:title>
      </cc:Work>
    </rdf:RDF>
  </metadata>
  <sodipodi:namedview
     pagecolor="#ffffff"
     bordercolor="#666666"
     borderopacity="1"
     objecttolerance="10"
     gridtolerance="10"
     guidetolerance="10"
     inkscape:pageopacity="0"
     inkscape:pageshadow="2"
     inkscape:window-width="640"
     inkscape:window-height="480"
     id="namedview381"
     showgrid="false"
     inkscape:zoom="0.51877133"
     inkscape:cx="293"
     inkscape:cy="214.5"
     inkscape:window-x="2300"
     inkscape:window-y="453"
     inkscape:window-maximized="0"
     inkscape:current-layer="svg2" />
  <!--Generated by the Batik Graphics2D SVG Generator-->
  <defs
     id="genericDefs">
    <defs
       id="defs1">
      <clipPath
         id="clipPath1"
         clipPathUnits="userSpaceOnUse">
        <path
           id="path9"
           d="M-7 -7 L351 -7 L351 81 L-7 81 L-7 -7 Z" />
      </clipPath>
      <clipPath
         id="clipPath2"
         clipPathUnits="userSpaceOnUse">
        <path
           id="path12"
           d="M0 0 L0 70 L325 70 L325 0 Z" />
      </clipPath>
      <clipPath
         id="clipPath3"
         clipPathUnits="userSpaceOnUse">
        <path
           id="path15"
           d="M-7 -7 L171 -7 L171 71 L-7 71 L-7 -7 Z" />
      </clipPath>
      <clipPath
         id="clipPath4"
         clipPathUnits="userSpaceOnUse">
        <path
           id="path18"
           d="M0 0 L0 46 L160 46 L160 0 Z" />
      </clipPath>
      <clipPath
         id="clipPath5"
         clipPathUnits="userSpaceOnUse">
        <path
           id="path21"
           d="M0 0 L160 0 L160 14 L0 14 L0 0 Z" />
      </clipPath>
      <clipPath
         id="clipPath6"
         clipPathUnits="userSpaceOnUse">
        <path
           id="path24"
           d="M-7 -7 L121 -7 L121 51 L-7 51 L-7 -7 Z" />
      </clipPath>
      <clipPath
         id="clipPath7"
         clipPathUnits="userSpaceOnUse">
        <path
           id="path27"
           d="M0 0 L110 0 L110 40 L0 40 L0 0 Z" />
      </clipPath>
      <clipPath
         id="clipPath8"
         clipPathUnits="userSpaceOnUse">
        <path
           id="path30"
           d="M-7 -7 L204 -7 L204 81 L-7 81 L-7 -7 Z" />
      </clipPath>
      <clipPath
         id="clipPath9"
         clipPathUnits="userSpaceOnUse">
        <path
           id="path33"
           d="M0 0 L0 56 L193 56 L193 0 Z" />
      </clipPath>
      <clipPath
         id="clipPath10"
         clipPathUnits="userSpaceOnUse">
        <path
           id="path36"
           d="M0 0 L193 0 L193 14 L0 14 L0 0 Z" />
      </clipPath>
      <clipPath
         id="clipPath11"
         clipPathUnits="userSpaceOnUse">
        <path
           id="path39"
           d="M-7 -7 L231 -7 L231 61 L-7 61 L-7 -7 Z" />
      </clipPath>
      <clipPath
         id="clipPath12"
         clipPathUnits="userSpaceOnUse">
        <path
           id="path42"
           d="M0 0 L0 36 L220 36 L220 0 Z" />
      </clipPath>
      <clipPath
         id="clipPath13"
         clipPathUnits="userSpaceOnUse">
        <path
           id="path45"
           d="M0 0 L220 0 L220 14 L0 14 L0 0 Z" />
      </clipPath>
      <clipPath
         id="clipPath14"
         clipPathUnits="userSpaceOnUse">
        <path
           id="path48"
           d="M-7 -7 L101 -7 L101 51 L-7 51 L-7 -7 Z" />
      </clipPath>
      <clipPath
         id="clipPath15"
         clipPathUnits="userSpaceOnUse">
        <path
           id="path51"
           d="M0 0 L90 0 L90 40 L0 40 L0 0 Z" />
      </clipPath>
      <clipPath
         id="clipPath16"
         clipPathUnits="userSpaceOnUse">
        <path
           id="path54"
           d="M-7 -7 L131 -7 L131 81 L-7 81 L-7 -7 Z" />
      </clipPath>
      <clipPath
         id="clipPath17"
         clipPathUnits="userSpaceOnUse">
        <path
           id="path57"
           d="M0 0 L0 42 L120 42 L120 0 Z" />
      </clipPath>
      <clipPath
         id="clipPath18"
         clipPathUnits="userSpaceOnUse">
        <path
           id="path60"
           d="M0 0 L120 0 L120 28 L0 28 L0 0 Z" />
      </clipPath>
      <clipPath
         id="clipPath19"
         clipPathUnits="userSpaceOnUse">
        <path
           id="path63"
           d="M-7 -7 L127 -7 L127 25 L-7 25 L-7 -7 Z" />
      </clipPath>
      <clipPath
         id="clipPath20"
         clipPathUnits="userSpaceOnUse">
        <path
           id="path66"
           d="M0 0 L116 0 L116 14 L0 14 L0 0 Z" />
      </clipPath>
      <clipPath
         id="clipPath21"
         clipPathUnits="userSpaceOnUse">
        <path
           id="path69"
           d="M-7 -7 L39 -7 L39 25 L-7 25 L-7 -7 Z" />
      </clipPath>
      <clipPath
         id="clipPath22"
         clipPathUnits="userSpaceOnUse">
        <path
           id="path72"
           d="M0 0 L28 0 L28 14 L0 14 L0 0 Z" />
      </clipPath>
      <clipPath
         id="clipPath23"
         clipPathUnits="userSpaceOnUse">
        <path
           id="path75"
           d="M-7 -7 L45 -7 L45 25 L-7 25 L-7 -7 Z" />
      </clipPath>
      <clipPath
         id="clipPath24"
         clipPathUnits="userSpaceOnUse">
        <path
           id="path78"
           d="M0 0 L34 0 L34 14 L0 14 L0 0 Z" />
      </clipPath>
      <clipPath
         id="clipPath25"
         clipPathUnits="userSpaceOnUse">
        <path
           id="path81"
           d="M-7 -7 L38 -7 L38 25 L-7 25 L-7 -7 Z" />
      </clipPath>
      <clipPath
         id="clipPath26"
         clipPathUnits="userSpaceOnUse">
        <path
           id="path84"
           d="M0 0 L27 0 L27 14 L0 14 L0 0 Z" />
      </clipPath>
      <clipPath
         id="clipPath27"
         clipPathUnits="userSpaceOnUse">
        <path
           id="path87"
           d="M0 0 L104 0 L104 172 L0 172 L0 0 Z" />
      </clipPath>
      <clipPath
         id="clipPath28"
         clipPathUnits="userSpaceOnUse">
        <path
           id="path90"
           d="M0 0 L104 0 L104 153 L0 153 L0 0 Z" />
      </clipPath>
      <clipPath
         id="clipPath29"
         clipPathUnits="userSpaceOnUse">
        <path
           id="path93"
           d="M0 0 L104 0 L104 192 L0 192 L0 0 Z" />
      </clipPath>
      <clipPath
         id="clipPath30"
         clipPathUnits="userSpaceOnUse">
        <path
           id="path96"
           d="M0 0 L154 0 L154 164 L0 164 L0 0 Z" />
      </clipPath>
      <clipPath
         id="clipPath31"
         clipPathUnits="userSpaceOnUse">
        <path
           id="path99"
           d="M0 0 L249 0 L249 104 L0 104 L0 0 Z" />
      </clipPath>
      <clipPath
         id="clipPath32"
         clipPathUnits="userSpaceOnUse">
        <path
           id="path102"
           d="M0 0 L139 0 L139 142 L0 142 L0 0 Z" />
      </clipPath>
      <clipPath
         id="clipPath33"
         clipPathUnits="userSpaceOnUse">
        <path
           id="path105"
           d="M-76 -14 L152 -14 L152 28 L-76 28 L-76 -14 Z" />
      </clipPath>
    </defs>
  </defs>
  <g
     style="fill:#ffffff;fill-opacity:1;stroke:#ffffff;stroke-opacity:1"
     id="g107"
     text-rendering="geometricPrecision">
    <rect
       style="stroke:none"
       id="rect109"
       y="0"
       height="429"
       width="586"
       x="0" />
    <rect
       style="fill:none;stroke:#000000"
       id="rect111"
       height="428"
       width="585"
       transform="translate(-18,-38)"
       y="38"
       x="18" />
    <text
       style="fill:#000000;stroke:none"
       id="text113"
       transform="translate(-18,-38)"
       y="54"
       xml:space="preserve"
       x="25">RasPi::BtDeviceDialog</text>
    <line
       style="fill:none;stroke:#000000"
       id="line115"
       y2="61"
       y1="61"
       x2="160"
       x1="18"
       transform="translate(-18,-38)" />
    <line
       style="fill:none;stroke:#000000"
       id="line117"
       y2="51"
       y1="38"
       x2="166"
       x1="166"
       transform="translate(-18,-38)" />
    <line
       style="fill:none;stroke:#000000"
       id="line119"
       y2="61"
       y1="51"
       x2="160"
       x1="166"
       transform="translate(-18,-38)" />
  </g>
  <g
     style="font-size:11px;fill:#ffffff;fill-opacity:1;stroke:#ffffff;stroke-opacity:1;font-family:sans-serif"
     id="g121"
     text-rendering="geometricPrecision"
     transform="translate(42,35)"
     font-size="11">
    <polygon
       style="stroke:none"
       id="polygon123"
       clip-path="url(#clipPath1)"
       points="339,15 324,15 324,0 339,15 339,69 0,69 0,0 324,0 " />
  </g>
  <g
     style="font-size:11px;fill:#000000;fill-opacity:1;stroke:#000000;stroke-linecap:butt;stroke-linejoin:round;stroke-miterlimit:0;stroke-opacity:1;font-family:sans-serif"
     id="g125"
     stroke-miterlimit="0"
     text-rendering="geometricPrecision"
     transform="translate(42,35)"
     font-size="11">
    <polygon
       style="fill:none"
       id="polygon127"
       clip-path="url(#clipPath1)"
       points="339,15 324,15 324,0 339,15 339,69 0,69 0,0 324,0 " />
  </g>
  <g
     style="fill:#000000;fill-opacity:1;stroke:#000000;stroke-opacity:1;font-family:sans-serif"
     id="g129"
     text-rendering="geometricPrecision"
     transform="translate(42,35)">
    <path
       style="stroke:none"
       inkscape:connector-curvature="0"
       id="path131"
       clip-path="url(#clipPath2)"
       d="M 8,10.1323 Q 8,9.0542 7.5547,8.4683 7.1094,7.8823 6.3125,7.8823 q -0.7969,0 -1.2422,0.586 -0.4453,0.5859 -0.4453,1.664 0,1.0625 0.4453,1.6563 0.4453,0.5937 1.2422,0.5937 0.7969,0 1.2422,-0.5937 Q 8,11.1948 8,10.1323 z m 0.9844,2.3281 q 0,1.5469 -0.6797,2.2891 -0.6797,0.7422 -2.0859,0.7422 -0.5313,0 -0.9922,-0.0781 -0.461,-0.0782 -0.8985,-0.2344 l 0,-0.9531 q 0.4375,0.2343 0.8594,0.3437 0.4219,0.1094 0.875,0.1094 0.9687,0 1.4531,-0.5078 Q 8,13.6636 8,12.6479 l 0,-0.5 q -0.3125,0.5313 -0.7891,0.7969 -0.4765,0.2656 -1.1484,0.2656 -1.1094,0 -1.7813,-0.8437 -0.6718,-0.8438 -0.6718,-2.2344 0,-1.3906 0.6718,-2.2344 0.6719,-0.8437 1.7813,-0.8437 0.6719,0 1.1484,0.2578 Q 7.6875,7.5698 8,8.1011 l 0,-0.9063 0.9844,0 0,5.2656 z M 14.5156,8.1167 Q 14.3594,8.0229 14.1641,7.9761 13.9688,7.9292 13.7344,7.9292 q -0.8438,0 -1.2891,0.5469 Q 12,9.0229 12,10.0386 l 0,3.1718 -1,0 0,-6.0156 1,0 0,0.9375 q 0.2969,-0.5469 0.7969,-0.8125 0.5,-0.2656 1.2187,-0.2656 0.1094,0 0.2266,0.0078 0.1172,0.0078 0.2734,0.0391 l 0,1.0156 z m 1.4219,2.7187 0,-3.6406 0.9844,0 0,3.6094 q 0,0.8437 0.3359,1.2734 0.336,0.4297 0.9922,0.4297 0.8125,0 1.2734,-0.5078 0.461,-0.5078 0.461,-1.3984 l 0,-3.4063 0.9844,0 0,6.0156 -0.9844,0 0,-0.9218 q -0.3594,0.5468 -0.836,0.8125 -0.4765,0.2656 -1.1015,0.2656 -1.0313,0 -1.5703,-0.6484 -0.5391,-0.6485 -0.5391,-1.8829 z m 3.0469,-5.9687 1.0937,0 0,1.0937 -1.0937,0 0,-1.0937 z m -2.1563,0 1.0938,0 0,1.0937 -1.0938,0 0,-1.0937 z m 11.2031,4.7187 0,3.625 -0.9843,0 0,-3.5937 q 0,-0.8594 -0.3281,-1.2813 -0.3282,-0.4218 -1,-0.4218 -0.7969,0 -1.2579,0.5078 Q 24,8.9292 24,9.8042 l 0,3.4062 -1,0 0,-6.0156 1,0 0,0.9375 q 0.3438,-0.5469 0.8281,-0.8125 0.4844,-0.2656 1.1094,-0.2656 1.0313,0 1.5625,0.6406 0.5312,0.6406 0.5312,1.8906 z m 9.5,0.1719 2.9063,0 0,0.875 -2.9063,0 0,-0.875 z M 49.3281,5.9292 q -1.1719,0 -1.8672,0.8828 -0.6953,0.8828 -0.6953,2.3984 0,1.5157 0.6953,2.3985 0.6953,0.8828 1.8672,0.8828 1.1875,0 1.875,-0.8828 0.6875,-0.8828 0.6875,-2.3985 0,-1.5156 -0.6875,-2.3984 -0.6875,-0.8828 -1.875,-0.8828 z m 1.5313,7.1406 1.4218,1.5625 -1.3124,0 -1.1876,-1.2812 q -0.1718,0 -0.2656,0.0078 -0.0937,0.0078 -0.1875,0.0078 -1.6875,0 -2.6953,-1.1328 -1.0078,-1.1328 -1.0078,-3.0235 0,-1.9062 1.0078,-3.039 1.0078,-1.1328 2.6953,-1.1328 1.6875,0 2.7031,1.1328 1.0157,1.1328 1.0157,3.039 0,1.3907 -0.5625,2.3829 -0.5625,0.9921 -1.625,1.4765 z m 5.1562,-7.5781 0,1.7031 2.0313,0 0,0.7656 -2.0313,0 0,3.2657 q 0,0.7343 0.2032,0.9453 0.2031,0.2109 0.8124,0.2109 l 1.0157,0 0,0.8281 -1.0157,0 q -1.1406,0 -1.5781,-0.4296 -0.4375,-0.4297 -0.4375,-1.5547 l 0,-3.2657 -0.7187,0 0,-0.7656 0.7187,0 0,-1.7031 1,0 z m 7.0625,-0.2969 1.0938,0 0,3.3906 3.5937,-3.3906 1.3906,0 -3.9687,3.7344 4.25,4.2812 -1.4219,0 -3.8437,-3.8593 0,3.8593 -1.0938,0 0,-8.0156 z m 6.9531,-0.3437 1,0 0,8.3593 -1,0 0,-8.3593 z m 5.7344,5.3281 q -1.1875,0 -1.6484,0.2812 -0.461,0.2813 -0.461,0.9375 0,0.5157 0.3438,0.8282 0.3438,0.3125 0.9375,0.3125 0.8281,0 1.3203,-0.586 0.4922,-0.5859 0.4922,-1.539 l 0,-0.2344 -0.9844,0 z m 1.9688,-0.4063 0,3.4375 -0.9844,0 0,-0.9062 q -0.3281,0.5469 -0.8359,0.8047 -0.5079,0.2578 -1.2422,0.2578 -0.9219,0 -1.4688,-0.5156 -0.5469,-0.5157 -0.5469,-1.3907 0,-1.0156 0.6797,-1.5312 0.6797,-0.5156 2.0391,-0.5156 l 1.375,0 0,-0.0938 q 0,-0.6875 -0.4453,-1.0625 -0.4453,-0.375 -1.2578,-0.375 -0.5157,0 -1.0078,0.125 -0.4922,0.125 -0.9453,0.375 l 0,-0.9062 q 0.5468,-0.2188 1.0624,-0.3203 0.5157,-0.1016 0.9844,-0.1016 1.3125,0 1.9532,0.6719 0.6406,0.6718 0.6406,2.0468 z m 6.1406,-2.4062 0,0.9375 Q 83.4531,8.0854 83,7.9839 82.5469,7.8823 82.0625,7.8823 q -0.7344,0 -1.1016,0.2266 -0.3671,0.2265 -0.3671,0.664 0,0.3438 0.2656,0.5391 0.2656,0.1953 1.0625,0.3828 L 82.25,9.7729 q 1.0625,0.2188 1.5,0.6329 0.4375,0.414 0.4375,1.1484 0,0.8281 -0.6563,1.3203 -0.6562,0.4922 -1.8281,0.4922 -0.4843,0 -1.0078,-0.0938 -0.5234,-0.0937 -1.1015,-0.2812 l 0,-1.0156 q 0.5468,0.2812 1.0781,0.4218 0.5312,0.1407 1.0625,0.1407 0.6875,0 1.0625,-0.2422 0.375,-0.2422 0.375,-0.6641 0,-0.4062 -0.2657,-0.625 -0.2656,-0.2187 -1.1874,-0.4062 L 81.375,10.5073 Q 80.4531,10.3198 80.0469,9.9214 79.6406,9.5229 79.6406,8.8198 q 0,-0.8437 0.6016,-1.3047 0.6016,-0.4609 1.7109,-0.4609 0.5469,0 1.0313,0.0781 0.4844,0.0781 0.8906,0.2344 z m 7,0 0,0.9375 Q 90.4531,8.0854 90,7.9839 89.5469,7.8823 89.0625,7.8823 q -0.7344,0 -1.1016,0.2266 -0.3671,0.2265 -0.3671,0.664 0,0.3438 0.2656,0.5391 0.2656,0.1953 1.0625,0.3828 L 89.25,9.7729 q 1.0625,0.2188 1.5,0.6329 0.4375,0.414 0.4375,1.1484 0,0.8281 -0.6563,1.3203 -0.6562,0.4922 -1.8281,0.4922 -0.4843,0 -1.0078,-0.0938 -0.5234,-0.0937 -1.1015,-0.2812 l 0,-1.0156 q 0.5468,0.2812 1.0781,0.4218 0.5312,0.1407 1.0625,0.1407 0.6875,0 1.0625,-0.2422 0.375,-0.2422 0.375,-0.6641 0,-0.4062 -0.2657,-0.625 -0.2656,-0.2187 -1.1874,-0.4062 L 88.375,10.5073 Q 87.4531,10.3198 87.0469,9.9214 86.6406,9.5229 86.6406,8.8198 q 0,-0.8437 0.6016,-1.3047 0.6016,-0.4609 1.7109,-0.4609 0.5469,0 1.0313,0.0781 0.4844,0.0781 0.8906,0.2344 z m 8.3125,2.5937 0,0.4844 -4.5469,0 q 0.0625,1.0156 0.6094,1.5469 0.5469,0.5312 1.5312,0.5312 0.5782,0 1.1094,-0.1406 0.5313,-0.1406 1.0625,-0.4062 l 0,0.9218 q -0.5312,0.2344 -1.0937,0.3516 -0.5625,0.1172 -1.125,0.1172 -1.4532,0 -2.2891,-0.8359 -0.8359,-0.836 -0.8359,-2.2735 0,-1.4687 0.7968,-2.3359 0.7969,-0.8672 2.1563,-0.8672 1.2031,0 1.9141,0.7812 0.7109,0.7813 0.7109,2.125 z m -1,-0.2968 q 0,-0.8125 -0.4453,-1.2969 -0.4453,-0.4844 -1.1797,-0.4844 -0.8281,0 -1.3203,0.4688 -0.4922,0.4687 -0.5703,1.3125 l 3.5156,0 z m 7.8437,-0.0782 0,3.625 -0.9843,0 0,-3.5937 q 0,-0.8594 -0.3281,-1.2813 -0.3282,-0.4218 -1,-0.4218 -0.7969,0 -1.2579,0.5078 Q 102,8.9292 102,9.8042 l 0,3.4062 -1,0 0,-6.0156 1,0 0,0.9375 q 0.3438,-0.5469 0.8281,-0.8125 0.4844,-0.2656 1.1094,-0.2656 1.0313,0 1.5625,0.6406 0.5312,0.6406 0.5312,1.8906 z" />
    <path
       style="stroke:none"
       inkscape:connector-curvature="0"
       id="path133"
       clip-path="url(#clipPath2)"
       d="m 8,24.1323 q 0,-1.0781 -0.4453,-1.664 -0.4453,-0.586 -1.2422,-0.586 -0.7969,0 -1.2422,0.586 -0.4453,0.5859 -0.4453,1.664 0,1.0625 0.4453,1.6563 0.4453,0.5937 1.2422,0.5937 0.7969,0 1.2422,-0.5937 Q 8,25.1948 8,24.1323 z m 0.9844,2.3281 q 0,1.5469 -0.6797,2.2891 -0.6797,0.7422 -2.0859,0.7422 -0.5313,0 -0.9922,-0.0781 -0.461,-0.0782 -0.8985,-0.2344 l 0,-0.9531 q 0.4375,0.2343 0.8594,0.3437 0.4219,0.1094 0.875,0.1094 0.9687,0 1.4531,-0.5078 Q 8,27.6636 8,26.6479 l 0,-0.5 q -0.3125,0.5313 -0.7891,0.7969 -0.4765,0.2656 -1.1484,0.2656 -1.1094,0 -1.7813,-0.8437 -0.6718,-0.8438 -0.6718,-2.2344 0,-1.3906 0.6718,-2.2344 0.6719,-0.8437 1.7813,-0.8437 0.6719,0 1.1484,0.2578 Q 7.6875,21.5698 8,22.1011 l 0,-0.9063 0.9844,0 0,5.2656 z m 7.2031,-2.5 0,0.4844 -4.5469,0 q 0.0625,1.0156 0.6094,1.5469 0.5469,0.5312 1.5312,0.5312 0.5782,0 1.1094,-0.1406 0.5313,-0.1406 1.0625,-0.4062 l 0,0.9218 q -0.5312,0.2344 -1.0937,0.3516 -0.5625,0.1172 -1.125,0.1172 -1.4532,0 -2.2891,-0.8359 -0.8359,-0.836 -0.8359,-2.2735 0,-1.4687 0.7968,-2.3359 0.7969,-0.8672 2.1563,-0.8672 1.2031,0 1.9141,0.7812 0.7109,0.7813 0.7109,2.125 z m -1,-0.2968 q 0,-0.8125 -0.4453,-1.2969 -0.4453,-0.4844 -1.1797,-0.4844 -0.8281,0 -1.3203,0.4688 -0.4922,0.4687 -0.5703,1.3125 l 3.5156,0 z m 2.8437,-4.8125 1,0 0,8.3593 -1,0 0,-8.3593 z m 7.3282,5.3593 q 0,-1.0937 -0.4532,-1.7109 -0.4531,-0.6172 -1.2343,-0.6172 -0.7813,0 -1.2266,0.6172 Q 22,23.1167 22,24.2104 q 0,1.0938 0.4453,1.711 0.4453,0.6172 1.2266,0.6172 0.7812,0 1.2343,-0.6172 0.4532,-0.6172 0.4532,-1.711 z M 22,22.1011 q 0.2969,-0.5313 0.7734,-0.7891 0.4766,-0.2578 1.1485,-0.2578 1.0937,0 1.7734,0.8672 0.6797,0.8672 0.6797,2.289 0,1.4219 -0.6797,2.2891 -0.6797,0.8672 -1.7734,0.8672 -0.6719,0 -1.1485,-0.2578 Q 22.2969,26.8511 22,26.3042 l 0,0.9062 -1,0 0,-8.3593 1,0 0,3.25 z m 17.5312,1.6562 2.9063,0 0,0.875 -2.9063,0 0,-0.875 z m 11.2344,0.4219 q -1.1875,0 -1.6484,0.2812 -0.461,0.2813 -0.461,0.9375 0,0.5157 0.3438,0.8282 0.3438,0.3125 0.9375,0.3125 0.8281,0 1.3203,-0.586 0.4922,-0.5859 0.4922,-1.539 l 0,-0.2344 -0.9844,0 z m 1.9688,-0.4063 0,3.4375 -0.9844,0 0,-0.9062 q -0.3281,0.5469 -0.8359,0.8047 -0.5079,0.2578 -1.2422,0.2578 -0.9219,0 -1.4688,-0.5156 -0.5469,-0.5157 -0.5469,-1.3907 0,-1.0156 0.6797,-1.5312 0.6797,-0.5156 2.0391,-0.5156 l 1.375,0 0,-0.0938 q 0,-0.6875 -0.4453,-1.0625 -0.4453,-0.375 -1.2578,-0.375 -0.5157,0 -1.0078,0.125 -0.4922,0.125 -0.9453,0.375 l 0,-0.9062 q 0.5468,-0.2188 1.0624,-0.3203 0.5157,-0.1016 0.9844,-0.1016 1.3125,0 1.9532,0.6719 0.6406,0.6718 0.6406,2.0468 z m 2.2031,1.0625 0,-3.6406 0.9844,0 0,3.6094 q 0,0.8437 0.3359,1.2734 0.336,0.4297 0.9922,0.4297 0.8125,0 1.2734,-0.5078 0.461,-0.5078 0.461,-1.3984 l 0,-3.4063 0.9844,0 0,6.0156 -0.9844,0 0,-0.9218 q -0.3594,0.5468 -0.836,0.8125 -0.4765,0.2656 -1.1015,0.2656 -1.0313,0 -1.5703,-0.6484 -0.5391,-0.6485 -0.5391,-1.8829 z m 10.9375,-3.4687 0,0.9375 Q 65.4531,22.0854 65,21.9839 q -0.4531,-0.1016 -0.9375,-0.1016 -0.7344,0 -1.1016,0.2266 -0.3671,0.2265 -0.3671,0.664 0,0.3438 0.2656,0.5391 0.2656,0.1953 1.0625,0.3828 l 0.3281,0.0781 q 1.0625,0.2188 1.5,0.6329 0.4375,0.414 0.4375,1.1484 0,0.8281 -0.6563,1.3203 -0.6562,0.4922 -1.8281,0.4922 -0.4843,0 -1.0078,-0.0938 -0.5234,-0.0937 -1.1015,-0.2812 l 0,-1.0156 q 0.5468,0.2812 1.0781,0.4218 0.5312,0.1407 1.0625,0.1407 0.6875,0 1.0625,-0.2422 0.375,-0.2422 0.375,-0.6641 0,-0.4062 -0.2657,-0.625 -0.2656,-0.2187 -1.1874,-0.4062 L 63.375,24.5073 q -0.9219,-0.1875 -1.3281,-0.5859 -0.4063,-0.3985 -0.4063,-1.1016 0,-0.8437 0.6016,-1.3047 0.6016,-0.4609 1.7109,-0.4609 0.5469,0 1.0313,0.0781 0.4844,0.0781 0.8906,0.2344 z m 10.4531,-1.4375 q -1.1719,0 -1.8672,0.8828 -0.6953,0.8828 -0.6953,2.3984 0,1.5157 0.6953,2.3985 0.6953,0.8828 1.8672,0.8828 1.1875,0 1.875,-0.8828 0.6875,-0.8828 0.6875,-2.3985 0,-1.5156 -0.6875,-2.3984 -0.6875,-0.8828 -1.875,-0.8828 z m 1.5313,7.1406 1.4218,1.5625 -1.3124,0 -1.1876,-1.2812 q -0.1718,0 -0.2656,0.0078 -0.0937,0.0078 -0.1875,0.0078 -1.6875,0 -2.6953,-1.1328 -1.0078,-1.1328 -1.0078,-3.0235 0,-1.9062 1.0078,-3.039 1.0078,-1.1328 2.6953,-1.1328 1.6875,0 2.7031,1.1328 1.0157,1.1328 1.0157,3.039 0,1.3907 -0.5625,2.3829 -0.5625,0.9921 -1.625,1.4765 z m 5.1562,-7.5781 0,1.7031 2.0313,0 0,0.7656 -2.0313,0 0,3.2657 q 0,0.7343 0.2032,0.9453 0.2031,0.2109 0.8124,0.2109 l 1.0157,0 0,0.8281 -1.0157,0 q -1.1406,0 -1.5781,-0.4296 -0.4375,-0.4297 -0.4375,-1.5547 l 0,-3.2657 -0.7187,0 0,-0.7656 0.7187,0 0,-1.7031 1,0 z m 4.1563,0.5937 0,6.2344 1.2969,0 q 1.6718,0 2.4374,-0.75 0.7657,-0.75 0.7657,-2.375 0,-1.6094 -0.7657,-2.3594 -0.7656,-0.75 -2.4374,-0.75 l -1.2969,0 z m -1.0938,-0.8906 2.2344,0 q 2.3281,0 3.4219,0.9688 1.0937,0.9687 1.0937,3.0312 0,2.0781 -1.1015,3.0469 -1.1016,0.9687 -3.4141,0.9687 l -2.2344,0 0,-8.0156 z m 13.1094,4.7656 0,0.4844 -4.5469,0 q 0.0625,1.0156 0.6094,1.5469 0.5469,0.5312 1.5312,0.5312 0.5782,0 1.1094,-0.1406 0.5313,-0.1406 1.0625,-0.4062 l 0,0.9218 q -0.5312,0.2344 -1.0937,0.3516 -0.5625,0.1172 -1.125,0.1172 -1.4532,0 -2.2891,-0.8359 -0.8359,-0.836 -0.8359,-2.2735 0,-1.4687 0.7968,-2.3359 0.7969,-0.8672 2.1563,-0.8672 1.2031,0 1.9141,0.7812 0.7109,0.7813 0.7109,2.125 z m -1,-0.2968 q 0,-0.8125 -0.4453,-1.2969 -0.4453,-0.4844 -1.1797,-0.4844 -0.8281,0 -1.3203,0.4688 -0.4922,0.4687 -0.5703,1.3125 l 3.5156,0 z m 6.6875,-2.2969 0,0.9375 q -0.4219,-0.2188 -0.875,-0.3203 -0.4531,-0.1016 -0.9375,-0.1016 -0.7344,0 -1.1016,0.2266 -0.3671,0.2265 -0.3671,0.664 0,0.3438 0.2656,0.5391 0.2656,0.1953 1.0625,0.3828 l 0.3281,0.0781 q 1.0625,0.2188 1.5,0.6329 0.4375,0.414 0.4375,1.1484 0,0.8281 -0.6563,1.3203 -0.6562,0.4922 -1.8281,0.4922 -0.4843,0 -1.0078,-0.0938 -0.5234,-0.0937 -1.1015,-0.2812 l 0,-1.0156 q 0.5468,0.2812 1.0781,0.4218 0.5312,0.1407 1.0625,0.1407 0.6875,0 1.0625,-0.2422 0.375,-0.2422 0.375,-0.6641 0,-0.4062 -0.2657,-0.625 -0.2656,-0.2187 -1.1874,-0.4062 l -0.3438,-0.0938 q -0.9219,-0.1875 -1.3281,-0.5859 -0.4063,-0.3985 -0.4063,-1.1016 0,-0.8437 0.6016,-1.3047 0.6016,-0.4609 1.7109,-0.4609 0.5469,0 1.0313,0.0781 0.4844,0.0781 0.8906,0.2344 z m 3.1562,-0.1719 1,0 0,6.0156 -1,0 0,-6.0156 z m 0,-2.3437 1,0 0,1.25 -1,0 0,-1.25 z M 115,24.1323 q 0,-1.0781 -0.4453,-1.664 -0.4453,-0.586 -1.2422,-0.586 -0.7969,0 -1.2422,0.586 -0.4453,0.5859 -0.4453,1.664 0,1.0625 0.4453,1.6563 0.4453,0.5937 1.2422,0.5937 0.7969,0 1.2422,-0.5937 Q 115,25.1948 115,24.1323 z m 0.9844,2.3281 q 0,1.5469 -0.6797,2.2891 -0.6797,0.7422 -2.0859,0.7422 -0.5313,0 -0.9922,-0.0781 -0.461,-0.0782 -0.8985,-0.2344 l 0,-0.9531 q 0.4375,0.2343 0.8594,0.3437 0.4219,0.1094 0.875,0.1094 0.9687,0 1.4531,-0.5078 Q 115,27.6636 115,26.6479 l 0,-0.5 q -0.3125,0.5313 -0.7891,0.7969 -0.4765,0.2656 -1.1484,0.2656 -1.1094,0 -1.7813,-0.8437 -0.6718,-0.8438 -0.6718,-2.2344 0,-1.3906 0.6718,-2.2344 0.6719,-0.8437 1.7813,-0.8437 0.6719,0 1.1484,0.2578 0.4766,0.2578 0.7891,0.7891 l 0,-0.9063 0.9844,0 0,5.2656 z m 7.0468,-2.875 0,3.625 -0.9843,0 0,-3.5937 q 0,-0.8594 -0.3281,-1.2813 -0.3282,-0.4218 -1,-0.4218 -0.7969,0 -1.2579,0.5078 Q 119,22.9292 119,23.8042 l 0,3.4062 -1,0 0,-6.0156 1,0 0,0.9375 q 0.3438,-0.5469 0.8281,-0.8125 0.4844,-0.2656 1.1094,-0.2656 1.0313,0 1.5625,0.6406 0.5312,0.6406 0.5312,1.8906 z m 7.1563,0.375 0,0.4844 -4.5469,0 q 0.0625,1.0156 0.6094,1.5469 0.5469,0.5312 1.5312,0.5312 0.5782,0 1.1094,-0.1406 0.5313,-0.1406 1.0625,-0.4062 l 0,0.9218 q -0.5312,0.2344 -1.0937,0.3516 -0.5625,0.1172 -1.125,0.1172 -1.4532,0 -2.2891,-0.8359 -0.8359,-0.836 -0.8359,-2.2735 0,-1.4687 0.7968,-2.3359 0.7969,-0.8672 2.1563,-0.8672 1.2031,0 1.9141,0.7812 0.7109,0.7813 0.7109,2.125 z m -1,-0.2968 q 0,-0.8125 -0.4453,-1.2969 -0.4453,-0.4844 -1.1797,-0.4844 -0.8281,0 -1.3203,0.4688 -0.4922,0.4687 -0.5703,1.3125 l 3.5156,0 z m 6.3281,-1.5469 q -0.1562,-0.0938 -0.3515,-0.1406 -0.1953,-0.0469 -0.4297,-0.0469 -0.8438,0 -1.2891,0.5469 Q 133,23.0229 133,24.0386 l 0,3.1718 -1,0 0,-6.0156 1,0 0,0.9375 q 0.2969,-0.5469 0.7969,-0.8125 0.5,-0.2656 1.2187,-0.2656 0.1094,0 0.2266,0.0078 0.1172,0.0078 0.2734,0.0391 l 0,1.0156 z m 4.4532,-2.9219 6.7812,0 0,0.9063 -2.8438,0 0,7.1093 -1.0937,0 0,-7.1093 -2.8437,0 0,-0.9063 z m 13.2187,4.7656 0,0.4844 -4.5469,0 q 0.0625,1.0156 0.6094,1.5469 0.5469,0.5312 1.5312,0.5312 0.5782,0 1.1094,-0.1406 0.5313,-0.1406 1.0625,-0.4062 l 0,0.9218 q -0.5312,0.2344 -1.0937,0.3516 -0.5625,0.1172 -1.125,0.1172 -1.4532,0 -2.2891,-0.8359 -0.8359,-0.836 -0.8359,-2.2735 0,-1.4687 0.7968,-2.3359 0.7969,-0.8672 2.1563,-0.8672 1.2031,0 1.9141,0.7812 0.7109,0.7813 0.7109,2.125 z m -1,-0.2968 q 0,-0.8125 -0.4453,-1.2969 -0.4453,-0.4844 -1.1797,-0.4844 -0.8281,0 -1.3203,0.4688 -0.4922,0.4687 -0.5703,1.3125 l 3.5156,0 z m 7.5313,-1.3125 q 0.375,-0.6719 0.8906,-0.9844 0.5156,-0.3125 1.2187,-0.3125 0.9375,0 1.4453,0.6562 0.5078,0.6563 0.5078,1.875 l 0,3.625 -1,0 0,-3.5937 q 0,-0.875 -0.3046,-1.2891 -0.3047,-0.414 -0.9297,-0.414 -0.7657,0 -1.211,0.5078 -0.4453,0.5078 -0.4453,1.3828 l 0,3.4062 -1,0 0,-3.5937 q 0,-0.875 -0.3047,-1.2891 -0.3047,-0.414 -0.9453,-0.414 -0.75,0 -1.1953,0.5078 Q 156,22.9292 156,23.8042 l 0,3.4062 -1,0 0,-6.0156 1,0 0,0.9375 q 0.3281,-0.5625 0.8047,-0.8203 0.4765,-0.2578 1.1172,-0.2578 0.6562,0 1.1172,0.3281 0.4609,0.3281 0.6797,0.9688 z m 7.2812,3.9531 0,3.1875 -1,0 0,-8.2969 1,0 0,0.9063 q 0.2969,-0.5313 0.7734,-0.7891 0.4766,-0.2578 1.1485,-0.2578 1.0937,0 1.7734,0.8672 0.6797,0.8672 0.6797,2.289 0,1.4219 -0.6797,2.2891 -0.6797,0.8672 -1.7734,0.8672 -0.6719,0 -1.1485,-0.2578 Q 167.2969,26.8511 167,26.3042 z m 3.3594,-2.0938 q 0,-1.0937 -0.4532,-1.7109 -0.4531,-0.6172 -1.2343,-0.6172 -0.7813,0 -1.2266,0.6172 Q 167,23.1167 167,24.2104 q 0,1.0938 0.4453,1.711 0.4453,0.6172 1.2266,0.6172 0.7812,0 1.2343,-0.6172 0.4532,-0.6172 0.4532,-1.711 z m 2.6718,-5.3593 1,0 0,8.3593 -1,0 0,-8.3593 z m 5.7344,5.3281 q -1.1875,0 -1.6484,0.2812 -0.461,0.2813 -0.461,0.9375 0,0.5157 0.3438,0.8282 0.3438,0.3125 0.9375,0.3125 0.8281,0 1.3203,-0.586 0.4922,-0.5859 0.4922,-1.539 l 0,-0.2344 -0.9844,0 z m 1.9688,-0.4063 0,3.4375 -0.9844,0 0,-0.9062 q -0.3281,0.5469 -0.8359,0.8047 -0.5079,0.2578 -1.2422,0.2578 -0.9219,0 -1.4688,-0.5156 -0.5469,-0.5157 -0.5469,-1.3907 0,-1.0156 0.6797,-1.5312 0.6797,-0.5156 2.0391,-0.5156 l 1.375,0 0,-0.0938 q 0,-0.6875 -0.4453,-1.0625 -0.4453,-0.375 -1.2578,-0.375 -0.5157,0 -1.0078,0.125 -0.4922,0.125 -0.9453,0.375 l 0,-0.9062 q 0.5468,-0.2188 1.0624,-0.3203 0.5157,-0.1016 0.9844,-0.1016 1.3125,0 1.9532,0.6719 0.6406,0.6718 0.6406,2.0468 z m 3.2812,-4.2812 0,1.7031 2.0313,0 0,0.7656 -2.0313,0 0,3.2657 q 0,0.7343 0.2032,0.9453 0.2031,0.2109 0.8124,0.2109 l 1.0157,0 0,0.8281 -1.0157,0 q -1.1406,0 -1.5781,-0.4296 -0.4375,-0.4297 -0.4375,-1.5547 l 0,-3.2657 -0.7187,0 0,-0.7656 0.7187,0 0,-1.7031 1,0 z m 8.1719,4.4687 0,0.4844 -4.5469,0 q 0.0625,1.0156 0.6094,1.5469 0.5469,0.5312 1.5312,0.5312 0.5782,0 1.1094,-0.1406 0.5313,-0.1406 1.0625,-0.4062 l 0,0.9218 q -0.5312,0.2344 -1.0937,0.3516 -0.5625,0.1172 -1.125,0.1172 -1.4532,0 -2.2891,-0.8359 -0.8359,-0.836 -0.8359,-2.2735 0,-1.4687 0.7968,-2.3359 0.7969,-0.8672 2.1563,-0.8672 1.2031,0 1.9141,0.7812 0.7109,0.7813 0.7109,2.125 z m -1,-0.2968 q 0,-0.8125 -0.4453,-1.2969 -0.4453,-0.4844 -1.1797,-0.4844 -0.8281,0 -1.3203,0.4688 -0.4922,0.4687 -0.5703,1.3125 l 3.5156,0 z m 6.6875,-2.2969 0,0.9375 q -0.4219,-0.2188 -0.875,-0.3203 -0.4531,-0.1016 -0.9375,-0.1016 -0.7344,0 -1.1016,0.2266 -0.3671,0.2265 -0.3671,0.664 0,0.3438 0.2656,0.5391 0.2656,0.1953 1.0625,0.3828 l 0.3281,0.0781 q 1.0625,0.2188 1.5,0.6329 0.4375,0.414 0.4375,1.1484 0,0.8281 -0.6563,1.3203 -0.6562,0.4922 -1.8281,0.4922 -0.4843,0 -1.0078,-0.0938 -0.5234,-0.0937 -1.1015,-0.2812 l 0,-1.0156 q 0.5468,0.2812 1.0781,0.4218 0.5312,0.1407 1.0625,0.1407 0.6875,0 1.0625,-0.2422 0.375,-0.2422 0.375,-0.6641 0,-0.4062 -0.2657,-0.625 -0.2656,-0.2187 -1.1874,-0.4062 l -0.3438,-0.0938 q -0.9219,-0.1875 -1.3281,-0.5859 -0.4063,-0.3985 -0.4063,-1.1016 0,-0.8437 0.6016,-1.3047 0.6016,-0.4609 1.7109,-0.4609 0.5469,0 1.0313,0.0781 0.4844,0.0781 0.8906,0.2344 z M 209,24.1323 q 0,-1.0781 -0.4453,-1.664 -0.4453,-0.586 -1.2422,-0.586 -0.7969,0 -1.2422,0.586 -0.4453,0.5859 -0.4453,1.664 0,1.0625 0.4453,1.6563 0.4453,0.5937 1.2422,0.5937 0.7969,0 1.2422,-0.5937 Q 209,25.1948 209,24.1323 z m 0.9844,2.3281 q 0,1.5469 -0.6797,2.2891 -0.6797,0.7422 -2.0859,0.7422 -0.5313,0 -0.9922,-0.0781 -0.461,-0.0782 -0.8985,-0.2344 l 0,-0.9531 q 0.4375,0.2343 0.8594,0.3437 0.4219,0.1094 0.875,0.1094 0.9687,0 1.4531,-0.5078 Q 209,27.6636 209,26.6479 l 0,-0.5 q -0.3125,0.5313 -0.7891,0.7969 -0.4765,0.2656 -1.1484,0.2656 -1.1094,0 -1.7813,-0.8437 -0.6718,-0.8438 -0.6718,-2.2344 0,-1.3906 0.6718,-2.2344 0.6719,-0.8437 1.7813,-0.8437 0.6719,0 1.1484,0.2578 0.4766,0.2578 0.7891,0.7891 l 0,-0.9063 0.9844,0 0,5.2656 z m 7.2031,-2.5 0,0.4844 -4.5469,0 q 0.0625,1.0156 0.6094,1.5469 0.5469,0.5312 1.5312,0.5312 0.5782,0 1.1094,-0.1406 0.5313,-0.1406 1.0625,-0.4062 l 0,0.9218 q -0.5312,0.2344 -1.0937,0.3516 -0.5625,0.1172 -1.125,0.1172 -1.4532,0 -2.2891,-0.8359 -0.8359,-0.836 -0.8359,-2.2735 0,-1.4687 0.7968,-2.3359 0.7969,-0.8672 2.1563,-0.8672 1.2031,0 1.9141,0.7812 0.7109,0.7813 0.7109,2.125 z m -1,-0.2968 q 0,-0.8125 -0.4453,-1.2969 -0.4453,-0.4844 -1.1797,-0.4844 -0.8281,0 -1.3203,0.4688 -0.4922,0.4687 -0.5703,1.3125 l 3.5156,0 z m 7.8437,-0.0782 0,3.625 -0.9843,0 0,-3.5937 q 0,-0.8594 -0.3281,-1.2813 -0.3282,-0.4218 -1,-0.4218 -0.7969,0 -1.2579,0.5078 Q 220,22.9292 220,23.8042 l 0,3.4062 -1,0 0,-6.0156 1,0 0,0.9375 q 0.3438,-0.5469 0.8281,-0.8125 0.4844,-0.2656 1.1094,-0.2656 1.0313,0 1.5625,0.6406 0.5312,0.6406 0.5312,1.8906 z m 7.1563,0.375 0,0.4844 -4.5469,0 q 0.0625,1.0156 0.6094,1.5469 0.5469,0.5312 1.5312,0.5312 0.5782,0 1.1094,-0.1406 0.5313,-0.1406 1.0625,-0.4062 l 0,0.9218 q -0.5312,0.2344 -1.0937,0.3516 -0.5625,0.1172 -1.125,0.1172 -1.4532,0 -2.2891,-0.8359 -0.8359,-0.836 -0.8359,-2.2735 0,-1.4687 0.7968,-2.3359 0.7969,-0.8672 2.1563,-0.8672 1.2031,0 1.9141,0.7812 0.7109,0.7813 0.7109,2.125 z m -1,-0.2968 q 0,-0.8125 -0.4453,-1.2969 -0.4453,-0.4844 -1.1797,-0.4844 -0.8281,0 -1.3203,0.4688 -0.4922,0.4687 -0.5703,1.3125 l 3.5156,0 z m 6.3281,-1.5469 q -0.1562,-0.0938 -0.3515,-0.1406 -0.1953,-0.0469 -0.4297,-0.0469 -0.8438,0 -1.2891,0.5469 Q 234,23.0229 234,24.0386 l 0,3.1718 -1,0 0,-6.0156 1,0 0,0.9375 q 0.2969,-0.5469 0.7969,-0.8125 0.5,-0.2656 1.2187,-0.2656 0.1094,0 0.2266,0.0078 0.1172,0.0078 0.2734,0.0391 l 0,1.0156 z m 1.5156,-0.9219 1,0 0,6.0156 -1,0 0,-6.0156 z m 0,-2.3437 1,0 0,1.25 -1,0 0,-1.25 z m 8.1563,5.1093 0,0.4844 -4.5469,0 q 0.0625,1.0156 0.6094,1.5469 0.5469,0.5312 1.5312,0.5312 0.5782,0 1.1094,-0.1406 0.5313,-0.1406 1.0625,-0.4062 l 0,0.9218 q -0.5312,0.2344 -1.0937,0.3516 -0.5625,0.1172 -1.125,0.1172 -1.4532,0 -2.2891,-0.8359 -0.8359,-0.836 -0.8359,-2.2735 0,-1.4687 0.7968,-2.3359 0.7969,-0.8672 2.1563,-0.8672 1.2031,0 1.9141,0.7812 0.7109,0.7813 0.7109,2.125 z m -1,-0.2968 q 0,-0.8125 -0.4453,-1.2969 -0.4453,-0.4844 -1.1797,-0.4844 -0.8281,0 -1.3203,0.4688 -0.4922,0.4687 -0.5703,1.3125 l 3.5156,0 z m 6.3281,-1.5469 q -0.1562,-0.0938 -0.3515,-0.1406 -0.1953,-0.0469 -0.4297,-0.0469 -0.8438,0 -1.2891,0.5469 Q 249,23.0229 249,24.0386 l 0,3.1718 -1,0 0,-6.0156 1,0 0,0.9375 q 0.2969,-0.5469 0.7969,-0.8125 0.5,-0.2656 1.2187,-0.2656 0.1094,0 0.2266,0.0078 0.1172,0.0078 0.2734,0.0391 l 0,1.0156 z m 2.5,-2.625 0,1.7031 2.0313,0 0,0.7656 -2.0313,0 0,3.2657 q 0,0.7343 0.2032,0.9453 0.2031,0.2109 0.8124,0.2109 l 1.0157,0 0,0.8281 -1.0157,0 q -1.1406,0 -1.5781,-0.4296 -0.4375,-0.4297 -0.4375,-1.5547 l 0,-3.2657 -0.7187,0 0,-0.7656 0.7187,0 0,-1.7031 1,0 z m 8.1719,4.4687 0,0.4844 -4.5469,0 q 0.0625,1.0156 0.6094,1.5469 0.5469,0.5312 1.5312,0.5312 0.5782,0 1.1094,-0.1406 0.5313,-0.1406 1.0625,-0.4062 l 0,0.9218 q -0.5312,0.2344 -1.0937,0.3516 -0.5625,0.1172 -1.125,0.1172 -1.4532,0 -2.2891,-0.8359 -0.8359,-0.836 -0.8359,-2.2735 0,-1.4687 0.7968,-2.3359 0.7969,-0.8672 2.1563,-0.8672 1.2031,0 1.9141,0.7812 0.7109,0.7813 0.7109,2.125 z m -1,-0.2968 q 0,-0.8125 -0.4453,-1.2969 -0.4453,-0.4844 -1.1797,-0.4844 -0.8281,0 -1.3203,0.4688 -0.4922,0.4687 -0.5703,1.3125 l 3.5156,0 z m 6.8906,-4.4688 1.0938,0 0,3.3906 3.5937,-3.3906 1.3906,0 -3.9687,3.7344 4.25,4.2812 -1.4219,0 -3.8437,-3.8593 0,3.8593 -1.0938,0 0,-8.0156 z m 6.9531,-0.3437 1,0 0,8.3593 -1,0 0,-8.3593 z m 5.7344,5.3281 q -1.1875,0 -1.6484,0.2812 -0.461,0.2813 -0.461,0.9375 0,0.5157 0.3438,0.8282 0.3438,0.3125 0.9375,0.3125 0.8281,0 1.3203,-0.586 0.4922,-0.5859 0.4922,-1.539 l 0,-0.2344 -0.9844,0 z m 1.9688,-0.4063 0,3.4375 -0.9844,0 0,-0.9062 q -0.3281,0.5469 -0.8359,0.8047 -0.5079,0.2578 -1.2422,0.2578 -0.9219,0 -1.4688,-0.5156 -0.5469,-0.5157 -0.5469,-1.3907 0,-1.0156 0.6797,-1.5312 0.6797,-0.5156 2.0391,-0.5156 l 1.375,0 0,-0.0938 q 0,-0.6875 -0.4453,-1.0625 -0.4453,-0.375 -1.2578,-0.375 -0.5157,0 -1.0078,0.125 -0.4922,0.125 -0.9453,0.375 l 0,-0.9062 q 0.5468,-0.2188 1.0624,-0.3203 0.5157,-0.1016 0.9844,-0.1016 1.3125,0 1.9532,0.6719 0.6406,0.6718 0.6406,2.0468 z m 6.1406,-2.4062 0,0.9375 q -0.4219,-0.2188 -0.875,-0.3203 -0.4531,-0.1016 -0.9375,-0.1016 -0.7344,0 -1.1016,0.2266 -0.3671,0.2265 -0.3671,0.664 0,0.3438 0.2656,0.5391 0.2656,0.1953 1.0625,0.3828 l 0.3281,0.0781 q 1.0625,0.2188 1.5,0.6329 0.4375,0.414 0.4375,1.1484 0,0.8281 -0.6563,1.3203 -0.6562,0.4922 -1.8281,0.4922 -0.4843,0 -1.0078,-0.0938 -0.5234,-0.0937 -1.1015,-0.2812 l 0,-1.0156 q 0.5468,0.2812 1.0781,0.4218 0.5312,0.1407 1.0625,0.1407 0.6875,0 1.0625,-0.2422 0.375,-0.2422 0.375,-0.6641 0,-0.4062 -0.2657,-0.625 -0.2656,-0.2187 -1.1874,-0.4062 l -0.3438,-0.0938 q -0.9219,-0.1875 -1.3281,-0.5859 -0.4063,-0.3985 -0.4063,-1.1016 0,-0.8437 0.6016,-1.3047 0.6016,-0.4609 1.7109,-0.4609 0.5469,0 1.0313,0.0781 0.4844,0.0781 0.8906,0.2344 z m 7,0 0,0.9375 q -0.4219,-0.2188 -0.875,-0.3203 -0.4531,-0.1016 -0.9375,-0.1016 -0.7344,0 -1.1016,0.2266 -0.3671,0.2265 -0.3671,0.664 0,0.3438 0.2656,0.5391 0.2656,0.1953 1.0625,0.3828 l 0.3281,0.0781 q 1.0625,0.2188 1.5,0.6329 0.4375,0.414 0.4375,1.1484 0,0.8281 -0.6563,1.3203 -0.6562,0.4922 -1.8281,0.4922 -0.4843,0 -1.0078,-0.0938 -0.5234,-0.0937 -1.1015,-0.2812 l 0,-1.0156 q 0.5468,0.2812 1.0781,0.4218 0.5312,0.1407 1.0625,0.1407 0.6875,0 1.0625,-0.2422 0.375,-0.2422 0.375,-0.6641 0,-0.4062 -0.2657,-0.625 -0.2656,-0.2187 -1.1874,-0.4062 l -0.3438,-0.0938 q -0.9219,-0.1875 -1.3281,-0.5859 -0.4063,-0.3985 -0.4063,-1.1016 0,-0.8437 0.6016,-1.3047 0.6016,-0.4609 1.7109,-0.4609 0.5469,0 1.0313,0.0781 0.4844,0.0781 0.8906,0.2344 z m 8.3125,2.5937 0,0.4844 -4.5469,0 q 0.0625,1.0156 0.6094,1.5469 0.5469,0.5312 1.5312,0.5312 0.5782,0 1.1094,-0.1406 0.5313,-0.1406 1.0625,-0.4062 l 0,0.9218 q -0.5312,0.2344 -1.0937,0.3516 -0.5625,0.1172 -1.125,0.1172 -1.4532,0 -2.2891,-0.8359 -0.8359,-0.836 -0.8359,-2.2735 0,-1.4687 0.7968,-2.3359 0.7969,-0.8672 2.1563,-0.8672 1.2031,0 1.9141,0.7812 0.7109,0.7813 0.7109,2.125 z m -1,-0.2968 q 0,-0.8125 -0.4453,-1.2969 -0.4453,-0.4844 -1.1797,-0.4844 -0.8281,0 -1.3203,0.4688 -0.4922,0.4687 -0.5703,1.3125 l 3.5156,0 z m 7.8437,-0.0782 0,3.625 -0.9843,0 0,-3.5937 q 0,-0.8594 -0.3281,-1.2813 -0.3282,-0.4218 -1,-0.4218 -0.7969,0 -1.2579,0.5078 Q 307,22.9292 307,23.8042 l 0,3.4062 -1,0 0,-6.0156 1,0 0,0.9375 q 0.3438,-0.5469 0.8281,-0.8125 0.4844,-0.2656 1.1094,-0.2656 1.0313,0 1.5625,0.6406 0.5312,0.6406 0.5312,1.8906 z" />
    <path
       style="stroke:none"
       inkscape:connector-curvature="0"
       id="path135"
       clip-path="url(#clipPath2)"
       d="m 3.4688,35.1948 0.9843,0 1.2344,4.6875 1.2344,-4.6875 1.1562,0 1.2344,4.6875 1.2344,-4.6875 0.9843,0 -1.5624,6.0156 -1.1719,0 -1.2969,-4.9375 -1.2969,4.9375 -1.1719,0 -1.5624,-6.0156 z m 14.7187,2.7656 0,0.4844 -4.5469,0 q 0.0625,1.0156 0.6094,1.5469 0.5469,0.5312 1.5312,0.5312 0.5782,0 1.1094,-0.1406 0.5313,-0.1406 1.0625,-0.4062 l 0,0.9218 q -0.5312,0.2344 -1.0937,0.3516 -0.5625,0.1172 -1.125,0.1172 -1.4532,0 -2.2891,-0.8359 -0.8359,-0.836 -0.8359,-2.2735 0,-1.4687 0.7968,-2.3359 0.7969,-0.8672 2.1563,-0.8672 1.2031,0 1.9141,0.7812 0.7109,0.7813 0.7109,2.125 z m -1,-0.2968 q 0,-0.8125 -0.4453,-1.2969 -0.4453,-0.4844 -1.1797,-0.4844 -0.8281,0 -1.3203,0.4688 -0.4922,0.4687 -0.5703,1.3125 l 3.5156,0 z m 2.8437,-2.4688 1,0 0,6.0156 -1,0 0,-6.0156 z m 0,-2.3437 1,0 0,1.25 -1,0 0,-1.25 z M 23,35.1011 q 0,-1.0782 0.6406,-1.6641 0.6406,-0.5859 1.8125,-0.5859 1.125,0 1.711,0.625 0.5859,0.625 0.6015,1.8281 -0.8125,0.0469 -1.2656,0.3516 -0.4531,0.3046 -0.4531,0.8203 0,0.25 0.1562,0.4687 0.1563,0.2188 0.5,0.4531 l 0.3125,0.1875 q 0.8906,0.5782 1.1485,0.961 0.2578,0.3828 0.2578,0.914 0,0.9219 -0.6016,1.4141 -0.6015,0.4922 -1.7422,0.4922 -0.3437,0 -0.7031,-0.0703 -0.3594,-0.0703 -0.7656,-0.1953 l 0,-0.875 q 0.4375,0.1562 0.8125,0.2343 0.375,0.0782 0.7187,0.0782 0.625,0 0.9532,-0.2578 0.3281,-0.2579 0.3281,-0.7422 0,-0.3438 -0.1641,-0.5625 -0.164,-0.2188 -0.6953,-0.5625 l -0.5,-0.2969 q -0.5156,-0.3125 -0.75,-0.6719 -0.2344,-0.3594 -0.2344,-0.8594 0,-0.6718 0.4453,-1.1328 0.4454,-0.4609 1.2578,-0.6172 -0.0312,-0.5625 -0.3828,-0.8593 -0.3515,-0.2969 -0.9609,-0.2969 -0.7031,0 -1.0703,0.3672 Q 24,34.4136 24,35.1323 l 0,6.0781 -1,0 0,-6.1093 z m 14.5312,2.6562 2.9063,0 0,0.875 -2.9063,0 0,-0.875 z m 7.4376,-4.5625 6.7812,0 0,0.9063 -2.8438,0 0,7.1093 -1.0937,0 0,-7.1093 -2.8437,0 0,-0.9063 z m 10.5781,8.5781 q -0.4219,1.0782 -0.8203,1.3985 -0.3985,0.3203 -1.0704,0.3203 l -0.7812,0 0,-0.8125 0.5781,0 q 0.4063,0 0.6328,-0.1953 0.2266,-0.1953 0.4922,-0.9141 l 0.1875,-0.4531 -2.4375,-5.9219 1.0469,0 1.875,4.7031 1.8906,-4.7031 1.0469,0 -2.6406,6.5781 z M 60,40.3042 l 0,3.1875 -1,0 0,-8.2969 1,0 0,0.9063 q 0.2969,-0.5313 0.7734,-0.7891 0.4766,-0.2578 1.1485,-0.2578 1.0937,0 1.7734,0.8672 0.6797,0.8672 0.6797,2.289 0,1.4219 -0.6797,2.2891 -0.6797,0.8672 -1.7734,0.8672 -0.6719,0 -1.1485,-0.2578 Q 60.2969,40.8511 60,40.3042 z m 3.3594,-2.0938 q 0,-1.0937 -0.4532,-1.7109 -0.4531,-0.6172 -1.2343,-0.6172 -0.7813,0 -1.2266,0.6172 Q 60,37.1167 60,38.2104 q 0,1.0938 0.4453,1.711 0.4453,0.6172 1.2266,0.6172 0.7812,0 1.2343,-0.6172 0.4532,-0.6172 0.4532,-1.711 z M 70,36.1011 l 0,-3.25 0.9844,0 0,8.3593 -0.9844,0 0,-0.9062 q -0.3125,0.5469 -0.7891,0.8047 -0.4765,0.2578 -1.1484,0.2578 -1.0781,0 -1.7656,-0.8672 -0.6875,-0.8672 -0.6875,-2.2891 0,-1.4218 0.6875,-2.289 0.6875,-0.8672 1.7656,-0.8672 0.6719,0 1.1484,0.2578 0.4766,0.2578 0.7891,0.7891 z m -3.375,2.1093 q 0,1.0938 0.4531,1.711 0.4531,0.6172 1.2344,0.6172 0.7813,0 1.2344,-0.6172 Q 70,39.3042 70,38.2104 q 0,-1.0937 -0.4531,-1.7109 -0.4531,-0.6172 -1.2344,-0.6172 -0.7813,0 -1.2344,0.6172 -0.4531,0.6172 -0.4531,1.7109 z m 11.5625,-0.25 0,0.4844 -4.5469,0 q 0.0625,1.0156 0.6094,1.5469 0.5469,0.5312 1.5312,0.5312 0.5782,0 1.1094,-0.1406 0.5313,-0.1406 1.0625,-0.4062 l 0,0.9218 q -0.5312,0.2344 -1.0937,0.3516 -0.5625,0.1172 -1.125,0.1172 -1.4532,0 -2.2891,-0.8359 -0.8359,-0.836 -0.8359,-2.2735 0,-1.4687 0.7968,-2.3359 0.7969,-0.8672 2.1563,-0.8672 1.2031,0 1.9141,0.7812 0.7109,0.7813 0.7109,2.125 z m -1,-0.2968 q 0,-0.8125 -0.4453,-1.2969 -0.4453,-0.4844 -1.1797,-0.4844 -0.8281,0 -1.3203,0.4688 -0.4922,0.4687 -0.5703,1.3125 l 3.5156,0 z m 5.8906,-4.8125 0,0.8281 -0.9375,0 q -0.5312,0 -0.7422,0.2109 -0.2109,0.211 -0.2109,0.7735 l 0,0.5312 1.625,0 0,0.7656 -1.625,0 0,5.25 -0.9844,0 0,-5.25 -0.9531,0 0,-0.7656 0.9531,0 0,-0.4219 q 0,-1 0.461,-1.4609 0.4609,-0.4609 1.4765,-0.4609 l 0.9375,0 z m 0.9531,2.3437 1,0 0,6.0156 -1,0 0,-6.0156 z m 0,-2.3437 1,0 0,1.25 -1,0 0,-1.25 z m 8,4.7343 0,3.625 -0.9843,0 0,-3.5937 q 0,-0.8594 -0.3281,-1.2813 -0.3282,-0.4218 -1,-0.4218 -0.7969,0 -1.2579,0.5078 Q 88,36.9292 88,37.8042 l 0,3.4062 -1,0 0,-6.0156 1,0 0,0.9375 q 0.3438,-0.5469 0.8281,-0.8125 0.4844,-0.2656 1.1094,-0.2656 1.0313,0 1.5625,0.6406 0.5312,0.6406 0.5312,1.8906 z m 2,-2.3906 1,0 0,6.0156 -1,0 0,-6.0156 z m 0,-2.3437 1,0 0,1.25 -1,0 0,-1.25 z m 3.9844,0.6406 0,1.7031 2.0313,0 0,0.7656 -2.0313,0 0,3.2657 q 0,0.7343 0.2032,0.9453 0.2031,0.2109 0.8124,0.2109 l 1.0157,0 0,0.8281 -1.0157,0 q -1.1406,0 -1.5781,-0.4296 -0.4375,-0.4297 -0.4375,-1.5547 l 0,-3.2657 -0.7187,0 0,-0.7656 0.7187,0 0,-1.7031 1,0 z m 3.0156,1.7031 1,0 0,6.0156 -1,0 0,-6.0156 z m 0,-2.3437 1,0 0,1.25 -1,0 0,-1.25 z m 5.3438,3.0312 q -0.7969,0 -1.2578,0.625 -0.461,0.625 -0.461,1.7031 0,1.0782 0.4532,1.6954 0.4531,0.6171 1.2656,0.6171 0.7812,0 1.2422,-0.6171 0.4609,-0.6172 0.4609,-1.6954 0,-1.0781 -0.4609,-1.7031 -0.461,-0.625 -1.2422,-0.625 z m 0,-0.8281 q 1.2812,0 2.0156,0.8359 0.7344,0.836 0.7344,2.3203 0,1.4688 -0.7344,2.3125 -0.7344,0.8438 -2.0156,0.8438 -1.2969,0 -2.0312,-0.8438 -0.7344,-0.8437 -0.7344,-2.3125 0,-1.4843 0.7344,-2.3203 0.7343,-0.8359 2.0312,-0.8359 z m 9.6562,2.5312 0,3.625 -0.9843,0 0,-3.5937 q 0,-0.8594 -0.3281,-1.2813 -0.3282,-0.4218 -1,-0.4218 -0.7969,0 -1.2579,0.5078 Q 112,36.9292 112,37.8042 l 0,3.4062 -1,0 0,-6.0156 1,0 0,0.9375 q 0.3438,-0.5469 0.8281,-0.8125 0.4844,-0.2656 1.1094,-0.2656 1.0313,0 1.5625,0.6406 0.5312,0.6406 0.5312,1.8906 z m 7.1563,0.375 0,0.4844 -4.5469,0 q 0.0625,1.0156 0.6094,1.5469 0.5469,0.5312 1.5312,0.5312 0.5782,0 1.1094,-0.1406 0.5313,-0.1406 1.0625,-0.4062 l 0,0.9218 q -0.5312,0.2344 -1.0937,0.3516 -0.5625,0.1172 -1.125,0.1172 -1.4532,0 -2.2891,-0.8359 -0.8359,-0.836 -0.8359,-2.2735 0,-1.4687 0.7968,-2.3359 0.7969,-0.8672 2.1563,-0.8672 1.2031,0 1.9141,0.7812 0.7109,0.7813 0.7109,2.125 z m -1,-0.2968 q 0,-0.8125 -0.4453,-1.2969 -0.4453,-0.4844 -1.1797,-0.4844 -0.8281,0 -1.3203,0.4688 -0.4922,0.4687 -0.5703,1.3125 l 3.5156,0 z m 7.8437,-0.0782 0,3.625 -0.9843,0 0,-3.5937 q 0,-0.8594 -0.3281,-1.2813 -0.3282,-0.4218 -1,-0.4218 -0.7969,0 -1.2579,0.5078 Q 126,36.9292 126,37.8042 l 0,3.4062 -1,0 0,-6.0156 1,0 0,0.9375 q 0.3438,-0.5469 0.8281,-0.8125 0.4844,-0.2656 1.1094,-0.2656 1.0313,0 1.5625,0.6406 0.5312,0.6406 0.5312,1.8906 z" />
    <path
       style="stroke:none"
       inkscape:connector-curvature="0"
       id="path137"
       clip-path="url(#clipPath2)"
       d="m 6.375,49.8823 q -0.7969,0 -1.2578,0.625 -0.461,0.625 -0.461,1.7031 0,1.0782 0.4532,1.6954 0.4531,0.6171 1.2656,0.6171 0.7812,0 1.2422,-0.6171 0.4609,-0.6172 0.4609,-1.6954 0,-1.0781 -0.4609,-1.7031 -0.461,-0.625 -1.2422,-0.625 z m 0,-0.8281 q 1.2812,0 2.0156,0.8359 0.7344,0.836 0.7344,2.3203 0,1.4688 -0.7344,2.3125 -0.7344,0.8438 -2.0156,0.8438 -1.2969,0 -2.0312,-0.8438 -0.7344,-0.8437 -0.7344,-2.3125 0,-1.4843 0.7344,-2.3203 0.7343,-0.8359 2.0312,-0.8359 z m 8.1406,1.0625 q -0.1562,-0.0938 -0.3515,-0.1406 -0.1953,-0.0469 -0.4297,-0.0469 -0.8438,0 -1.2891,0.5469 Q 12,51.0229 12,52.0386 l 0,3.1718 -1,0 0,-6.0156 1,0 0,0.9375 q 0.2969,-0.5469 0.7969,-0.8125 0.5,-0.2656 1.2187,-0.2656 0.1094,0 0.2266,0.0078 0.1172,0.0078 0.2734,0.0391 l 0,1.0156 z m 4.25,2.0625 q -1.1875,0 -1.6484,0.2812 -0.461,0.2813 -0.461,0.9375 0,0.5157 0.3438,0.8282 0.3438,0.3125 0.9375,0.3125 0.8281,0 1.3203,-0.586 0.4922,-0.5859 0.4922,-1.539 l 0,-0.2344 -0.9844,0 z m 1.9688,-0.4063 0,3.4375 -0.9844,0 0,-0.9062 q -0.3281,0.5469 -0.8359,0.8047 -0.5079,0.2578 -1.2422,0.2578 -0.9219,0 -1.4688,-0.5156 -0.5469,-0.5157 -0.5469,-1.3907 0,-1.0156 0.6797,-1.5312 0.6797,-0.5156 2.0391,-0.5156 l 1.375,0 0,-0.0938 q 0,-0.6875 -0.4453,-1.0625 -0.4453,-0.375 -1.2578,-0.375 -0.5157,0 -1.0078,0.125 -0.4922,0.125 -0.9453,0.375 l 0,-0.9062 q 0.5468,-0.2188 1.0624,-0.3203 0.5157,-0.1016 0.9844,-0.1016 1.3125,0 1.9532,0.6719 0.6406,0.6718 0.6406,2.0468 z m 7.2968,-0.1875 0,3.625 -0.9843,0 0,-3.5937 q 0,-0.8594 -0.3281,-1.2813 -0.3282,-0.4218 -1,-0.4218 -0.7969,0 -1.2579,0.5078 Q 24,50.9292 24,51.8042 l 0,3.4062 -1,0 0,-6.0156 1,0 0,0.9375 q 0.3438,-0.5469 0.8281,-0.8125 0.4844,-0.2656 1.1094,-0.2656 1.0313,0 1.5625,0.6406 0.5312,0.6406 0.5312,1.8906 z M 34,52.1323 q 0,-1.0781 -0.4453,-1.664 -0.4453,-0.586 -1.2422,-0.586 -0.7969,0 -1.2422,0.586 -0.4453,0.5859 -0.4453,1.664 0,1.0625 0.4453,1.6563 0.4453,0.5937 1.2422,0.5937 0.7969,0 1.2422,-0.5937 Q 34,53.1948 34,52.1323 z m 0.9844,2.3281 q 0,1.5469 -0.6797,2.2891 -0.6797,0.7422 -2.0859,0.7422 -0.5313,0 -0.9922,-0.0781 -0.461,-0.0782 -0.8985,-0.2344 l 0,-0.9531 q 0.4375,0.2343 0.8594,0.3437 0.4219,0.1094 0.875,0.1094 0.9687,0 1.4531,-0.5078 Q 34,55.6636 34,54.6479 l 0,-0.5 q -0.3125,0.5313 -0.7891,0.7969 -0.4765,0.2656 -1.1484,0.2656 -1.1094,0 -1.7813,-0.8437 -0.6718,-0.8438 -0.6718,-2.2344 0,-1.3906 0.6718,-2.2344 0.6719,-0.8437 1.7813,-0.8437 0.6719,0 1.1484,0.2578 0.4766,0.2578 0.7891,0.7891 l 0,-0.9063 0.9844,0 0,5.2656 z m 7.2031,-2.5 0,0.4844 -4.5469,0 q 0.0625,1.0156 0.6094,1.5469 0.5469,0.5312 1.5312,0.5312 0.5782,0 1.1094,-0.1406 0.5313,-0.1406 1.0625,-0.4062 l 0,0.9218 q -0.5312,0.2344 -1.0937,0.3516 -0.5625,0.1172 -1.125,0.1172 -1.4532,0 -2.2891,-0.8359 -0.8359,-0.836 -0.8359,-2.2735 0,-1.4687 0.7968,-2.3359 0.7969,-0.8672 2.1563,-0.8672 1.2031,0 1.9141,0.7812 0.7109,0.7813 0.7109,2.125 z m -1,-0.2968 q 0,-0.8125 -0.4453,-1.2969 -0.4453,-0.4844 -1.1797,-0.4844 -0.8281,0 -1.3203,0.4688 -0.4922,0.4687 -0.5703,1.3125 l 3.5156,0 z m 6.3437,0.0937 2.9063,0 0,0.875 -2.9063,0 0,-0.875 z m 11.2344,0.4219 q -1.1875,0 -1.6484,0.2812 -0.461,0.2813 -0.461,0.9375 0,0.5157 0.3438,0.8282 0.3438,0.3125 0.9375,0.3125 0.8281,0 1.3203,-0.586 0.4922,-0.5859 0.4922,-1.539 l 0,-0.2344 -0.9844,0 z m 1.9688,-0.4063 0,3.4375 -0.9844,0 0,-0.9062 q -0.3281,0.5469 -0.8359,0.8047 -0.5079,0.2578 -1.2422,0.2578 -0.9219,0 -1.4688,-0.5156 -0.5469,-0.5157 -0.5469,-1.3907 0,-1.0156 0.6797,-1.5312 0.6797,-0.5156 2.0391,-0.5156 l 1.375,0 0,-0.0938 q 0,-0.6875 -0.4453,-1.0625 -0.4453,-0.375 -1.2578,-0.375 -0.5157,0 -1.0078,0.125 -0.4922,0.125 -0.9453,0.375 l 0,-0.9062 q 0.5468,-0.2188 1.0624,-0.3203 0.5157,-0.1016 0.9844,-0.1016 1.3125,0 1.9532,0.6719 0.6406,0.6718 0.6406,2.0468 z m 2.2968,-4.9218 1,0 0,8.3593 -1,0 0,-8.3593 z m 3,0 1,0 0,8.3593 -1,0 0,-8.3593 z m 8.1563,5.1093 0,0.4844 -4.5469,0 q 0.0625,1.0156 0.6094,1.5469 0.5469,0.5312 1.5312,0.5312 0.5782,0 1.1094,-0.1406 0.5313,-0.1406 1.0625,-0.4062 l 0,0.9218 q -0.5312,0.2344 -1.0937,0.3516 -0.5625,0.1172 -1.125,0.1172 -1.4532,0 -2.2891,-0.8359 -0.8359,-0.836 -0.8359,-2.2735 0,-1.4687 0.7968,-2.3359 0.7969,-0.8672 2.1563,-0.8672 1.2031,0 1.9141,0.7812 0.7109,0.7813 0.7109,2.125 z m -1,-0.2968 q 0,-0.8125 -0.4453,-1.2969 -0.4453,-0.4844 -1.1797,-0.4844 -0.8281,0 -1.3203,0.4688 -0.4922,0.4687 -0.5703,1.3125 l 3.5156,0 z m 6.6875,-2.2969 0,0.9375 Q 79.4531,50.0854 79,49.9839 q -0.4531,-0.1016 -0.9375,-0.1016 -0.7344,0 -1.1016,0.2266 -0.3671,0.2265 -0.3671,0.664 0,0.3438 0.2656,0.5391 0.2656,0.1953 1.0625,0.3828 l 0.3281,0.0781 q 1.0625,0.2188 1.5,0.6329 0.4375,0.414 0.4375,1.1484 0,0.8281 -0.6563,1.3203 -0.6562,0.4922 -1.8281,0.4922 -0.4843,0 -1.0078,-0.0938 -0.5234,-0.0937 -1.1015,-0.2812 l 0,-1.0156 q 0.5468,0.2812 1.0781,0.4218 0.5312,0.1407 1.0625,0.1407 0.6875,0 1.0625,-0.2422 0.375,-0.2422 0.375,-0.6641 0,-0.4062 -0.2657,-0.625 -0.2656,-0.2187 -1.1874,-0.4062 L 77.375,52.5073 q -0.9219,-0.1875 -1.3281,-0.5859 -0.4063,-0.3985 -0.4063,-1.1016 0,-0.8437 0.6016,-1.3047 0.6016,-0.4609 1.7109,-0.4609 0.5469,0 1.0313,0.0781 0.4844,0.0781 0.8906,0.2344 z m 9.8906,-1.1094 -1.4844,4 2.9532,0 -1.4688,-4 z m -0.625,-1.0625 1.2344,0 3.0625,8.0156 -1.125,0 -0.7344,-2.0625 -3.625,0 -0.7187,2.0625 -1.1406,0 3.0468,-8.0156 z m 9.8906,4.3906 0,3.625 -0.9843,0 0,-3.5937 q 0,-0.8594 -0.3281,-1.2813 -0.3282,-0.4218 -1,-0.4218 -0.7969,0 -1.2579,0.5078 Q 95,50.9292 95,51.8042 l 0,3.4062 -1,0 0,-6.0156 1,0 0,0.9375 q 0.3438,-0.5469 0.8281,-0.8125 0.4844,-0.2656 1.1094,-0.2656 1.0313,0 1.5625,0.6406 0.5312,0.6406 0.5312,1.8906 z M 105,50.1011 l 0,-3.25 0.9844,0 0,8.3593 -0.9844,0 0,-0.9062 q -0.3125,0.5469 -0.7891,0.8047 -0.4765,0.2578 -1.1484,0.2578 -1.0781,0 -1.7656,-0.8672 -0.6875,-0.8672 -0.6875,-2.2891 0,-1.4218 0.6875,-2.289 0.6875,-0.8672 1.7656,-0.8672 0.6719,0 1.1484,0.2578 0.4766,0.2578 0.7891,0.7891 z m -3.375,2.1093 q 0,1.0938 0.4531,1.711 0.4531,0.6172 1.2344,0.6172 0.7813,0 1.2344,-0.6172 Q 105,53.3042 105,52.2104 q 0,-1.0937 -0.4531,-1.7109 -0.4531,-0.6172 -1.2344,-0.6172 -0.7813,0 -1.2344,0.6172 -0.4531,0.6172 -0.4531,1.7109 z m 11.5625,-0.25 0,0.4844 -4.5469,0 q 0.0625,1.0156 0.6094,1.5469 0.5469,0.5312 1.5312,0.5312 0.5782,0 1.1094,-0.1406 0.5313,-0.1406 1.0625,-0.4062 l 0,0.9218 q -0.5312,0.2344 -1.0937,0.3516 -0.5625,0.1172 -1.125,0.1172 -1.4532,0 -2.2891,-0.8359 -0.8359,-0.836 -0.8359,-2.2735 0,-1.4687 0.7968,-2.3359 0.7969,-0.8672 2.1563,-0.8672 1.2031,0 1.9141,0.7812 0.7109,0.7813 0.7109,2.125 z m -1,-0.2968 q 0,-0.8125 -0.4453,-1.2969 -0.4453,-0.4844 -1.1797,-0.4844 -0.8281,0 -1.3203,0.4688 -0.4922,0.4687 -0.5703,1.3125 l 3.5156,0 z m 6.3281,-1.5469 q -0.1562,-0.0938 -0.3515,-0.1406 -0.1953,-0.0469 -0.4297,-0.0469 -0.8438,0 -1.2891,0.5469 Q 116,51.0229 116,52.0386 l 0,3.1718 -1,0 0,-6.0156 1,0 0,0.9375 q 0.2969,-0.5469 0.7969,-0.8125 0.5,-0.2656 1.2187,-0.2656 0.1094,0 0.2266,0.0078 0.1172,0.0078 0.2734,0.0391 l 0,1.0156 z m 6.6719,1.8437 0,0.4844 -4.5469,0 q 0.0625,1.0156 0.6094,1.5469 0.5469,0.5312 1.5312,0.5312 0.5782,0 1.1094,-0.1406 0.5313,-0.1406 1.0625,-0.4062 l 0,0.9218 q -0.5312,0.2344 -1.0937,0.3516 -0.5625,0.1172 -1.125,0.1172 -1.4532,0 -2.2891,-0.8359 -0.8359,-0.836 -0.8359,-2.2735 0,-1.4687 0.7968,-2.3359 0.7969,-0.8672 2.1563,-0.8672 1.2031,0 1.9141,0.7812 0.7109,0.7813 0.7109,2.125 z m -1,-0.2968 q 0,-0.8125 -0.4453,-1.2969 -0.4453,-0.4844 -1.1797,-0.4844 -0.8281,0 -1.3203,0.4688 -0.4922,0.4687 -0.5703,1.3125 l 3.5156,0 z" />
  </g>
  <g
     style="font-size:11px;font-weight:bold;fill:#ffff80;fill-opacity:1;stroke:#ffff80;stroke-opacity:1;font-family:sans-serif"
     id="g139"
     font-weight="bold"
     text-rendering="geometricPrecision"
     transform="translate(22,355)"
     font-size="11">
    <rect
       style="stroke:none"
       id="rect141"
       clip-path="url(#clipPath3)"
       y="0"
       height="60"
       width="160"
       x="0" />
  </g>
  <g
     style="font-size:11px;font-weight:bold;fill:#000000;fill-opacity:1;stroke:#000000;stroke-linecap:butt;stroke-linejoin:round;stroke-miterlimit:0;stroke-opacity:1;font-family:sans-serif"
     id="g143"
     stroke-miterlimit="0"
     font-weight="bold"
     text-rendering="geometricPrecision"
     transform="translate(22,355)"
     font-size="11">
    <rect
       style="fill:none"
       id="rect145"
       clip-path="url(#clipPath3)"
       y="0"
       height="60"
       width="160"
       x="0" />
    <line
       style="fill:none"
       id="line147"
       y1="14"
       x2="160"
       clip-path="url(#clipPath3)"
       x1="0"
       y2="14" />
  </g>
  <g
     style="font-size:11px;font-weight:bold;fill:#000000;fill-opacity:1;stroke:#000000;stroke-opacity:1;font-family:sans-serif"
     id="g149"
     font-weight="bold"
     text-rendering="geometricPrecision"
     transform="translate(22,355)"
     font-size="11">
    <text
       style="stroke:none"
       id="text151"
       clip-path="url(#clipPath5)"
       y="11"
       xml:space="preserve"
       x="21">Ui::BtDeviceDialog</text>
  </g>
  <g
     style="font-size:11px;font-weight:bold;fill:#c0ffc0;fill-opacity:1;stroke:#c0ffc0;stroke-opacity:1;font-family:sans-serif"
     id="g153"
     font-weight="bold"
     text-rendering="geometricPrecision"
     transform="translate(42,125)"
     font-size="11">
    <rect
       style="stroke:none"
       id="rect155"
       clip-path="url(#clipPath6)"
       y="0"
       height="40"
       width="110"
       x="0" />
  </g>
  <g
     style="font-size:11px;font-weight:bold;fill:#000000;fill-opacity:1;stroke:#000000;stroke-linecap:butt;stroke-linejoin:round;stroke-miterlimit:0;stroke-opacity:1;font-family:sans-serif"
     id="g157"
     stroke-miterlimit="0"
     font-weight="bold"
     text-rendering="geometricPrecision"
     transform="translate(42,125)"
     font-size="11">
    <rect
       style="fill:none"
       id="rect159"
       clip-path="url(#clipPath6)"
       y="0"
       height="40"
       width="110"
       x="0" />
  </g>
  <g
     style="font-size:11px;font-weight:bold;fill:#000000;fill-opacity:1;stroke:#000000;stroke-opacity:1;font-family:sans-serif"
     id="g161"
     font-weight="bold"
     text-rendering="geometricPrecision"
     transform="translate(42,125)"
     font-size="11">
    <text
       style="stroke:none"
       id="text163"
       clip-path="url(#clipPath7)"
       y="24"
       xml:space="preserve"
       x="30">QDialog</text>
  </g>
  <g
     style="font-size:11px;font-weight:bold;fill:#ffc080;fill-opacity:1;stroke:#ffc080;stroke-opacity:1;font-family:sans-serif"
     id="g165"
     font-weight="bold"
     text-rendering="geometricPrecision"
     transform="translate(12,235)"
     font-size="11">
    <rect
       style="stroke:none"
       id="rect167"
       clip-path="url(#clipPath8)"
       y="0"
       height="70"
       width="193"
       x="0" />
  </g>
  <g
     style="font-size:11px;font-weight:bold;fill:#000000;fill-opacity:1;stroke:#000000;stroke-linecap:butt;stroke-linejoin:round;stroke-miterlimit:0;stroke-opacity:1;font-family:sans-serif"
     id="g169"
     stroke-miterlimit="0"
     font-weight="bold"
     text-rendering="geometricPrecision"
     transform="translate(12,235)"
     font-size="11">
    <rect
       style="fill:none"
       id="rect171"
       clip-path="url(#clipPath8)"
       y="0"
       height="70"
       width="193"
       x="0" />
    <line
       style="fill:none"
       id="line173"
       y1="14"
       x2="193"
       clip-path="url(#clipPath8)"
       x1="0"
       y2="14" />
  </g>
  <g
     style="font-size:11px;fill:#000000;fill-opacity:1;stroke:#000000;stroke-opacity:1;font-family:sans-serif"
     id="g175"
     text-rendering="geometricPrecision"
     transform="translate(12,249)"
     font-size="11">
    <text
       style="stroke:none"
       id="text177"
       clip-path="url(#clipPath9)"
       y="13"
       xml:space="preserve"
       x="2">+getSelectedDevice()</text>
  </g>
  <g
     style="font-size:11px;fill:#000000;fill-opacity:1;stroke:#000000;stroke-opacity:1;font-family:sans-serif"
     id="g179"
     text-rendering="geometricPrecision"
     transform="translate(12,249)"
     font-size="11">
    <text
       style="stroke:none"
       id="text181"
       clip-path="url(#clipPath9)"
       y="27"
       xml:space="preserve"
       x="2">&lt;&lt;Slot&gt;&gt; -btDiscoveryFinished()</text>
  </g>
  <g
     style="font-size:11px;font-weight:bold;fill:#000000;fill-opacity:1;stroke:#000000;stroke-opacity:1;font-family:sans-serif"
     id="g183"
     font-weight="bold"
     text-rendering="geometricPrecision"
     transform="translate(12,235)"
     font-size="11">
    <text
       style="stroke:none"
       id="text185"
       clip-path="url(#clipPath10)"
       y="11"
       xml:space="preserve"
       x="49">BtDeviceDialog</text>
  </g>
  <g
     style="font-size:11px;font-weight:bold;fill:#ffc080;fill-opacity:1;stroke:#ffc080;stroke-opacity:1;font-family:sans-serif"
     id="g187"
     font-weight="bold"
     text-rendering="geometricPrecision"
     transform="translate(352,255)"
     font-size="11">
    <rect
       style="stroke:none"
       id="rect189"
       clip-path="url(#clipPath11)"
       y="0"
       height="50"
       width="220"
       x="0" />
  </g>
  <g
     style="font-size:11px;font-weight:bold;fill:#000000;fill-opacity:1;stroke:#000000;stroke-linecap:butt;stroke-linejoin:round;stroke-miterlimit:0;stroke-opacity:1;font-family:sans-serif"
     id="g191"
     stroke-miterlimit="0"
     font-weight="bold"
     text-rendering="geometricPrecision"
     transform="translate(352,255)"
     font-size="11">
    <rect
       style="fill:none"
       id="rect193"
       clip-path="url(#clipPath11)"
       y="0"
       height="50"
       width="220"
       x="0" />
    <line
       style="fill:none"
       id="line195"
       y1="14"
       x2="220"
       clip-path="url(#clipPath11)"
       x1="0"
       y2="14" />
  </g>
  <g
     style="font-size:11px;fill:#000000;fill-opacity:1;stroke:#000000;stroke-opacity:1;font-family:sans-serif"
     id="g197"
     text-rendering="geometricPrecision"
     transform="translate(352,269)"
     font-size="11">
    <text
       style="stroke:none"
       id="text199"
       clip-path="url(#clipPath12)"
       y="13"
       xml:space="preserve"
       x="2">&lt;&lt;Signal&gt;&gt; +discoveryFinished()</text>
  </g>
  <g
     style="font-size:11px;font-weight:bold;fill:#000000;fill-opacity:1;stroke:#000000;stroke-opacity:1;font-family:sans-serif"
     id="g201"
     font-weight="bold"
     text-rendering="geometricPrecision"
     transform="translate(352,255)"
     font-size="11">
    <text
       style="stroke:none"
       id="text203"
       clip-path="url(#clipPath13)"
       y="11"
       xml:space="preserve"
       x="48">BlueToothDiscovery</text>
  </g>
  <g
     style="font-size:11px;font-weight:bold;fill:#c0ffc0;fill-opacity:1;stroke:#c0ffc0;stroke-opacity:1;font-family:sans-serif"
     id="g205"
     font-weight="bold"
     text-rendering="geometricPrecision"
     transform="translate(432,125)"
     font-size="11">
    <rect
       style="stroke:none"
       id="rect207"
       clip-path="url(#clipPath14)"
       y="0"
       height="40"
       width="90"
       x="0" />
  </g>
  <g
     style="font-size:11px;font-weight:bold;fill:#000000;fill-opacity:1;stroke:#000000;stroke-linecap:butt;stroke-linejoin:round;stroke-miterlimit:0;stroke-opacity:1;font-family:sans-serif"
     id="g209"
     stroke-miterlimit="0"
     font-weight="bold"
     text-rendering="geometricPrecision"
     transform="translate(432,125)"
     font-size="11">
    <rect
       style="fill:none"
       id="rect211"
       clip-path="url(#clipPath14)"
       y="0"
       height="40"
       width="90"
       x="0" />
  </g>
  <g
     style="font-size:11px;font-weight:bold;fill:#000000;fill-opacity:1;stroke:#000000;stroke-opacity:1;font-family:sans-serif"
     id="g213"
     font-weight="bold"
     text-rendering="geometricPrecision"
     transform="translate(432,125)"
     font-size="11">
    <text
       style="stroke:none"
       id="text215"
       clip-path="url(#clipPath15)"
       y="24"
       xml:space="preserve"
       x="18">QThread</text>
  </g>
  <g
     style="font-size:11px;font-weight:bold;fill:#ffffff;fill-opacity:1;stroke:#ffffff;stroke-opacity:1;font-family:sans-serif"
     id="g217"
     font-weight="bold"
     text-rendering="geometricPrecision"
     transform="translate(242,125)"
     font-size="11">
    <rect
       style="stroke:none"
       id="rect219"
       clip-path="url(#clipPath16)"
       y="0"
       height="70"
       width="120"
       x="0" />
  </g>
  <g
     style="font-size:11px;font-weight:bold;fill:#000000;fill-opacity:1;stroke:#000000;stroke-linecap:butt;stroke-linejoin:round;stroke-miterlimit:0;stroke-opacity:1;font-family:sans-serif"
     id="g221"
     stroke-miterlimit="0"
     font-weight="bold"
     text-rendering="geometricPrecision"
     transform="translate(242,125)"
     font-size="11">
    <rect
       style="fill:none"
       id="rect223"
       clip-path="url(#clipPath16)"
       y="0"
       height="70"
       width="120"
       x="0" />
    <line
       style="fill:none"
       id="line225"
       y1="28"
       x2="120"
       clip-path="url(#clipPath16)"
       x1="0"
       y2="28" />
  </g>
  <g
     style="font-size:11px;fill:#000000;fill-opacity:1;stroke:#000000;stroke-opacity:1;font-family:sans-serif"
     id="g227"
     text-rendering="geometricPrecision"
     transform="translate(242,153)"
     font-size="11">
    <text
       style="stroke:none"
       id="text229"
       clip-path="url(#clipPath17)"
       y="13"
       xml:space="preserve"
       x="2">+name : QString</text>
  </g>
  <g
     style="font-size:11px;fill:#000000;fill-opacity:1;stroke:#000000;stroke-opacity:1;font-family:sans-serif"
     id="g231"
     text-rendering="geometricPrecision"
     transform="translate(242,153)"
     font-size="11">
    <text
       style="stroke:none"
       id="text233"
       clip-path="url(#clipPath17)"
       y="27"
       xml:space="preserve"
       x="2">+mac : QString</text>
  </g>
  <g
     style="font-size:11px;fill:#000000;fill-opacity:1;stroke:#000000;stroke-opacity:1;font-family:sans-serif"
     id="g235"
     text-rendering="geometricPrecision"
     transform="translate(242,125)"
     font-size="11">
    <text
       style="stroke:none"
       id="text237"
       clip-path="url(#clipPath18)"
       y="11"
       xml:space="preserve"
       x="24">&lt;&lt;Struct&gt;&gt;</text>
    <text
       style="font-weight:bold;stroke:none"
       id="text239"
       clip-path="url(#clipPath18)"
       font-weight="bold"
       y="25"
       xml:space="preserve"
       x="31">BtDevice</text>
  </g>
  <g
     style="font-size:11px;fill:#000000;fill-opacity:1;stroke:#000000;stroke-opacity:1;font-family:sans-serif"
     id="g241"
     text-rendering="geometricPrecision"
     transform="translate(232,265)"
     font-size="11">
    <text
       style="stroke:none"
       id="text243"
       clip-path="url(#clipPath20)"
       y="11"
       xml:space="preserve"
       x="9">-discoveryThread</text>
  </g>
  <g
     style="font-size:11px;fill:#000000;fill-opacity:1;stroke:#000000;stroke-opacity:1;font-family:sans-serif"
     id="g245"
     text-rendering="geometricPrecision"
     transform="translate(322,285)"
     font-size="11">
    <text
       style="stroke:none"
       id="text247"
       clip-path="url(#clipPath22)"
       y="11"
       xml:space="preserve"
       x="10">1</text>
  </g>
  <g
     style="font-size:11px;fill:#000000;fill-opacity:1;stroke:#000000;stroke-opacity:1;font-family:sans-serif"
     id="g249"
     text-rendering="geometricPrecision"
     transform="translate(92,325)"
     font-size="11">
    <text
       style="stroke:none"
       id="text251"
       clip-path="url(#clipPath24)"
       y="11"
       xml:space="preserve"
       x="10">-ui</text>
  </g>
  <g
     style="font-size:11px;fill:#000000;fill-opacity:1;stroke:#000000;stroke-opacity:1;font-family:sans-serif"
     id="g253"
     text-rendering="geometricPrecision"
     transform="translate(102,335)"
     font-size="11">
    <text
       style="stroke:none"
       id="text255"
       clip-path="url(#clipPath26)"
       y="11"
       xml:space="preserve"
       x="10">1</text>
  </g>
  <g
     style="font-size:11px;fill:#000000;fill-opacity:1;stroke:#000000;stroke-linecap:butt;stroke-linejoin:round;stroke-opacity:1;font-family:sans-serif"
     id="g257"
     text-rendering="geometricPrecision"
     transform="translate(42,116)"
     font-size="11">
    <line
       style="fill:none"
       id="line259"
       y1="50"
       x2="50"
       clip-path="url(#clipPath27)"
       x1="50"
       y2="118" />
    <polygon
       style="fill:#ffffff;stroke:none"
       id="polygon261"
       points="56,62 50,50 44,62 "
       clip-path="url(#clipPath27)" />
    <polygon
       style="fill:none"
       id="polygon263"
       clip-path="url(#clipPath27)"
       points="56,62 50,50 44,62 " />
  </g>
  <g
     style="font-size:11px;fill:#000000;fill-opacity:1;stroke:#000000;stroke-linecap:butt;stroke-linejoin:round;stroke-opacity:1;font-family:sans-serif"
     id="g265"
     text-rendering="geometricPrecision"
     transform="translate(75,255)"
     font-size="11">
    <line
       style="fill:none"
       id="line267"
       y1="74"
       x2="50"
       clip-path="url(#clipPath28)"
       x1="50"
       y2="99" />
    <polygon
       style="stroke:none"
       id="polygon269"
       clip-path="url(#clipPath28)"
       points="50,74 56,62 50,50 44,62 " />
    <polygon
       style="fill:none"
       id="polygon271"
       clip-path="url(#clipPath28)"
       points="50,74 56,62 50,50 44,62 " />
  </g>
  <g
     style="font-size:11px;fill:#000000;fill-opacity:1;stroke:#000000;stroke-linecap:butt;stroke-linejoin:round;stroke-opacity:1;font-family:sans-serif"
     id="g273"
     text-rendering="geometricPrecision"
     transform="translate(422,116)"
     font-size="11">
    <line
       style="fill:none"
       id="line275"
       y1="50"
       x2="50"
       clip-path="url(#clipPath29)"
       x1="50"
       y2="138" />
    <polygon
       style="fill:#ffffff;stroke:none"
       id="polygon277"
       points="56,62 50,50 44,62 "
       clip-path="url(#clipPath29)" />
    <polygon
       style="fill:none"
       id="polygon279"
       clip-path="url(#clipPath29)"
       points="56,62 50,50 44,62 " />
  </g>
  <g
     style="font-size:11px;fill:#000000;fill-opacity:1;stroke:#000000;stroke-linecap:butt;stroke-linejoin:round;stroke-opacity:1;stroke-dasharray:5;stroke-dashoffset:1;font-family:sans-serif"
     id="g281"
     text-rendering="geometricPrecision"
     transform="translate(302,145)"
     font-size="11">
    <line
       style="fill:none"
       id="line283"
       y1="110"
       x2="50"
       clip-path="url(#clipPath30)"
       x1="100"
       y2="50" />
    <line
       style="fill:none;stroke-dasharray:none;stroke-dashoffset:0"
       id="line285"
       y2="62"
       y1="50"
       x2="52"
       x1="50"
       clip-path="url(#clipPath30)" />
    <line
       style="fill:none;stroke-dasharray:none;stroke-dashoffset:0"
       id="line287"
       y2="55"
       y1="50"
       x2="62"
       x1="50"
       clip-path="url(#clipPath30)" />
  </g>
  <g
     style="font-size:11px;fill:#000000;fill-opacity:1;stroke:#000000;stroke-linecap:butt;stroke-linejoin:round;stroke-opacity:1;font-family:sans-serif"
     id="g289"
     text-rendering="geometricPrecision"
     transform="translate(156,235)"
     font-size="11">
    <line
       style="fill:none"
       id="line291"
       y1="50"
       x2="195"
       clip-path="url(#clipPath31)"
       x1="74"
       y2="50" />
    <polygon
       style="stroke:none"
       id="polygon293"
       clip-path="url(#clipPath31)"
       points="74,50 62,44 50,50 62,56 " />
    <polygon
       style="fill:none"
       id="polygon295"
       clip-path="url(#clipPath31)"
       points="74,50 62,44 50,50 62,56 " />
  </g>
  <g
     style="font-size:11px;fill:#000000;fill-opacity:1;stroke:#000000;stroke-linecap:butt;stroke-linejoin:round;stroke-opacity:1;stroke-dasharray:5;stroke-dashoffset:1;font-family:sans-serif"
     id="g297"
     text-rendering="geometricPrecision"
     transform="translate(156,146)"
     font-size="11">
    <line
       style="fill:none"
       id="line299"
       y1="88"
       x2="85"
       clip-path="url(#clipPath32)"
       x1="50"
       y2="50" />
    <line
       style="fill:none;stroke-dasharray:none;stroke-dashoffset:0"
       id="line301"
       y2="54"
       y1="50"
       x2="73"
       x1="85"
       clip-path="url(#clipPath32)" />
    <line
       style="fill:none;stroke-dasharray:none;stroke-dashoffset:0"
       id="line303"
       y2="62"
       y1="50"
       x2="82"
       x1="85"
       clip-path="url(#clipPath32)" />
  </g>
  <g
     style="font-size:11px;fill:#000000;fill-opacity:1;stroke:#000000;stroke-opacity:1;font-family:sans-serif"
     id="g305"
     text-rendering="geometricPrecision"
     transform="translate(162,205)"
     font-size="11">
    <text
       style="stroke:none"
       id="text307"
       clip-path="url(#clipPath33)"
       y="11"
       xml:space="preserve"
       x="9">&lt;&lt;use&gt;&gt;</text>
  </g>
  <g
     style="font-size:11px;fill:#000000;fill-opacity:1;stroke:#000000;stroke-opacity:1;font-family:sans-serif"
     id="g309"
     text-rendering="geometricPrecision"
     transform="translate(337,215)"
     font-size="11">
    <text
       style="stroke:none"
       id="text311"
       clip-path="url(#clipPath33)"
       y="11"
       xml:space="preserve"
       x="9">&lt;&lt;use&gt;&gt;</text>
  </g>
</svg>
